%TF.GenerationSoftware,KiCad,Pcbnew,(6.0.6)*%
%TF.CreationDate,2022-07-27T00:23:15-07:00*%
%TF.ProjectId,AUTOPUMP_V2.02,4155544f-5055-44d5-905f-56322e30322e,rev?*%
%TF.SameCoordinates,Original*%
%TF.FileFunction,Copper,L2,Bot*%
%TF.FilePolarity,Positive*%
%FSLAX46Y46*%
G04 Gerber Fmt 4.6, Leading zero omitted, Abs format (unit mm)*
G04 Created by KiCad (PCBNEW (6.0.6)) date 2022-07-27 00:23:15*
%MOMM*%
%LPD*%
G01*
G04 APERTURE LIST*
%TA.AperFunction,ComponentPad*%
%ADD10R,2.600000X2.600000*%
%TD*%
%TA.AperFunction,ComponentPad*%
%ADD11C,2.600000*%
%TD*%
%TA.AperFunction,ComponentPad*%
%ADD12R,1.905000X2.000000*%
%TD*%
%TA.AperFunction,ComponentPad*%
%ADD13O,1.905000X2.000000*%
%TD*%
%TA.AperFunction,ComponentPad*%
%ADD14C,0.600000*%
%TD*%
%TA.AperFunction,SMDPad,CuDef*%
%ADD15R,2.950000X4.500000*%
%TD*%
%TA.AperFunction,ComponentPad*%
%ADD16C,6.000000*%
%TD*%
%TA.AperFunction,ComponentPad*%
%ADD17C,1.524000*%
%TD*%
%TA.AperFunction,ComponentPad*%
%ADD18R,1.600000X1.600000*%
%TD*%
%TA.AperFunction,ComponentPad*%
%ADD19C,1.600000*%
%TD*%
%TA.AperFunction,ViaPad*%
%ADD20C,1.200000*%
%TD*%
%TA.AperFunction,ViaPad*%
%ADD21C,0.800000*%
%TD*%
G04 APERTURE END LIST*
D10*
%TO.P,J4,1,Pin_1*%
%TO.N,VDD*%
X111172800Y-60967800D03*
D11*
%TO.P,J4,2,Pin_2*%
%TO.N,GND*%
X111172800Y-66047800D03*
%TD*%
D12*
%TO.P,Q1,1,G*%
%TO.N,/D2*%
X127762000Y-86797000D03*
D13*
%TO.P,Q1,2,D*%
%TO.N,Net-(D5-Pad2)*%
X130302000Y-86797000D03*
%TO.P,Q1,3,S*%
%TO.N,GND*%
X132842000Y-86797000D03*
%TD*%
D14*
%TO.P,U1,9,GNDPAD*%
%TO.N,GND*%
X135474000Y-59979000D03*
X134274000Y-58779000D03*
X134274000Y-62379000D03*
D15*
X134874000Y-60579000D03*
D14*
X135474000Y-61279000D03*
X134274000Y-59979000D03*
X135474000Y-58779000D03*
X134274000Y-61279000D03*
X135474000Y-62379000D03*
%TD*%
D16*
%TO.P,H3,1*%
%TO.N,N/C*%
X154305000Y-98171000D03*
%TD*%
%TO.P,H2,1*%
%TO.N,N/C*%
X109855000Y-98171000D03*
%TD*%
D17*
%TO.P,U2,1,RESET*%
%TO.N,unconnected-(U2-Pad1)*%
X155702000Y-66548000D03*
%TO.P,U2,2,3V3*%
%TO.N,unconnected-(U2-Pad2)*%
X153162000Y-66548000D03*
%TO.P,U2,3,AREF*%
%TO.N,unconnected-(U2-Pad3)*%
X150622000Y-66548000D03*
%TO.P,U2,4,VHI*%
%TO.N,unconnected-(U2-Pad4)*%
X148082000Y-66548000D03*
%TO.P,U2,5,A0*%
%TO.N,/A0*%
X145542000Y-66548000D03*
%TO.P,U2,6,A1*%
%TO.N,unconnected-(U2-Pad6)*%
X143002000Y-66548000D03*
%TO.P,U2,7,A2*%
%TO.N,unconnected-(U2-Pad7)*%
X140462000Y-66548000D03*
%TO.P,U2,8,A3*%
%TO.N,unconnected-(U2-Pad8)*%
X137922000Y-66548000D03*
%TO.P,U2,9,A4*%
%TO.N,unconnected-(U2-Pad9)*%
X135382000Y-66548000D03*
%TO.P,U2,10,A5*%
%TO.N,unconnected-(U2-Pad10)*%
X132842000Y-66548000D03*
%TO.P,U2,11,SCK*%
%TO.N,unconnected-(U2-Pad11)*%
X130302000Y-66548000D03*
%TO.P,U2,12,MOSI*%
%TO.N,unconnected-(U2-Pad12)*%
X127762000Y-66548000D03*
%TO.P,U2,13,MISO*%
%TO.N,unconnected-(U2-Pad13)*%
X125222000Y-66548000D03*
%TO.P,U2,14,D2*%
%TO.N,/D2*%
X122682000Y-66548000D03*
%TO.P,U2,20,RX_D0*%
%TO.N,unconnected-(U2-Pad20)*%
X122682000Y-81788000D03*
%TO.P,U2,21,TX_D1*%
%TO.N,unconnected-(U2-Pad21)*%
X125222000Y-81788000D03*
%TO.P,U2,22,SDA*%
%TO.N,unconnected-(U2-Pad22)*%
X127762000Y-81788000D03*
%TO.P,U2,23,SCL*%
%TO.N,unconnected-(U2-Pad23)*%
X130302000Y-81788000D03*
%TO.P,U2,24,D5_5V*%
%TO.N,/D5*%
X132842000Y-81788000D03*
%TO.P,U2,25,D7*%
%TO.N,unconnected-(U2-Pad25)*%
X135382000Y-81788000D03*
%TO.P,U2,26,D9*%
%TO.N,unconnected-(U2-Pad26)*%
X137922000Y-81788000D03*
%TO.P,U2,27,D10*%
%TO.N,unconnected-(U2-Pad27)*%
X140462000Y-81788000D03*
%TO.P,U2,28,D11*%
%TO.N,unconnected-(U2-Pad28)*%
X143002000Y-81788000D03*
%TO.P,U2,29,D12*%
%TO.N,unconnected-(U2-Pad29)*%
X145542000Y-81788000D03*
%TO.P,U2,30,D13*%
%TO.N,unconnected-(U2-Pad30)*%
X148082000Y-81788000D03*
%TO.P,U2,31,VBUS*%
%TO.N,unconnected-(U2-Pad31)*%
X150622000Y-81788000D03*
%TO.P,U2,32,GND*%
%TO.N,GND*%
X153162000Y-81788000D03*
%TO.P,U2,33,VBATT*%
%TO.N,+5V*%
X155702000Y-81788000D03*
%TD*%
D10*
%TO.P,J5,1,Pin_1*%
%TO.N,VDD*%
X125221000Y-96757394D03*
D11*
%TO.P,J5,2,Pin_2*%
%TO.N,Net-(D5-Pad2)*%
X130301000Y-96757394D03*
%TD*%
D16*
%TO.P,H4,1*%
%TO.N,N/C*%
X154305000Y-53721000D03*
%TD*%
D10*
%TO.P,J1,1,Pin_1*%
%TO.N,+5V*%
X136905000Y-96757394D03*
D11*
%TO.P,J1,2,Pin_2*%
%TO.N,Net-(J1-Pad2)*%
X141985000Y-96757394D03*
%TO.P,J1,3,Pin_3*%
%TO.N,GND*%
X147065000Y-96757394D03*
%TD*%
D10*
%TO.P,J3,1,Pin_1*%
%TO.N,/D5*%
X111172800Y-85346800D03*
D11*
%TO.P,J3,2,Pin_2*%
%TO.N,GND*%
X111172800Y-90426800D03*
%TD*%
D18*
%TO.P,C2,1*%
%TO.N,/VIN*%
X122859800Y-58646949D03*
D19*
%TO.P,C2,2*%
%TO.N,GND*%
X122859800Y-62146949D03*
%TD*%
D10*
%TO.P,J2,1,Pin_1*%
%TO.N,VDD*%
X111126800Y-73154800D03*
D11*
%TO.P,J2,2,Pin_2*%
%TO.N,GND*%
X111126800Y-78234800D03*
%TD*%
D18*
%TO.P,C7,1*%
%TO.N,+5V*%
X149504400Y-58977149D03*
D19*
%TO.P,C7,2*%
%TO.N,GND*%
X149504400Y-62477149D03*
%TD*%
D16*
%TO.P,H1,1*%
%TO.N,N/C*%
X109855000Y-53721000D03*
%TD*%
D20*
%TO.N,GND*%
X143510000Y-64008000D03*
D21*
X134619000Y-91677394D03*
X118330800Y-80017800D03*
X152400000Y-80010000D03*
X114520800Y-70619800D03*
X144780000Y-57150000D03*
X139191000Y-100567394D03*
D20*
X149606000Y-64008000D03*
D21*
X149351000Y-91677394D03*
X134620000Y-68580000D03*
X138430000Y-80010000D03*
X114520800Y-74429800D03*
X130810000Y-72390000D03*
X148590000Y-72390000D03*
D20*
X148082000Y-64008000D03*
D21*
X114520800Y-88907800D03*
X134620000Y-76200000D03*
X138430000Y-76200000D03*
X119507000Y-51181000D03*
X148590000Y-76200000D03*
X152400000Y-76200000D03*
X148590000Y-68580000D03*
X119405400Y-74422000D03*
X142240000Y-80010000D03*
X142240000Y-72390000D03*
X148590000Y-80010000D03*
X134620000Y-72390000D03*
X132079000Y-100567394D03*
X152400000Y-68580000D03*
X124459000Y-100567394D03*
X152400000Y-72390000D03*
X142240000Y-76200000D03*
X126873000Y-51181000D03*
X138430000Y-72390000D03*
X128269000Y-100567394D03*
X146811000Y-100567394D03*
D20*
X145034000Y-64008000D03*
D21*
X143001000Y-100567394D03*
D20*
X138176000Y-64008000D03*
D21*
X115189000Y-51181000D03*
X138430000Y-68580000D03*
D20*
X136652000Y-64008000D03*
D21*
X144780000Y-54610000D03*
X139699000Y-91677394D03*
X145541000Y-91677394D03*
D20*
X135128000Y-64008000D03*
D21*
X120649000Y-100567394D03*
X123190000Y-51181000D03*
X135381000Y-100567394D03*
X144780000Y-52070000D03*
X110710800Y-68841800D03*
D20*
X130429000Y-62738000D03*
D21*
X134620000Y-80010000D03*
D20*
X146558000Y-64008000D03*
D21*
X130810000Y-68580000D03*
X114520800Y-80017800D03*
X142240000Y-68580000D03*
X114520800Y-83827800D03*
D20*
X133350000Y-64008000D03*
%TD*%
%TA.AperFunction,Conductor*%
%TO.N,GND*%
G36*
X157086103Y-47627921D02*
G01*
X157099000Y-47630486D01*
X157111172Y-47628065D01*
X157123580Y-47628065D01*
X157123580Y-47628156D01*
X157134565Y-47627364D01*
X157437501Y-47643240D01*
X157450617Y-47644618D01*
X157778898Y-47696613D01*
X157791798Y-47699355D01*
X158112846Y-47785379D01*
X158125382Y-47789453D01*
X158396468Y-47893513D01*
X158435672Y-47908562D01*
X158447720Y-47913926D01*
X158743867Y-48064820D01*
X158755288Y-48071414D01*
X159034040Y-48252437D01*
X159044710Y-48260190D01*
X159303004Y-48469352D01*
X159312805Y-48478177D01*
X159547823Y-48713195D01*
X159556648Y-48722996D01*
X159765810Y-48981290D01*
X159773563Y-48991960D01*
X159954586Y-49270712D01*
X159961180Y-49282133D01*
X160112074Y-49578280D01*
X160117438Y-49590328D01*
X160236545Y-49900610D01*
X160240621Y-49913154D01*
X160326645Y-50234202D01*
X160329387Y-50247102D01*
X160381382Y-50575383D01*
X160382760Y-50588499D01*
X160396110Y-50843227D01*
X160398636Y-50891433D01*
X160397844Y-50902420D01*
X160397935Y-50902420D01*
X160397935Y-50914828D01*
X160395514Y-50927000D01*
X160397935Y-50939170D01*
X160398079Y-50939894D01*
X160400500Y-50964476D01*
X160400500Y-100927524D01*
X160398079Y-100952103D01*
X160395514Y-100965000D01*
X160397935Y-100977172D01*
X160397935Y-100989580D01*
X160397844Y-100989580D01*
X160398636Y-101000565D01*
X160388496Y-101194055D01*
X160382760Y-101303500D01*
X160381382Y-101316617D01*
X160329387Y-101644898D01*
X160326645Y-101657798D01*
X160240621Y-101978846D01*
X160236545Y-101991390D01*
X160117438Y-102301672D01*
X160112074Y-102313720D01*
X159961180Y-102609867D01*
X159954586Y-102621288D01*
X159773563Y-102900040D01*
X159765810Y-102910710D01*
X159556648Y-103169004D01*
X159547823Y-103178805D01*
X159312805Y-103413823D01*
X159303004Y-103422648D01*
X159044710Y-103631810D01*
X159034040Y-103639563D01*
X158755288Y-103820586D01*
X158743867Y-103827180D01*
X158447720Y-103978074D01*
X158435671Y-103983438D01*
X158125382Y-104102547D01*
X158112846Y-104106621D01*
X157791798Y-104192645D01*
X157778898Y-104195387D01*
X157450617Y-104247382D01*
X157437501Y-104248760D01*
X157134565Y-104264636D01*
X157123580Y-104263844D01*
X157123580Y-104263935D01*
X157111172Y-104263935D01*
X157099000Y-104261514D01*
X157086103Y-104264079D01*
X157061524Y-104266500D01*
X107098476Y-104266500D01*
X107073897Y-104264079D01*
X107061000Y-104261514D01*
X107048828Y-104263935D01*
X107036420Y-104263935D01*
X107036420Y-104263844D01*
X107025435Y-104264636D01*
X106722499Y-104248760D01*
X106709383Y-104247382D01*
X106381102Y-104195387D01*
X106368202Y-104192645D01*
X106047154Y-104106621D01*
X106034618Y-104102547D01*
X105724329Y-103983438D01*
X105712280Y-103978074D01*
X105416133Y-103827180D01*
X105404712Y-103820586D01*
X105125960Y-103639563D01*
X105115290Y-103631810D01*
X104856996Y-103422648D01*
X104847195Y-103413823D01*
X104612177Y-103178805D01*
X104603352Y-103169004D01*
X104394190Y-102910710D01*
X104386437Y-102900040D01*
X104205414Y-102621288D01*
X104198820Y-102609867D01*
X104047926Y-102313720D01*
X104042562Y-102301672D01*
X103923455Y-101991390D01*
X103919379Y-101978846D01*
X103833355Y-101657798D01*
X103830613Y-101644898D01*
X103778618Y-101316617D01*
X103777240Y-101303500D01*
X103771504Y-101194055D01*
X103761364Y-101000565D01*
X103762156Y-100989580D01*
X103762065Y-100989580D01*
X103762065Y-100977172D01*
X103764486Y-100965000D01*
X103761921Y-100952103D01*
X103759500Y-100927524D01*
X103759500Y-98159623D01*
X106595740Y-98159623D01*
X106595912Y-98163018D01*
X106595912Y-98163019D01*
X106596225Y-98169193D01*
X106613575Y-98511688D01*
X106614112Y-98515043D01*
X106614113Y-98515049D01*
X106619545Y-98548959D01*
X106669328Y-98859767D01*
X106762347Y-99199789D01*
X106891545Y-99527776D01*
X106893128Y-99530791D01*
X107053825Y-99836875D01*
X107053830Y-99836883D01*
X107055409Y-99839891D01*
X107057303Y-99842709D01*
X107057308Y-99842718D01*
X107243981Y-100120516D01*
X107252023Y-100132484D01*
X107479087Y-100402131D01*
X107481547Y-100404482D01*
X107481550Y-100404485D01*
X107731482Y-100643325D01*
X107731489Y-100643331D01*
X107733945Y-100645678D01*
X108013614Y-100860276D01*
X108016532Y-100862050D01*
X108311910Y-101041643D01*
X108311915Y-101041646D01*
X108314825Y-101043415D01*
X108317913Y-101044861D01*
X108317912Y-101044861D01*
X108630968Y-101191508D01*
X108630978Y-101191512D01*
X108634052Y-101192952D01*
X108637270Y-101194054D01*
X108637273Y-101194055D01*
X108964331Y-101306032D01*
X108964335Y-101306033D01*
X108967562Y-101307138D01*
X108970892Y-101307888D01*
X108970901Y-101307891D01*
X109214150Y-101362709D01*
X109311454Y-101384637D01*
X109314839Y-101385023D01*
X109314847Y-101385024D01*
X109658321Y-101424158D01*
X109658329Y-101424158D01*
X109661704Y-101424543D01*
X109665108Y-101424561D01*
X109665111Y-101424561D01*
X109856972Y-101425566D01*
X110014215Y-101426389D01*
X110017601Y-101426039D01*
X110017603Y-101426039D01*
X110361472Y-101390504D01*
X110361481Y-101390503D01*
X110364864Y-101390153D01*
X110368197Y-101389439D01*
X110368200Y-101389438D01*
X110603727Y-101338945D01*
X110709548Y-101316259D01*
X111044236Y-101205572D01*
X111365012Y-101059386D01*
X111367949Y-101057642D01*
X111367955Y-101057639D01*
X111665189Y-100881153D01*
X111668123Y-100879411D01*
X111950025Y-100667753D01*
X112207419Y-100426888D01*
X112228714Y-100402131D01*
X112261321Y-100364221D01*
X112437294Y-100159634D01*
X112439226Y-100156823D01*
X112635031Y-99871925D01*
X112635036Y-99871918D01*
X112636961Y-99869116D01*
X112638573Y-99866122D01*
X112638578Y-99866114D01*
X112802463Y-99561746D01*
X112804085Y-99558734D01*
X112936710Y-99232118D01*
X113033285Y-98893089D01*
X113092680Y-98545612D01*
X113094550Y-98515049D01*
X113114089Y-98195584D01*
X113114201Y-98193754D01*
X113114280Y-98171000D01*
X113095216Y-97819000D01*
X113038248Y-97471117D01*
X112944043Y-97131422D01*
X112813701Y-96803888D01*
X112662542Y-96518399D01*
X112650347Y-96495366D01*
X112650343Y-96495359D01*
X112648748Y-96492347D01*
X112451114Y-96200442D01*
X112223110Y-95931589D01*
X111967404Y-95688933D01*
X111964697Y-95686871D01*
X111964689Y-95686864D01*
X111718217Y-95499104D01*
X111686987Y-95475313D01*
X111659116Y-95458500D01*
X111615729Y-95432327D01*
X123666500Y-95432327D01*
X123666501Y-98082460D01*
X123681266Y-98156695D01*
X123688161Y-98167014D01*
X123688162Y-98167016D01*
X123706028Y-98193754D01*
X123737516Y-98240878D01*
X123821699Y-98297128D01*
X123895933Y-98311894D01*
X125220785Y-98311894D01*
X126546066Y-98311893D01*
X126581818Y-98304782D01*
X126608126Y-98299550D01*
X126608128Y-98299549D01*
X126620301Y-98297128D01*
X126630621Y-98290233D01*
X126630622Y-98290232D01*
X126694168Y-98247771D01*
X126704484Y-98240878D01*
X126737200Y-98191915D01*
X126753839Y-98167014D01*
X126760734Y-98156695D01*
X126775500Y-98082461D01*
X126775499Y-96757394D01*
X128741693Y-96757394D01*
X128760891Y-97001323D01*
X128818011Y-97239246D01*
X128819904Y-97243817D01*
X128819905Y-97243819D01*
X128909454Y-97460010D01*
X128911647Y-97465305D01*
X129039494Y-97673932D01*
X129198403Y-97859991D01*
X129384462Y-98018900D01*
X129593089Y-98146747D01*
X129597659Y-98148640D01*
X129597663Y-98148642D01*
X129814575Y-98238489D01*
X129819148Y-98240383D01*
X129901452Y-98260142D01*
X130052258Y-98296348D01*
X130052264Y-98296349D01*
X130057071Y-98297503D01*
X130301000Y-98316701D01*
X130544929Y-98297503D01*
X130549736Y-98296349D01*
X130549742Y-98296348D01*
X130700548Y-98260142D01*
X130782852Y-98240383D01*
X130787425Y-98238489D01*
X131004337Y-98148642D01*
X131004341Y-98148640D01*
X131008911Y-98146747D01*
X131217538Y-98018900D01*
X131403597Y-97859991D01*
X131562506Y-97673932D01*
X131690353Y-97465305D01*
X131692547Y-97460010D01*
X131782095Y-97243819D01*
X131782096Y-97243817D01*
X131783989Y-97239246D01*
X131841109Y-97001323D01*
X131860307Y-96757394D01*
X131841109Y-96513465D01*
X131833701Y-96482605D01*
X131785144Y-96280354D01*
X131783989Y-96275542D01*
X131782095Y-96270969D01*
X131692248Y-96054057D01*
X131692246Y-96054053D01*
X131690353Y-96049483D01*
X131562506Y-95840856D01*
X131403597Y-95654797D01*
X131217538Y-95495888D01*
X131113816Y-95432327D01*
X135350500Y-95432327D01*
X135350501Y-98082460D01*
X135365266Y-98156695D01*
X135372161Y-98167014D01*
X135372162Y-98167016D01*
X135390028Y-98193754D01*
X135421516Y-98240878D01*
X135505699Y-98297128D01*
X135579933Y-98311894D01*
X136904785Y-98311894D01*
X138230066Y-98311893D01*
X138265818Y-98304782D01*
X138292126Y-98299550D01*
X138292128Y-98299549D01*
X138304301Y-98297128D01*
X138314621Y-98290233D01*
X138314622Y-98290232D01*
X138378168Y-98247771D01*
X138388484Y-98240878D01*
X138421200Y-98191915D01*
X138437839Y-98167014D01*
X138444734Y-98156695D01*
X138459500Y-98082461D01*
X138459499Y-96757394D01*
X140425693Y-96757394D01*
X140444891Y-97001323D01*
X140502011Y-97239246D01*
X140503904Y-97243817D01*
X140503905Y-97243819D01*
X140593454Y-97460010D01*
X140595647Y-97465305D01*
X140723494Y-97673932D01*
X140882403Y-97859991D01*
X141068462Y-98018900D01*
X141277089Y-98146747D01*
X141281659Y-98148640D01*
X141281663Y-98148642D01*
X141498575Y-98238489D01*
X141503148Y-98240383D01*
X141585452Y-98260142D01*
X141736258Y-98296348D01*
X141736264Y-98296349D01*
X141741071Y-98297503D01*
X141985000Y-98316701D01*
X142228929Y-98297503D01*
X142233736Y-98296349D01*
X142233742Y-98296348D01*
X142384548Y-98260142D01*
X142466852Y-98240383D01*
X142471425Y-98238489D01*
X142661826Y-98159623D01*
X151045740Y-98159623D01*
X151045912Y-98163018D01*
X151045912Y-98163019D01*
X151046225Y-98169193D01*
X151063575Y-98511688D01*
X151064112Y-98515043D01*
X151064113Y-98515049D01*
X151069545Y-98548959D01*
X151119328Y-98859767D01*
X151212347Y-99199789D01*
X151341545Y-99527776D01*
X151343128Y-99530791D01*
X151503825Y-99836875D01*
X151503830Y-99836883D01*
X151505409Y-99839891D01*
X151507303Y-99842709D01*
X151507308Y-99842718D01*
X151693981Y-100120516D01*
X151702023Y-100132484D01*
X151929087Y-100402131D01*
X151931547Y-100404482D01*
X151931550Y-100404485D01*
X152181482Y-100643325D01*
X152181489Y-100643331D01*
X152183945Y-100645678D01*
X152463614Y-100860276D01*
X152466532Y-100862050D01*
X152761910Y-101041643D01*
X152761915Y-101041646D01*
X152764825Y-101043415D01*
X152767913Y-101044861D01*
X152767912Y-101044861D01*
X153080968Y-101191508D01*
X153080978Y-101191512D01*
X153084052Y-101192952D01*
X153087270Y-101194054D01*
X153087273Y-101194055D01*
X153414331Y-101306032D01*
X153414335Y-101306033D01*
X153417562Y-101307138D01*
X153420892Y-101307888D01*
X153420901Y-101307891D01*
X153664150Y-101362709D01*
X153761454Y-101384637D01*
X153764839Y-101385023D01*
X153764847Y-101385024D01*
X154108321Y-101424158D01*
X154108329Y-101424158D01*
X154111704Y-101424543D01*
X154115108Y-101424561D01*
X154115111Y-101424561D01*
X154306972Y-101425566D01*
X154464215Y-101426389D01*
X154467601Y-101426039D01*
X154467603Y-101426039D01*
X154811472Y-101390504D01*
X154811481Y-101390503D01*
X154814864Y-101390153D01*
X154818197Y-101389439D01*
X154818200Y-101389438D01*
X155053727Y-101338945D01*
X155159548Y-101316259D01*
X155494236Y-101205572D01*
X155815012Y-101059386D01*
X155817949Y-101057642D01*
X155817955Y-101057639D01*
X156115189Y-100881153D01*
X156118123Y-100879411D01*
X156400025Y-100667753D01*
X156657419Y-100426888D01*
X156678714Y-100402131D01*
X156711321Y-100364221D01*
X156887294Y-100159634D01*
X156889226Y-100156823D01*
X157085031Y-99871925D01*
X157085036Y-99871918D01*
X157086961Y-99869116D01*
X157088573Y-99866122D01*
X157088578Y-99866114D01*
X157252463Y-99561746D01*
X157254085Y-99558734D01*
X157386710Y-99232118D01*
X157483285Y-98893089D01*
X157542680Y-98545612D01*
X157544550Y-98515049D01*
X157564089Y-98195584D01*
X157564201Y-98193754D01*
X157564280Y-98171000D01*
X157545216Y-97819000D01*
X157488248Y-97471117D01*
X157394043Y-97131422D01*
X157263701Y-96803888D01*
X157112542Y-96518399D01*
X157100347Y-96495366D01*
X157100343Y-96495359D01*
X157098748Y-96492347D01*
X156901114Y-96200442D01*
X156673110Y-95931589D01*
X156417404Y-95688933D01*
X156414697Y-95686871D01*
X156414689Y-95686864D01*
X156168217Y-95499104D01*
X156136987Y-95475313D01*
X156109116Y-95458500D01*
X155838054Y-95294985D01*
X155838048Y-95294982D01*
X155835139Y-95293227D01*
X155515392Y-95144805D01*
X155348439Y-95088295D01*
X155184712Y-95032876D01*
X155184707Y-95032875D01*
X155181485Y-95031784D01*
X154957378Y-94982100D01*
X154840655Y-94956223D01*
X154840651Y-94956222D01*
X154837325Y-94955485D01*
X154693771Y-94939637D01*
X154490320Y-94917175D01*
X154490313Y-94917175D01*
X154486938Y-94916802D01*
X154483539Y-94916796D01*
X154483538Y-94916796D01*
X154317052Y-94916506D01*
X154134422Y-94916187D01*
X154003668Y-94930161D01*
X153787286Y-94953285D01*
X153787280Y-94953286D01*
X153783902Y-94953647D01*
X153780579Y-94954371D01*
X153780576Y-94954372D01*
X153772087Y-94956223D01*
X153439478Y-95028743D01*
X153105179Y-95140598D01*
X153102086Y-95142020D01*
X153102085Y-95142021D01*
X153096032Y-95144805D01*
X152784915Y-95287903D01*
X152781981Y-95289659D01*
X152781979Y-95289660D01*
X152553739Y-95426259D01*
X152482434Y-95468934D01*
X152479708Y-95470996D01*
X152479706Y-95470997D01*
X152231706Y-95658559D01*
X152201273Y-95681575D01*
X152198788Y-95683917D01*
X152198783Y-95683921D01*
X152190972Y-95691282D01*
X151944721Y-95923337D01*
X151942509Y-95925927D01*
X151942507Y-95925929D01*
X151884957Y-95993311D01*
X151715780Y-96191392D01*
X151713861Y-96194204D01*
X151713858Y-96194209D01*
X151658377Y-96275542D01*
X151517128Y-96482605D01*
X151515521Y-96485615D01*
X151515519Y-96485618D01*
X151367772Y-96762324D01*
X151351089Y-96793569D01*
X151349816Y-96796737D01*
X151349815Y-96796738D01*
X151265638Y-97006136D01*
X151219605Y-97120646D01*
X151218687Y-97123914D01*
X151218684Y-97123921D01*
X151125135Y-97456732D01*
X151124214Y-97460010D01*
X151123652Y-97463367D01*
X151123652Y-97463368D01*
X151121795Y-97474468D01*
X151066032Y-97807692D01*
X151045740Y-98159623D01*
X142661826Y-98159623D01*
X142688337Y-98148642D01*
X142688341Y-98148640D01*
X142692911Y-98146747D01*
X142901538Y-98018900D01*
X143087597Y-97859991D01*
X143246506Y-97673932D01*
X143374353Y-97465305D01*
X143376547Y-97460010D01*
X143466095Y-97243819D01*
X143466096Y-97243817D01*
X143467989Y-97239246D01*
X143525109Y-97001323D01*
X143544307Y-96757394D01*
X143525109Y-96513465D01*
X143517701Y-96482605D01*
X143469144Y-96280354D01*
X143467989Y-96275542D01*
X143466095Y-96270969D01*
X143376248Y-96054057D01*
X143376246Y-96054053D01*
X143374353Y-96049483D01*
X143246506Y-95840856D01*
X143087597Y-95654797D01*
X142901538Y-95495888D01*
X142692911Y-95368041D01*
X142688341Y-95366148D01*
X142688337Y-95366146D01*
X142471425Y-95276299D01*
X142471423Y-95276298D01*
X142466852Y-95274405D01*
X142384548Y-95254646D01*
X142233742Y-95218440D01*
X142233736Y-95218439D01*
X142228929Y-95217285D01*
X141985000Y-95198087D01*
X141741071Y-95217285D01*
X141736264Y-95218439D01*
X141736258Y-95218440D01*
X141585452Y-95254646D01*
X141503148Y-95274405D01*
X141498577Y-95276298D01*
X141498575Y-95276299D01*
X141281663Y-95366146D01*
X141281659Y-95366148D01*
X141277089Y-95368041D01*
X141068462Y-95495888D01*
X140882403Y-95654797D01*
X140723494Y-95840856D01*
X140595647Y-96049483D01*
X140593754Y-96054053D01*
X140593752Y-96054057D01*
X140503905Y-96270969D01*
X140502011Y-96275542D01*
X140500856Y-96280354D01*
X140452300Y-96482605D01*
X140444891Y-96513465D01*
X140425693Y-96757394D01*
X138459499Y-96757394D01*
X138459499Y-95432328D01*
X138444734Y-95358093D01*
X138388484Y-95273910D01*
X138304301Y-95217660D01*
X138230067Y-95202894D01*
X136905215Y-95202894D01*
X135579934Y-95202895D01*
X135544182Y-95210006D01*
X135517874Y-95215238D01*
X135517872Y-95215239D01*
X135505699Y-95217660D01*
X135495379Y-95224555D01*
X135495378Y-95224556D01*
X135434985Y-95264910D01*
X135421516Y-95273910D01*
X135365266Y-95358093D01*
X135350500Y-95432327D01*
X131113816Y-95432327D01*
X131008911Y-95368041D01*
X131004341Y-95366148D01*
X131004337Y-95366146D01*
X130787425Y-95276299D01*
X130787423Y-95276298D01*
X130782852Y-95274405D01*
X130700548Y-95254646D01*
X130549742Y-95218440D01*
X130549736Y-95218439D01*
X130544929Y-95217285D01*
X130301000Y-95198087D01*
X130057071Y-95217285D01*
X130052264Y-95218439D01*
X130052258Y-95218440D01*
X129901452Y-95254646D01*
X129819148Y-95274405D01*
X129814577Y-95276298D01*
X129814575Y-95276299D01*
X129597663Y-95366146D01*
X129597659Y-95366148D01*
X129593089Y-95368041D01*
X129384462Y-95495888D01*
X129198403Y-95654797D01*
X129039494Y-95840856D01*
X128911647Y-96049483D01*
X128909754Y-96054053D01*
X128909752Y-96054057D01*
X128819905Y-96270969D01*
X128818011Y-96275542D01*
X128816856Y-96280354D01*
X128768300Y-96482605D01*
X128760891Y-96513465D01*
X128741693Y-96757394D01*
X126775499Y-96757394D01*
X126775499Y-95432328D01*
X126760734Y-95358093D01*
X126704484Y-95273910D01*
X126620301Y-95217660D01*
X126546067Y-95202894D01*
X125221215Y-95202894D01*
X123895934Y-95202895D01*
X123860182Y-95210006D01*
X123833874Y-95215238D01*
X123833872Y-95215239D01*
X123821699Y-95217660D01*
X123811379Y-95224555D01*
X123811378Y-95224556D01*
X123750985Y-95264910D01*
X123737516Y-95273910D01*
X123681266Y-95358093D01*
X123666500Y-95432327D01*
X111615729Y-95432327D01*
X111388054Y-95294985D01*
X111388048Y-95294982D01*
X111385139Y-95293227D01*
X111065392Y-95144805D01*
X110898439Y-95088295D01*
X110734712Y-95032876D01*
X110734707Y-95032875D01*
X110731485Y-95031784D01*
X110507378Y-94982100D01*
X110390655Y-94956223D01*
X110390651Y-94956222D01*
X110387325Y-94955485D01*
X110243771Y-94939637D01*
X110040320Y-94917175D01*
X110040313Y-94917175D01*
X110036938Y-94916802D01*
X110033539Y-94916796D01*
X110033538Y-94916796D01*
X109867052Y-94916506D01*
X109684422Y-94916187D01*
X109553668Y-94930161D01*
X109337286Y-94953285D01*
X109337280Y-94953286D01*
X109333902Y-94953647D01*
X109330579Y-94954371D01*
X109330576Y-94954372D01*
X109322087Y-94956223D01*
X108989478Y-95028743D01*
X108655179Y-95140598D01*
X108652086Y-95142020D01*
X108652085Y-95142021D01*
X108646032Y-95144805D01*
X108334915Y-95287903D01*
X108331981Y-95289659D01*
X108331979Y-95289660D01*
X108103739Y-95426259D01*
X108032434Y-95468934D01*
X108029708Y-95470996D01*
X108029706Y-95470997D01*
X107781706Y-95658559D01*
X107751273Y-95681575D01*
X107748788Y-95683917D01*
X107748783Y-95683921D01*
X107740972Y-95691282D01*
X107494721Y-95923337D01*
X107492509Y-95925927D01*
X107492507Y-95925929D01*
X107434957Y-95993311D01*
X107265780Y-96191392D01*
X107263861Y-96194204D01*
X107263858Y-96194209D01*
X107208377Y-96275542D01*
X107067128Y-96482605D01*
X107065521Y-96485615D01*
X107065519Y-96485618D01*
X106917772Y-96762324D01*
X106901089Y-96793569D01*
X106899816Y-96796737D01*
X106899815Y-96796738D01*
X106815638Y-97006136D01*
X106769605Y-97120646D01*
X106768687Y-97123914D01*
X106768684Y-97123921D01*
X106675135Y-97456732D01*
X106674214Y-97460010D01*
X106673652Y-97463367D01*
X106673652Y-97463368D01*
X106671795Y-97474468D01*
X106616032Y-97807692D01*
X106595740Y-98159623D01*
X103759500Y-98159623D01*
X103759500Y-84021733D01*
X109618300Y-84021733D01*
X109618301Y-86671866D01*
X109633066Y-86746101D01*
X109689316Y-86830284D01*
X109773499Y-86886534D01*
X109847733Y-86901300D01*
X111172585Y-86901300D01*
X112497866Y-86901299D01*
X112533618Y-86894188D01*
X112559926Y-86888956D01*
X112559928Y-86888955D01*
X112572101Y-86886534D01*
X112582421Y-86879639D01*
X112582422Y-86879638D01*
X112645968Y-86837177D01*
X112656284Y-86830284D01*
X112712534Y-86746101D01*
X112727300Y-86671867D01*
X112727300Y-85771933D01*
X126555000Y-85771933D01*
X126555001Y-87822066D01*
X126562112Y-87857818D01*
X126564594Y-87870295D01*
X126569766Y-87896301D01*
X126626016Y-87980484D01*
X126710199Y-88036734D01*
X126784433Y-88051500D01*
X127761842Y-88051500D01*
X128739566Y-88051499D01*
X128780397Y-88043378D01*
X128801626Y-88039156D01*
X128801628Y-88039155D01*
X128813801Y-88036734D01*
X128824121Y-88029839D01*
X128824122Y-88029838D01*
X128887668Y-87987377D01*
X128897984Y-87980484D01*
X128954234Y-87896301D01*
X128969000Y-87822067D01*
X128969000Y-87410480D01*
X128989002Y-87342359D01*
X129042658Y-87295866D01*
X129112932Y-87285762D01*
X129177512Y-87315256D01*
X129208726Y-87356236D01*
X129258885Y-87461397D01*
X129262162Y-87465958D01*
X129262163Y-87465959D01*
X129345079Y-87581348D01*
X129384614Y-87636367D01*
X129539340Y-87786307D01*
X129637696Y-87852399D01*
X129655421Y-87864310D01*
X129718173Y-87906478D01*
X129915460Y-87993081D01*
X130061939Y-88028247D01*
X130107375Y-88039155D01*
X130124965Y-88043378D01*
X130208922Y-88048219D01*
X130334459Y-88055458D01*
X130334462Y-88055458D01*
X130340066Y-88055781D01*
X130553964Y-88029897D01*
X130673635Y-87993081D01*
X130754535Y-87968193D01*
X130754539Y-87968191D01*
X130759897Y-87966543D01*
X130764877Y-87963973D01*
X130764881Y-87963971D01*
X130946374Y-87870295D01*
X130946375Y-87870295D01*
X130951357Y-87867723D01*
X131002950Y-87828135D01*
X131117848Y-87739971D01*
X131122292Y-87736561D01*
X131267298Y-87577201D01*
X131339942Y-87461397D01*
X131378809Y-87399438D01*
X131378811Y-87399434D01*
X131381792Y-87394682D01*
X131462155Y-87194772D01*
X131505848Y-86983790D01*
X131509000Y-86929122D01*
X131509000Y-86694832D01*
X131506951Y-86671867D01*
X131495225Y-86540490D01*
X131494726Y-86534895D01*
X131437872Y-86327073D01*
X131379420Y-86204524D01*
X131347532Y-86137670D01*
X131347531Y-86137668D01*
X131345115Y-86132603D01*
X131261901Y-86016799D01*
X131222663Y-85962193D01*
X131222661Y-85962191D01*
X131219386Y-85957633D01*
X131064660Y-85807693D01*
X130966304Y-85741601D01*
X130890488Y-85690654D01*
X130890487Y-85690654D01*
X130885827Y-85687522D01*
X130688540Y-85600919D01*
X130506710Y-85557266D01*
X130484492Y-85551932D01*
X130484491Y-85551932D01*
X130479035Y-85550622D01*
X130395078Y-85545781D01*
X130269541Y-85538542D01*
X130269538Y-85538542D01*
X130263934Y-85538219D01*
X130050036Y-85564103D01*
X129947069Y-85595780D01*
X129849465Y-85625807D01*
X129849461Y-85625809D01*
X129844103Y-85627457D01*
X129839123Y-85630027D01*
X129839119Y-85630029D01*
X129684427Y-85709872D01*
X129652643Y-85726277D01*
X129648195Y-85729690D01*
X129593142Y-85771933D01*
X129481708Y-85857439D01*
X129336702Y-86016799D01*
X129333721Y-86021550D01*
X129333721Y-86021551D01*
X129235613Y-86177949D01*
X129222208Y-86199318D01*
X129211906Y-86224946D01*
X129167939Y-86280690D01*
X129100815Y-86303815D01*
X129031843Y-86286978D01*
X128982923Y-86235526D01*
X128968999Y-86177949D01*
X128968999Y-85771934D01*
X128959918Y-85726277D01*
X128956656Y-85709874D01*
X128956655Y-85709872D01*
X128954234Y-85697699D01*
X128897984Y-85613516D01*
X128813801Y-85557266D01*
X128739567Y-85542500D01*
X127762159Y-85542500D01*
X126784434Y-85542501D01*
X126748682Y-85549612D01*
X126722374Y-85554844D01*
X126722372Y-85554845D01*
X126710199Y-85557266D01*
X126699879Y-85564161D01*
X126699878Y-85564162D01*
X126641491Y-85603176D01*
X126626016Y-85613516D01*
X126569766Y-85697699D01*
X126555000Y-85771933D01*
X112727300Y-85771933D01*
X112727299Y-84021734D01*
X112712534Y-83947499D01*
X112656284Y-83863316D01*
X112572101Y-83807066D01*
X112497867Y-83792300D01*
X111173015Y-83792300D01*
X109847734Y-83792301D01*
X109811982Y-83799412D01*
X109785674Y-83804644D01*
X109785672Y-83804645D01*
X109773499Y-83807066D01*
X109763179Y-83813961D01*
X109763178Y-83813962D01*
X109702785Y-83854316D01*
X109689316Y-83863316D01*
X109633066Y-83947499D01*
X109618300Y-84021733D01*
X103759500Y-84021733D01*
X103759500Y-81773739D01*
X121660682Y-81773739D01*
X121677362Y-81972386D01*
X121732310Y-82164009D01*
X121823430Y-82341311D01*
X121947253Y-82497537D01*
X122099063Y-82626737D01*
X122104441Y-82629743D01*
X122104443Y-82629744D01*
X122146397Y-82653191D01*
X122273076Y-82723989D01*
X122278935Y-82725893D01*
X122278938Y-82725894D01*
X122314701Y-82737514D01*
X122462665Y-82785591D01*
X122468775Y-82786320D01*
X122468777Y-82786320D01*
X122536314Y-82794373D01*
X122660609Y-82809194D01*
X122666744Y-82808722D01*
X122666746Y-82808722D01*
X122853226Y-82794373D01*
X122853231Y-82794372D01*
X122859367Y-82793900D01*
X122865297Y-82792244D01*
X122865299Y-82792244D01*
X122955368Y-82767096D01*
X123051370Y-82740292D01*
X123056870Y-82737514D01*
X123223802Y-82653191D01*
X123223804Y-82653190D01*
X123229303Y-82650412D01*
X123386390Y-82527682D01*
X123408962Y-82501532D01*
X123512618Y-82381446D01*
X123512619Y-82381444D01*
X123516647Y-82376778D01*
X123615112Y-82203448D01*
X123678035Y-82014294D01*
X123684105Y-81966247D01*
X123702578Y-81820023D01*
X123702579Y-81820013D01*
X123703020Y-81816520D01*
X123703418Y-81788000D01*
X123702020Y-81773739D01*
X124200682Y-81773739D01*
X124217362Y-81972386D01*
X124272310Y-82164009D01*
X124363430Y-82341311D01*
X124487253Y-82497537D01*
X124639063Y-82626737D01*
X124644441Y-82629743D01*
X124644443Y-82629744D01*
X124686397Y-82653191D01*
X124813076Y-82723989D01*
X124818935Y-82725893D01*
X124818938Y-82725894D01*
X124854701Y-82737514D01*
X125002665Y-82785591D01*
X125008775Y-82786320D01*
X125008777Y-82786320D01*
X125076314Y-82794373D01*
X125200609Y-82809194D01*
X125206744Y-82808722D01*
X125206746Y-82808722D01*
X125393226Y-82794373D01*
X125393231Y-82794372D01*
X125399367Y-82793900D01*
X125405297Y-82792244D01*
X125405299Y-82792244D01*
X125495368Y-82767096D01*
X125591370Y-82740292D01*
X125596870Y-82737514D01*
X125763802Y-82653191D01*
X125763804Y-82653190D01*
X125769303Y-82650412D01*
X125926390Y-82527682D01*
X125948962Y-82501532D01*
X126052618Y-82381446D01*
X126052619Y-82381444D01*
X126056647Y-82376778D01*
X126155112Y-82203448D01*
X126218035Y-82014294D01*
X126224105Y-81966247D01*
X126242578Y-81820023D01*
X126242579Y-81820013D01*
X126243020Y-81816520D01*
X126243418Y-81788000D01*
X126242020Y-81773739D01*
X126740682Y-81773739D01*
X126757362Y-81972386D01*
X126812310Y-82164009D01*
X126903430Y-82341311D01*
X127027253Y-82497537D01*
X127179063Y-82626737D01*
X127184441Y-82629743D01*
X127184443Y-82629744D01*
X127226397Y-82653191D01*
X127353076Y-82723989D01*
X127358935Y-82725893D01*
X127358938Y-82725894D01*
X127394701Y-82737514D01*
X127542665Y-82785591D01*
X127548775Y-82786320D01*
X127548777Y-82786320D01*
X127616314Y-82794373D01*
X127740609Y-82809194D01*
X127746744Y-82808722D01*
X127746746Y-82808722D01*
X127933226Y-82794373D01*
X127933231Y-82794372D01*
X127939367Y-82793900D01*
X127945297Y-82792244D01*
X127945299Y-82792244D01*
X128035368Y-82767096D01*
X128131370Y-82740292D01*
X128136870Y-82737514D01*
X128303802Y-82653191D01*
X128303804Y-82653190D01*
X128309303Y-82650412D01*
X128466390Y-82527682D01*
X128488962Y-82501532D01*
X128592618Y-82381446D01*
X128592619Y-82381444D01*
X128596647Y-82376778D01*
X128695112Y-82203448D01*
X128758035Y-82014294D01*
X128764105Y-81966247D01*
X128782578Y-81820023D01*
X128782579Y-81820013D01*
X128783020Y-81816520D01*
X128783418Y-81788000D01*
X128782020Y-81773739D01*
X129280682Y-81773739D01*
X129297362Y-81972386D01*
X129352310Y-82164009D01*
X129443430Y-82341311D01*
X129567253Y-82497537D01*
X129719063Y-82626737D01*
X129724441Y-82629743D01*
X129724443Y-82629744D01*
X129766397Y-82653191D01*
X129893076Y-82723989D01*
X129898935Y-82725893D01*
X129898938Y-82725894D01*
X129934701Y-82737514D01*
X130082665Y-82785591D01*
X130088775Y-82786320D01*
X130088777Y-82786320D01*
X130156314Y-82794373D01*
X130280609Y-82809194D01*
X130286744Y-82808722D01*
X130286746Y-82808722D01*
X130473226Y-82794373D01*
X130473231Y-82794372D01*
X130479367Y-82793900D01*
X130485297Y-82792244D01*
X130485299Y-82792244D01*
X130575368Y-82767096D01*
X130671370Y-82740292D01*
X130676870Y-82737514D01*
X130843802Y-82653191D01*
X130843804Y-82653190D01*
X130849303Y-82650412D01*
X131006390Y-82527682D01*
X131028962Y-82501532D01*
X131132618Y-82381446D01*
X131132619Y-82381444D01*
X131136647Y-82376778D01*
X131235112Y-82203448D01*
X131298035Y-82014294D01*
X131304105Y-81966247D01*
X131322578Y-81820023D01*
X131322579Y-81820013D01*
X131323020Y-81816520D01*
X131323418Y-81788000D01*
X131322020Y-81773739D01*
X131820682Y-81773739D01*
X131837362Y-81972386D01*
X131892310Y-82164009D01*
X131983430Y-82341311D01*
X132107253Y-82497537D01*
X132259063Y-82626737D01*
X132264441Y-82629743D01*
X132264443Y-82629744D01*
X132306397Y-82653191D01*
X132433076Y-82723989D01*
X132438935Y-82725893D01*
X132438938Y-82725894D01*
X132474701Y-82737514D01*
X132622665Y-82785591D01*
X132628775Y-82786320D01*
X132628777Y-82786320D01*
X132696314Y-82794373D01*
X132820609Y-82809194D01*
X132826744Y-82808722D01*
X132826746Y-82808722D01*
X133013226Y-82794373D01*
X133013231Y-82794372D01*
X133019367Y-82793900D01*
X133025297Y-82792244D01*
X133025299Y-82792244D01*
X133115368Y-82767096D01*
X133211370Y-82740292D01*
X133216870Y-82737514D01*
X133383802Y-82653191D01*
X133383804Y-82653190D01*
X133389303Y-82650412D01*
X133546390Y-82527682D01*
X133568962Y-82501532D01*
X133672618Y-82381446D01*
X133672619Y-82381444D01*
X133676647Y-82376778D01*
X133775112Y-82203448D01*
X133838035Y-82014294D01*
X133844105Y-81966247D01*
X133862578Y-81820023D01*
X133862579Y-81820013D01*
X133863020Y-81816520D01*
X133863418Y-81788000D01*
X133862020Y-81773739D01*
X134360682Y-81773739D01*
X134377362Y-81972386D01*
X134432310Y-82164009D01*
X134523430Y-82341311D01*
X134647253Y-82497537D01*
X134799063Y-82626737D01*
X134804441Y-82629743D01*
X134804443Y-82629744D01*
X134846397Y-82653191D01*
X134973076Y-82723989D01*
X134978935Y-82725893D01*
X134978938Y-82725894D01*
X135014701Y-82737514D01*
X135162665Y-82785591D01*
X135168775Y-82786320D01*
X135168777Y-82786320D01*
X135236314Y-82794373D01*
X135360609Y-82809194D01*
X135366744Y-82808722D01*
X135366746Y-82808722D01*
X135553226Y-82794373D01*
X135553231Y-82794372D01*
X135559367Y-82793900D01*
X135565297Y-82792244D01*
X135565299Y-82792244D01*
X135655368Y-82767096D01*
X135751370Y-82740292D01*
X135756870Y-82737514D01*
X135923802Y-82653191D01*
X135923804Y-82653190D01*
X135929303Y-82650412D01*
X136086390Y-82527682D01*
X136108962Y-82501532D01*
X136212618Y-82381446D01*
X136212619Y-82381444D01*
X136216647Y-82376778D01*
X136315112Y-82203448D01*
X136378035Y-82014294D01*
X136384105Y-81966247D01*
X136402578Y-81820023D01*
X136402579Y-81820013D01*
X136403020Y-81816520D01*
X136403418Y-81788000D01*
X136402020Y-81773739D01*
X136900682Y-81773739D01*
X136917362Y-81972386D01*
X136972310Y-82164009D01*
X137063430Y-82341311D01*
X137187253Y-82497537D01*
X137339063Y-82626737D01*
X137344441Y-82629743D01*
X137344443Y-82629744D01*
X137386397Y-82653191D01*
X137513076Y-82723989D01*
X137518935Y-82725893D01*
X137518938Y-82725894D01*
X137554701Y-82737514D01*
X137702665Y-82785591D01*
X137708775Y-82786320D01*
X137708777Y-82786320D01*
X137776314Y-82794373D01*
X137900609Y-82809194D01*
X137906744Y-82808722D01*
X137906746Y-82808722D01*
X138093226Y-82794373D01*
X138093231Y-82794372D01*
X138099367Y-82793900D01*
X138105297Y-82792244D01*
X138105299Y-82792244D01*
X138195368Y-82767096D01*
X138291370Y-82740292D01*
X138296870Y-82737514D01*
X138463802Y-82653191D01*
X138463804Y-82653190D01*
X138469303Y-82650412D01*
X138626390Y-82527682D01*
X138648962Y-82501532D01*
X138752618Y-82381446D01*
X138752619Y-82381444D01*
X138756647Y-82376778D01*
X138855112Y-82203448D01*
X138918035Y-82014294D01*
X138924105Y-81966247D01*
X138942578Y-81820023D01*
X138942579Y-81820013D01*
X138943020Y-81816520D01*
X138943418Y-81788000D01*
X138942020Y-81773739D01*
X139440682Y-81773739D01*
X139457362Y-81972386D01*
X139512310Y-82164009D01*
X139603430Y-82341311D01*
X139727253Y-82497537D01*
X139879063Y-82626737D01*
X139884441Y-82629743D01*
X139884443Y-82629744D01*
X139926397Y-82653191D01*
X140053076Y-82723989D01*
X140058935Y-82725893D01*
X140058938Y-82725894D01*
X140094701Y-82737514D01*
X140242665Y-82785591D01*
X140248775Y-82786320D01*
X140248777Y-82786320D01*
X140316314Y-82794373D01*
X140440609Y-82809194D01*
X140446744Y-82808722D01*
X140446746Y-82808722D01*
X140633226Y-82794373D01*
X140633231Y-82794372D01*
X140639367Y-82793900D01*
X140645297Y-82792244D01*
X140645299Y-82792244D01*
X140735368Y-82767096D01*
X140831370Y-82740292D01*
X140836870Y-82737514D01*
X141003802Y-82653191D01*
X141003804Y-82653190D01*
X141009303Y-82650412D01*
X141166390Y-82527682D01*
X141188962Y-82501532D01*
X141292618Y-82381446D01*
X141292619Y-82381444D01*
X141296647Y-82376778D01*
X141395112Y-82203448D01*
X141458035Y-82014294D01*
X141464105Y-81966247D01*
X141482578Y-81820023D01*
X141482579Y-81820013D01*
X141483020Y-81816520D01*
X141483418Y-81788000D01*
X141482020Y-81773739D01*
X141980682Y-81773739D01*
X141997362Y-81972386D01*
X142052310Y-82164009D01*
X142143430Y-82341311D01*
X142267253Y-82497537D01*
X142419063Y-82626737D01*
X142424441Y-82629743D01*
X142424443Y-82629744D01*
X142466397Y-82653191D01*
X142593076Y-82723989D01*
X142598935Y-82725893D01*
X142598938Y-82725894D01*
X142634701Y-82737514D01*
X142782665Y-82785591D01*
X142788775Y-82786320D01*
X142788777Y-82786320D01*
X142856314Y-82794373D01*
X142980609Y-82809194D01*
X142986744Y-82808722D01*
X142986746Y-82808722D01*
X143173226Y-82794373D01*
X143173231Y-82794372D01*
X143179367Y-82793900D01*
X143185297Y-82792244D01*
X143185299Y-82792244D01*
X143275368Y-82767096D01*
X143371370Y-82740292D01*
X143376870Y-82737514D01*
X143543802Y-82653191D01*
X143543804Y-82653190D01*
X143549303Y-82650412D01*
X143706390Y-82527682D01*
X143728962Y-82501532D01*
X143832618Y-82381446D01*
X143832619Y-82381444D01*
X143836647Y-82376778D01*
X143935112Y-82203448D01*
X143998035Y-82014294D01*
X144004105Y-81966247D01*
X144022578Y-81820023D01*
X144022579Y-81820013D01*
X144023020Y-81816520D01*
X144023418Y-81788000D01*
X144022020Y-81773739D01*
X144520682Y-81773739D01*
X144537362Y-81972386D01*
X144592310Y-82164009D01*
X144683430Y-82341311D01*
X144807253Y-82497537D01*
X144959063Y-82626737D01*
X144964441Y-82629743D01*
X144964443Y-82629744D01*
X145006397Y-82653191D01*
X145133076Y-82723989D01*
X145138935Y-82725893D01*
X145138938Y-82725894D01*
X145174701Y-82737514D01*
X145322665Y-82785591D01*
X145328775Y-82786320D01*
X145328777Y-82786320D01*
X145396314Y-82794373D01*
X145520609Y-82809194D01*
X145526744Y-82808722D01*
X145526746Y-82808722D01*
X145713226Y-82794373D01*
X145713231Y-82794372D01*
X145719367Y-82793900D01*
X145725297Y-82792244D01*
X145725299Y-82792244D01*
X145815368Y-82767096D01*
X145911370Y-82740292D01*
X145916870Y-82737514D01*
X146083802Y-82653191D01*
X146083804Y-82653190D01*
X146089303Y-82650412D01*
X146246390Y-82527682D01*
X146268962Y-82501532D01*
X146372618Y-82381446D01*
X146372619Y-82381444D01*
X146376647Y-82376778D01*
X146475112Y-82203448D01*
X146538035Y-82014294D01*
X146544105Y-81966247D01*
X146562578Y-81820023D01*
X146562579Y-81820013D01*
X146563020Y-81816520D01*
X146563418Y-81788000D01*
X146562020Y-81773739D01*
X147060682Y-81773739D01*
X147077362Y-81972386D01*
X147132310Y-82164009D01*
X147223430Y-82341311D01*
X147347253Y-82497537D01*
X147499063Y-82626737D01*
X147504441Y-82629743D01*
X147504443Y-82629744D01*
X147546397Y-82653191D01*
X147673076Y-82723989D01*
X147678935Y-82725893D01*
X147678938Y-82725894D01*
X147714701Y-82737514D01*
X147862665Y-82785591D01*
X147868775Y-82786320D01*
X147868777Y-82786320D01*
X147936314Y-82794373D01*
X148060609Y-82809194D01*
X148066744Y-82808722D01*
X148066746Y-82808722D01*
X148253226Y-82794373D01*
X148253231Y-82794372D01*
X148259367Y-82793900D01*
X148265297Y-82792244D01*
X148265299Y-82792244D01*
X148355368Y-82767096D01*
X148451370Y-82740292D01*
X148456870Y-82737514D01*
X148623802Y-82653191D01*
X148623804Y-82653190D01*
X148629303Y-82650412D01*
X148786390Y-82527682D01*
X148808962Y-82501532D01*
X148912618Y-82381446D01*
X148912619Y-82381444D01*
X148916647Y-82376778D01*
X149015112Y-82203448D01*
X149078035Y-82014294D01*
X149084105Y-81966247D01*
X149102578Y-81820023D01*
X149102579Y-81820013D01*
X149103020Y-81816520D01*
X149103418Y-81788000D01*
X149102020Y-81773739D01*
X149600682Y-81773739D01*
X149617362Y-81972386D01*
X149672310Y-82164009D01*
X149763430Y-82341311D01*
X149887253Y-82497537D01*
X150039063Y-82626737D01*
X150044441Y-82629743D01*
X150044443Y-82629744D01*
X150086397Y-82653191D01*
X150213076Y-82723989D01*
X150218935Y-82725893D01*
X150218938Y-82725894D01*
X150254701Y-82737514D01*
X150402665Y-82785591D01*
X150408775Y-82786320D01*
X150408777Y-82786320D01*
X150476314Y-82794373D01*
X150600609Y-82809194D01*
X150606744Y-82808722D01*
X150606746Y-82808722D01*
X150793226Y-82794373D01*
X150793231Y-82794372D01*
X150799367Y-82793900D01*
X150805297Y-82792244D01*
X150805299Y-82792244D01*
X150895368Y-82767096D01*
X150991370Y-82740292D01*
X150996870Y-82737514D01*
X151163802Y-82653191D01*
X151163804Y-82653190D01*
X151169303Y-82650412D01*
X151326390Y-82527682D01*
X151348962Y-82501532D01*
X151452618Y-82381446D01*
X151452619Y-82381444D01*
X151456647Y-82376778D01*
X151555112Y-82203448D01*
X151618035Y-82014294D01*
X151624105Y-81966247D01*
X151642578Y-81820023D01*
X151642579Y-81820013D01*
X151643020Y-81816520D01*
X151643418Y-81788000D01*
X151642020Y-81773739D01*
X154680682Y-81773739D01*
X154697362Y-81972386D01*
X154752310Y-82164009D01*
X154843430Y-82341311D01*
X154967253Y-82497537D01*
X155119063Y-82626737D01*
X155124441Y-82629743D01*
X155124443Y-82629744D01*
X155166397Y-82653191D01*
X155293076Y-82723989D01*
X155298935Y-82725893D01*
X155298938Y-82725894D01*
X155334701Y-82737514D01*
X155482665Y-82785591D01*
X155488775Y-82786320D01*
X155488777Y-82786320D01*
X155556314Y-82794373D01*
X155680609Y-82809194D01*
X155686744Y-82808722D01*
X155686746Y-82808722D01*
X155873226Y-82794373D01*
X155873231Y-82794372D01*
X155879367Y-82793900D01*
X155885297Y-82792244D01*
X155885299Y-82792244D01*
X155975368Y-82767096D01*
X156071370Y-82740292D01*
X156076870Y-82737514D01*
X156243802Y-82653191D01*
X156243804Y-82653190D01*
X156249303Y-82650412D01*
X156406390Y-82527682D01*
X156428962Y-82501532D01*
X156532618Y-82381446D01*
X156532619Y-82381444D01*
X156536647Y-82376778D01*
X156635112Y-82203448D01*
X156698035Y-82014294D01*
X156704105Y-81966247D01*
X156722578Y-81820023D01*
X156722579Y-81820013D01*
X156723020Y-81816520D01*
X156723418Y-81788000D01*
X156703965Y-81589606D01*
X156702184Y-81583707D01*
X156702183Y-81583702D01*
X156648129Y-81404667D01*
X156646348Y-81398768D01*
X156552761Y-81222756D01*
X156548871Y-81217986D01*
X156548868Y-81217982D01*
X156430663Y-81073049D01*
X156430660Y-81073046D01*
X156426768Y-81068274D01*
X156273170Y-80941206D01*
X156097815Y-80846392D01*
X155907385Y-80787444D01*
X155901260Y-80786800D01*
X155901259Y-80786800D01*
X155715260Y-80767251D01*
X155715258Y-80767251D01*
X155709131Y-80766607D01*
X155586252Y-80777790D01*
X155516746Y-80784115D01*
X155516745Y-80784115D01*
X155510605Y-80784674D01*
X155504691Y-80786415D01*
X155504689Y-80786415D01*
X155374539Y-80824721D01*
X155319370Y-80840958D01*
X155142709Y-80933314D01*
X155137909Y-80937174D01*
X155137908Y-80937174D01*
X155132893Y-80941206D01*
X154987351Y-81058225D01*
X154859214Y-81210933D01*
X154763179Y-81385621D01*
X154702902Y-81575635D01*
X154680682Y-81773739D01*
X151642020Y-81773739D01*
X151623965Y-81589606D01*
X151622184Y-81583707D01*
X151622183Y-81583702D01*
X151568129Y-81404667D01*
X151566348Y-81398768D01*
X151472761Y-81222756D01*
X151468871Y-81217986D01*
X151468868Y-81217982D01*
X151350663Y-81073049D01*
X151350660Y-81073046D01*
X151346768Y-81068274D01*
X151193170Y-80941206D01*
X151017815Y-80846392D01*
X150827385Y-80787444D01*
X150821260Y-80786800D01*
X150821259Y-80786800D01*
X150635260Y-80767251D01*
X150635258Y-80767251D01*
X150629131Y-80766607D01*
X150506252Y-80777790D01*
X150436746Y-80784115D01*
X150436745Y-80784115D01*
X150430605Y-80784674D01*
X150424691Y-80786415D01*
X150424689Y-80786415D01*
X150294539Y-80824721D01*
X150239370Y-80840958D01*
X150062709Y-80933314D01*
X150057909Y-80937174D01*
X150057908Y-80937174D01*
X150052893Y-80941206D01*
X149907351Y-81058225D01*
X149779214Y-81210933D01*
X149683179Y-81385621D01*
X149622902Y-81575635D01*
X149600682Y-81773739D01*
X149102020Y-81773739D01*
X149083965Y-81589606D01*
X149082184Y-81583707D01*
X149082183Y-81583702D01*
X149028129Y-81404667D01*
X149026348Y-81398768D01*
X148932761Y-81222756D01*
X148928871Y-81217986D01*
X148928868Y-81217982D01*
X148810663Y-81073049D01*
X148810660Y-81073046D01*
X148806768Y-81068274D01*
X148653170Y-80941206D01*
X148477815Y-80846392D01*
X148287385Y-80787444D01*
X148281260Y-80786800D01*
X148281259Y-80786800D01*
X148095260Y-80767251D01*
X148095258Y-80767251D01*
X148089131Y-80766607D01*
X147966252Y-80777790D01*
X147896746Y-80784115D01*
X147896745Y-80784115D01*
X147890605Y-80784674D01*
X147884691Y-80786415D01*
X147884689Y-80786415D01*
X147754539Y-80824721D01*
X147699370Y-80840958D01*
X147522709Y-80933314D01*
X147517909Y-80937174D01*
X147517908Y-80937174D01*
X147512893Y-80941206D01*
X147367351Y-81058225D01*
X147239214Y-81210933D01*
X147143179Y-81385621D01*
X147082902Y-81575635D01*
X147060682Y-81773739D01*
X146562020Y-81773739D01*
X146543965Y-81589606D01*
X146542184Y-81583707D01*
X146542183Y-81583702D01*
X146488129Y-81404667D01*
X146486348Y-81398768D01*
X146392761Y-81222756D01*
X146388871Y-81217986D01*
X146388868Y-81217982D01*
X146270663Y-81073049D01*
X146270660Y-81073046D01*
X146266768Y-81068274D01*
X146113170Y-80941206D01*
X145937815Y-80846392D01*
X145747385Y-80787444D01*
X145741260Y-80786800D01*
X145741259Y-80786800D01*
X145555260Y-80767251D01*
X145555258Y-80767251D01*
X145549131Y-80766607D01*
X145426252Y-80777790D01*
X145356746Y-80784115D01*
X145356745Y-80784115D01*
X145350605Y-80784674D01*
X145344691Y-80786415D01*
X145344689Y-80786415D01*
X145214539Y-80824721D01*
X145159370Y-80840958D01*
X144982709Y-80933314D01*
X144977909Y-80937174D01*
X144977908Y-80937174D01*
X144972893Y-80941206D01*
X144827351Y-81058225D01*
X144699214Y-81210933D01*
X144603179Y-81385621D01*
X144542902Y-81575635D01*
X144520682Y-81773739D01*
X144022020Y-81773739D01*
X144003965Y-81589606D01*
X144002184Y-81583707D01*
X144002183Y-81583702D01*
X143948129Y-81404667D01*
X143946348Y-81398768D01*
X143852761Y-81222756D01*
X143848871Y-81217986D01*
X143848868Y-81217982D01*
X143730663Y-81073049D01*
X143730660Y-81073046D01*
X143726768Y-81068274D01*
X143573170Y-80941206D01*
X143397815Y-80846392D01*
X143207385Y-80787444D01*
X143201260Y-80786800D01*
X143201259Y-80786800D01*
X143015260Y-80767251D01*
X143015258Y-80767251D01*
X143009131Y-80766607D01*
X142886252Y-80777790D01*
X142816746Y-80784115D01*
X142816745Y-80784115D01*
X142810605Y-80784674D01*
X142804691Y-80786415D01*
X142804689Y-80786415D01*
X142674539Y-80824721D01*
X142619370Y-80840958D01*
X142442709Y-80933314D01*
X142437909Y-80937174D01*
X142437908Y-80937174D01*
X142432893Y-80941206D01*
X142287351Y-81058225D01*
X142159214Y-81210933D01*
X142063179Y-81385621D01*
X142002902Y-81575635D01*
X141980682Y-81773739D01*
X141482020Y-81773739D01*
X141463965Y-81589606D01*
X141462184Y-81583707D01*
X141462183Y-81583702D01*
X141408129Y-81404667D01*
X141406348Y-81398768D01*
X141312761Y-81222756D01*
X141308871Y-81217986D01*
X141308868Y-81217982D01*
X141190663Y-81073049D01*
X141190660Y-81073046D01*
X141186768Y-81068274D01*
X141033170Y-80941206D01*
X140857815Y-80846392D01*
X140667385Y-80787444D01*
X140661260Y-80786800D01*
X140661259Y-80786800D01*
X140475260Y-80767251D01*
X140475258Y-80767251D01*
X140469131Y-80766607D01*
X140346252Y-80777790D01*
X140276746Y-80784115D01*
X140276745Y-80784115D01*
X140270605Y-80784674D01*
X140264691Y-80786415D01*
X140264689Y-80786415D01*
X140134539Y-80824721D01*
X140079370Y-80840958D01*
X139902709Y-80933314D01*
X139897909Y-80937174D01*
X139897908Y-80937174D01*
X139892893Y-80941206D01*
X139747351Y-81058225D01*
X139619214Y-81210933D01*
X139523179Y-81385621D01*
X139462902Y-81575635D01*
X139440682Y-81773739D01*
X138942020Y-81773739D01*
X138923965Y-81589606D01*
X138922184Y-81583707D01*
X138922183Y-81583702D01*
X138868129Y-81404667D01*
X138866348Y-81398768D01*
X138772761Y-81222756D01*
X138768871Y-81217986D01*
X138768868Y-81217982D01*
X138650663Y-81073049D01*
X138650660Y-81073046D01*
X138646768Y-81068274D01*
X138493170Y-80941206D01*
X138317815Y-80846392D01*
X138127385Y-80787444D01*
X138121260Y-80786800D01*
X138121259Y-80786800D01*
X137935260Y-80767251D01*
X137935258Y-80767251D01*
X137929131Y-80766607D01*
X137806252Y-80777790D01*
X137736746Y-80784115D01*
X137736745Y-80784115D01*
X137730605Y-80784674D01*
X137724691Y-80786415D01*
X137724689Y-80786415D01*
X137594539Y-80824721D01*
X137539370Y-80840958D01*
X137362709Y-80933314D01*
X137357909Y-80937174D01*
X137357908Y-80937174D01*
X137352893Y-80941206D01*
X137207351Y-81058225D01*
X137079214Y-81210933D01*
X136983179Y-81385621D01*
X136922902Y-81575635D01*
X136900682Y-81773739D01*
X136402020Y-81773739D01*
X136383965Y-81589606D01*
X136382184Y-81583707D01*
X136382183Y-81583702D01*
X136328129Y-81404667D01*
X136326348Y-81398768D01*
X136232761Y-81222756D01*
X136228871Y-81217986D01*
X136228868Y-81217982D01*
X136110663Y-81073049D01*
X136110660Y-81073046D01*
X136106768Y-81068274D01*
X135953170Y-80941206D01*
X135777815Y-80846392D01*
X135587385Y-80787444D01*
X135581260Y-80786800D01*
X135581259Y-80786800D01*
X135395260Y-80767251D01*
X135395258Y-80767251D01*
X135389131Y-80766607D01*
X135266252Y-80777790D01*
X135196746Y-80784115D01*
X135196745Y-80784115D01*
X135190605Y-80784674D01*
X135184691Y-80786415D01*
X135184689Y-80786415D01*
X135054539Y-80824721D01*
X134999370Y-80840958D01*
X134822709Y-80933314D01*
X134817909Y-80937174D01*
X134817908Y-80937174D01*
X134812893Y-80941206D01*
X134667351Y-81058225D01*
X134539214Y-81210933D01*
X134443179Y-81385621D01*
X134382902Y-81575635D01*
X134360682Y-81773739D01*
X133862020Y-81773739D01*
X133843965Y-81589606D01*
X133842184Y-81583707D01*
X133842183Y-81583702D01*
X133788129Y-81404667D01*
X133786348Y-81398768D01*
X133692761Y-81222756D01*
X133688871Y-81217986D01*
X133688868Y-81217982D01*
X133570663Y-81073049D01*
X133570660Y-81073046D01*
X133566768Y-81068274D01*
X133413170Y-80941206D01*
X133237815Y-80846392D01*
X133047385Y-80787444D01*
X133041260Y-80786800D01*
X133041259Y-80786800D01*
X132855260Y-80767251D01*
X132855258Y-80767251D01*
X132849131Y-80766607D01*
X132726252Y-80777790D01*
X132656746Y-80784115D01*
X132656745Y-80784115D01*
X132650605Y-80784674D01*
X132644691Y-80786415D01*
X132644689Y-80786415D01*
X132514539Y-80824721D01*
X132459370Y-80840958D01*
X132282709Y-80933314D01*
X132277909Y-80937174D01*
X132277908Y-80937174D01*
X132272893Y-80941206D01*
X132127351Y-81058225D01*
X131999214Y-81210933D01*
X131903179Y-81385621D01*
X131842902Y-81575635D01*
X131820682Y-81773739D01*
X131322020Y-81773739D01*
X131303965Y-81589606D01*
X131302184Y-81583707D01*
X131302183Y-81583702D01*
X131248129Y-81404667D01*
X131246348Y-81398768D01*
X131152761Y-81222756D01*
X131148871Y-81217986D01*
X131148868Y-81217982D01*
X131030663Y-81073049D01*
X131030660Y-81073046D01*
X131026768Y-81068274D01*
X130873170Y-80941206D01*
X130697815Y-80846392D01*
X130507385Y-80787444D01*
X130501260Y-80786800D01*
X130501259Y-80786800D01*
X130315260Y-80767251D01*
X130315258Y-80767251D01*
X130309131Y-80766607D01*
X130186252Y-80777790D01*
X130116746Y-80784115D01*
X130116745Y-80784115D01*
X130110605Y-80784674D01*
X130104691Y-80786415D01*
X130104689Y-80786415D01*
X129974539Y-80824721D01*
X129919370Y-80840958D01*
X129742709Y-80933314D01*
X129737909Y-80937174D01*
X129737908Y-80937174D01*
X129732893Y-80941206D01*
X129587351Y-81058225D01*
X129459214Y-81210933D01*
X129363179Y-81385621D01*
X129302902Y-81575635D01*
X129280682Y-81773739D01*
X128782020Y-81773739D01*
X128763965Y-81589606D01*
X128762184Y-81583707D01*
X128762183Y-81583702D01*
X128708129Y-81404667D01*
X128706348Y-81398768D01*
X128612761Y-81222756D01*
X128608871Y-81217986D01*
X128608868Y-81217982D01*
X128490663Y-81073049D01*
X128490660Y-81073046D01*
X128486768Y-81068274D01*
X128333170Y-80941206D01*
X128157815Y-80846392D01*
X127967385Y-80787444D01*
X127961260Y-80786800D01*
X127961259Y-80786800D01*
X127775260Y-80767251D01*
X127775258Y-80767251D01*
X127769131Y-80766607D01*
X127646252Y-80777790D01*
X127576746Y-80784115D01*
X127576745Y-80784115D01*
X127570605Y-80784674D01*
X127564691Y-80786415D01*
X127564689Y-80786415D01*
X127434539Y-80824721D01*
X127379370Y-80840958D01*
X127202709Y-80933314D01*
X127197909Y-80937174D01*
X127197908Y-80937174D01*
X127192893Y-80941206D01*
X127047351Y-81058225D01*
X126919214Y-81210933D01*
X126823179Y-81385621D01*
X126762902Y-81575635D01*
X126740682Y-81773739D01*
X126242020Y-81773739D01*
X126223965Y-81589606D01*
X126222184Y-81583707D01*
X126222183Y-81583702D01*
X126168129Y-81404667D01*
X126166348Y-81398768D01*
X126072761Y-81222756D01*
X126068871Y-81217986D01*
X126068868Y-81217982D01*
X125950663Y-81073049D01*
X125950660Y-81073046D01*
X125946768Y-81068274D01*
X125793170Y-80941206D01*
X125617815Y-80846392D01*
X125427385Y-80787444D01*
X125421260Y-80786800D01*
X125421259Y-80786800D01*
X125235260Y-80767251D01*
X125235258Y-80767251D01*
X125229131Y-80766607D01*
X125106252Y-80777790D01*
X125036746Y-80784115D01*
X125036745Y-80784115D01*
X125030605Y-80784674D01*
X125024691Y-80786415D01*
X125024689Y-80786415D01*
X124894539Y-80824721D01*
X124839370Y-80840958D01*
X124662709Y-80933314D01*
X124657909Y-80937174D01*
X124657908Y-80937174D01*
X124652893Y-80941206D01*
X124507351Y-81058225D01*
X124379214Y-81210933D01*
X124283179Y-81385621D01*
X124222902Y-81575635D01*
X124200682Y-81773739D01*
X123702020Y-81773739D01*
X123683965Y-81589606D01*
X123682184Y-81583707D01*
X123682183Y-81583702D01*
X123628129Y-81404667D01*
X123626348Y-81398768D01*
X123532761Y-81222756D01*
X123528871Y-81217986D01*
X123528868Y-81217982D01*
X123410663Y-81073049D01*
X123410660Y-81073046D01*
X123406768Y-81068274D01*
X123253170Y-80941206D01*
X123077815Y-80846392D01*
X122887385Y-80787444D01*
X122881260Y-80786800D01*
X122881259Y-80786800D01*
X122695260Y-80767251D01*
X122695258Y-80767251D01*
X122689131Y-80766607D01*
X122566252Y-80777790D01*
X122496746Y-80784115D01*
X122496745Y-80784115D01*
X122490605Y-80784674D01*
X122484691Y-80786415D01*
X122484689Y-80786415D01*
X122354539Y-80824721D01*
X122299370Y-80840958D01*
X122122709Y-80933314D01*
X122117909Y-80937174D01*
X122117908Y-80937174D01*
X122112893Y-80941206D01*
X121967351Y-81058225D01*
X121839214Y-81210933D01*
X121743179Y-81385621D01*
X121682902Y-81575635D01*
X121660682Y-81773739D01*
X103759500Y-81773739D01*
X103759500Y-71829733D01*
X109572300Y-71829733D01*
X109572301Y-74479866D01*
X109587066Y-74554101D01*
X109643316Y-74638284D01*
X109727499Y-74694534D01*
X109801733Y-74709300D01*
X111126585Y-74709300D01*
X112451866Y-74709299D01*
X112487618Y-74702188D01*
X112513926Y-74696956D01*
X112513928Y-74696955D01*
X112526101Y-74694534D01*
X112536421Y-74687639D01*
X112536422Y-74687638D01*
X112599968Y-74645177D01*
X112610284Y-74638284D01*
X112666534Y-74554101D01*
X112681300Y-74479867D01*
X112681299Y-71829734D01*
X112666534Y-71755499D01*
X112610284Y-71671316D01*
X112526101Y-71615066D01*
X112451867Y-71600300D01*
X111127015Y-71600300D01*
X109801734Y-71600301D01*
X109765982Y-71607412D01*
X109739674Y-71612644D01*
X109739672Y-71612645D01*
X109727499Y-71615066D01*
X109717179Y-71621961D01*
X109717178Y-71621962D01*
X109656785Y-71662316D01*
X109643316Y-71671316D01*
X109587066Y-71755499D01*
X109572300Y-71829733D01*
X103759500Y-71829733D01*
X103759500Y-66533739D01*
X121660682Y-66533739D01*
X121677362Y-66732386D01*
X121732310Y-66924009D01*
X121823430Y-67101311D01*
X121947253Y-67257537D01*
X122099063Y-67386737D01*
X122104441Y-67389743D01*
X122104443Y-67389744D01*
X122146397Y-67413191D01*
X122273076Y-67483989D01*
X122278935Y-67485893D01*
X122278938Y-67485894D01*
X122314701Y-67497514D01*
X122462665Y-67545591D01*
X122468775Y-67546320D01*
X122468777Y-67546320D01*
X122536314Y-67554373D01*
X122660609Y-67569194D01*
X122666744Y-67568722D01*
X122666746Y-67568722D01*
X122853226Y-67554373D01*
X122853231Y-67554372D01*
X122859367Y-67553900D01*
X122865297Y-67552244D01*
X122865299Y-67552244D01*
X122955368Y-67527096D01*
X123051370Y-67500292D01*
X123056870Y-67497514D01*
X123223802Y-67413191D01*
X123223804Y-67413190D01*
X123229303Y-67410412D01*
X123386390Y-67287682D01*
X123408962Y-67261532D01*
X123512618Y-67141446D01*
X123512619Y-67141444D01*
X123516647Y-67136778D01*
X123615112Y-66963448D01*
X123678035Y-66774294D01*
X123684105Y-66726247D01*
X123702578Y-66580023D01*
X123702579Y-66580013D01*
X123703020Y-66576520D01*
X123703418Y-66548000D01*
X123702020Y-66533739D01*
X124200682Y-66533739D01*
X124217362Y-66732386D01*
X124272310Y-66924009D01*
X124363430Y-67101311D01*
X124487253Y-67257537D01*
X124639063Y-67386737D01*
X124644441Y-67389743D01*
X124644443Y-67389744D01*
X124686397Y-67413191D01*
X124813076Y-67483989D01*
X124818935Y-67485893D01*
X124818938Y-67485894D01*
X124854701Y-67497514D01*
X125002665Y-67545591D01*
X125008775Y-67546320D01*
X125008777Y-67546320D01*
X125076314Y-67554373D01*
X125200609Y-67569194D01*
X125206744Y-67568722D01*
X125206746Y-67568722D01*
X125393226Y-67554373D01*
X125393231Y-67554372D01*
X125399367Y-67553900D01*
X125405297Y-67552244D01*
X125405299Y-67552244D01*
X125495368Y-67527096D01*
X125591370Y-67500292D01*
X125596870Y-67497514D01*
X125763802Y-67413191D01*
X125763804Y-67413190D01*
X125769303Y-67410412D01*
X125926390Y-67287682D01*
X125948962Y-67261532D01*
X126052618Y-67141446D01*
X126052619Y-67141444D01*
X126056647Y-67136778D01*
X126155112Y-66963448D01*
X126218035Y-66774294D01*
X126224105Y-66726247D01*
X126242578Y-66580023D01*
X126242579Y-66580013D01*
X126243020Y-66576520D01*
X126243418Y-66548000D01*
X126242020Y-66533739D01*
X126740682Y-66533739D01*
X126757362Y-66732386D01*
X126812310Y-66924009D01*
X126903430Y-67101311D01*
X127027253Y-67257537D01*
X127179063Y-67386737D01*
X127184441Y-67389743D01*
X127184443Y-67389744D01*
X127226397Y-67413191D01*
X127353076Y-67483989D01*
X127358935Y-67485893D01*
X127358938Y-67485894D01*
X127394701Y-67497514D01*
X127542665Y-67545591D01*
X127548775Y-67546320D01*
X127548777Y-67546320D01*
X127616314Y-67554373D01*
X127740609Y-67569194D01*
X127746744Y-67568722D01*
X127746746Y-67568722D01*
X127933226Y-67554373D01*
X127933231Y-67554372D01*
X127939367Y-67553900D01*
X127945297Y-67552244D01*
X127945299Y-67552244D01*
X128035368Y-67527096D01*
X128131370Y-67500292D01*
X128136870Y-67497514D01*
X128303802Y-67413191D01*
X128303804Y-67413190D01*
X128309303Y-67410412D01*
X128466390Y-67287682D01*
X128488962Y-67261532D01*
X128592618Y-67141446D01*
X128592619Y-67141444D01*
X128596647Y-67136778D01*
X128695112Y-66963448D01*
X128758035Y-66774294D01*
X128764105Y-66726247D01*
X128782578Y-66580023D01*
X128782579Y-66580013D01*
X128783020Y-66576520D01*
X128783418Y-66548000D01*
X128782020Y-66533739D01*
X129280682Y-66533739D01*
X129297362Y-66732386D01*
X129352310Y-66924009D01*
X129443430Y-67101311D01*
X129567253Y-67257537D01*
X129719063Y-67386737D01*
X129724441Y-67389743D01*
X129724443Y-67389744D01*
X129766397Y-67413191D01*
X129893076Y-67483989D01*
X129898935Y-67485893D01*
X129898938Y-67485894D01*
X129934701Y-67497514D01*
X130082665Y-67545591D01*
X130088775Y-67546320D01*
X130088777Y-67546320D01*
X130156314Y-67554373D01*
X130280609Y-67569194D01*
X130286744Y-67568722D01*
X130286746Y-67568722D01*
X130473226Y-67554373D01*
X130473231Y-67554372D01*
X130479367Y-67553900D01*
X130485297Y-67552244D01*
X130485299Y-67552244D01*
X130575368Y-67527096D01*
X130671370Y-67500292D01*
X130676870Y-67497514D01*
X130843802Y-67413191D01*
X130843804Y-67413190D01*
X130849303Y-67410412D01*
X131006390Y-67287682D01*
X131028962Y-67261532D01*
X131132618Y-67141446D01*
X131132619Y-67141444D01*
X131136647Y-67136778D01*
X131235112Y-66963448D01*
X131298035Y-66774294D01*
X131304105Y-66726247D01*
X131322578Y-66580023D01*
X131322579Y-66580013D01*
X131323020Y-66576520D01*
X131323418Y-66548000D01*
X131322020Y-66533739D01*
X131820682Y-66533739D01*
X131837362Y-66732386D01*
X131892310Y-66924009D01*
X131983430Y-67101311D01*
X132107253Y-67257537D01*
X132259063Y-67386737D01*
X132264441Y-67389743D01*
X132264443Y-67389744D01*
X132306397Y-67413191D01*
X132433076Y-67483989D01*
X132438935Y-67485893D01*
X132438938Y-67485894D01*
X132474701Y-67497514D01*
X132622665Y-67545591D01*
X132628775Y-67546320D01*
X132628777Y-67546320D01*
X132696314Y-67554373D01*
X132820609Y-67569194D01*
X132826744Y-67568722D01*
X132826746Y-67568722D01*
X133013226Y-67554373D01*
X133013231Y-67554372D01*
X133019367Y-67553900D01*
X133025297Y-67552244D01*
X133025299Y-67552244D01*
X133115368Y-67527096D01*
X133211370Y-67500292D01*
X133216870Y-67497514D01*
X133383802Y-67413191D01*
X133383804Y-67413190D01*
X133389303Y-67410412D01*
X133546390Y-67287682D01*
X133568962Y-67261532D01*
X133672618Y-67141446D01*
X133672619Y-67141444D01*
X133676647Y-67136778D01*
X133775112Y-66963448D01*
X133838035Y-66774294D01*
X133844105Y-66726247D01*
X133862578Y-66580023D01*
X133862579Y-66580013D01*
X133863020Y-66576520D01*
X133863418Y-66548000D01*
X133862020Y-66533739D01*
X134360682Y-66533739D01*
X134377362Y-66732386D01*
X134432310Y-66924009D01*
X134523430Y-67101311D01*
X134647253Y-67257537D01*
X134799063Y-67386737D01*
X134804441Y-67389743D01*
X134804443Y-67389744D01*
X134846397Y-67413191D01*
X134973076Y-67483989D01*
X134978935Y-67485893D01*
X134978938Y-67485894D01*
X135014701Y-67497514D01*
X135162665Y-67545591D01*
X135168775Y-67546320D01*
X135168777Y-67546320D01*
X135236314Y-67554373D01*
X135360609Y-67569194D01*
X135366744Y-67568722D01*
X135366746Y-67568722D01*
X135553226Y-67554373D01*
X135553231Y-67554372D01*
X135559367Y-67553900D01*
X135565297Y-67552244D01*
X135565299Y-67552244D01*
X135655368Y-67527096D01*
X135751370Y-67500292D01*
X135756870Y-67497514D01*
X135923802Y-67413191D01*
X135923804Y-67413190D01*
X135929303Y-67410412D01*
X136086390Y-67287682D01*
X136108962Y-67261532D01*
X136212618Y-67141446D01*
X136212619Y-67141444D01*
X136216647Y-67136778D01*
X136315112Y-66963448D01*
X136378035Y-66774294D01*
X136384105Y-66726247D01*
X136402578Y-66580023D01*
X136402579Y-66580013D01*
X136403020Y-66576520D01*
X136403418Y-66548000D01*
X136402020Y-66533739D01*
X136900682Y-66533739D01*
X136917362Y-66732386D01*
X136972310Y-66924009D01*
X137063430Y-67101311D01*
X137187253Y-67257537D01*
X137339063Y-67386737D01*
X137344441Y-67389743D01*
X137344443Y-67389744D01*
X137386397Y-67413191D01*
X137513076Y-67483989D01*
X137518935Y-67485893D01*
X137518938Y-67485894D01*
X137554701Y-67497514D01*
X137702665Y-67545591D01*
X137708775Y-67546320D01*
X137708777Y-67546320D01*
X137776314Y-67554373D01*
X137900609Y-67569194D01*
X137906744Y-67568722D01*
X137906746Y-67568722D01*
X138093226Y-67554373D01*
X138093231Y-67554372D01*
X138099367Y-67553900D01*
X138105297Y-67552244D01*
X138105299Y-67552244D01*
X138195368Y-67527096D01*
X138291370Y-67500292D01*
X138296870Y-67497514D01*
X138463802Y-67413191D01*
X138463804Y-67413190D01*
X138469303Y-67410412D01*
X138626390Y-67287682D01*
X138648962Y-67261532D01*
X138752618Y-67141446D01*
X138752619Y-67141444D01*
X138756647Y-67136778D01*
X138855112Y-66963448D01*
X138918035Y-66774294D01*
X138924105Y-66726247D01*
X138942578Y-66580023D01*
X138942579Y-66580013D01*
X138943020Y-66576520D01*
X138943418Y-66548000D01*
X138942020Y-66533739D01*
X139440682Y-66533739D01*
X139457362Y-66732386D01*
X139512310Y-66924009D01*
X139603430Y-67101311D01*
X139727253Y-67257537D01*
X139879063Y-67386737D01*
X139884441Y-67389743D01*
X139884443Y-67389744D01*
X139926397Y-67413191D01*
X140053076Y-67483989D01*
X140058935Y-67485893D01*
X140058938Y-67485894D01*
X140094701Y-67497514D01*
X140242665Y-67545591D01*
X140248775Y-67546320D01*
X140248777Y-67546320D01*
X140316314Y-67554373D01*
X140440609Y-67569194D01*
X140446744Y-67568722D01*
X140446746Y-67568722D01*
X140633226Y-67554373D01*
X140633231Y-67554372D01*
X140639367Y-67553900D01*
X140645297Y-67552244D01*
X140645299Y-67552244D01*
X140735368Y-67527096D01*
X140831370Y-67500292D01*
X140836870Y-67497514D01*
X141003802Y-67413191D01*
X141003804Y-67413190D01*
X141009303Y-67410412D01*
X141166390Y-67287682D01*
X141188962Y-67261532D01*
X141292618Y-67141446D01*
X141292619Y-67141444D01*
X141296647Y-67136778D01*
X141395112Y-66963448D01*
X141458035Y-66774294D01*
X141464105Y-66726247D01*
X141482578Y-66580023D01*
X141482579Y-66580013D01*
X141483020Y-66576520D01*
X141483418Y-66548000D01*
X141482020Y-66533739D01*
X141980682Y-66533739D01*
X141997362Y-66732386D01*
X142052310Y-66924009D01*
X142143430Y-67101311D01*
X142267253Y-67257537D01*
X142419063Y-67386737D01*
X142424441Y-67389743D01*
X142424443Y-67389744D01*
X142466397Y-67413191D01*
X142593076Y-67483989D01*
X142598935Y-67485893D01*
X142598938Y-67485894D01*
X142634701Y-67497514D01*
X142782665Y-67545591D01*
X142788775Y-67546320D01*
X142788777Y-67546320D01*
X142856314Y-67554373D01*
X142980609Y-67569194D01*
X142986744Y-67568722D01*
X142986746Y-67568722D01*
X143173226Y-67554373D01*
X143173231Y-67554372D01*
X143179367Y-67553900D01*
X143185297Y-67552244D01*
X143185299Y-67552244D01*
X143275368Y-67527096D01*
X143371370Y-67500292D01*
X143376870Y-67497514D01*
X143543802Y-67413191D01*
X143543804Y-67413190D01*
X143549303Y-67410412D01*
X143706390Y-67287682D01*
X143728962Y-67261532D01*
X143832618Y-67141446D01*
X143832619Y-67141444D01*
X143836647Y-67136778D01*
X143935112Y-66963448D01*
X143998035Y-66774294D01*
X144004105Y-66726247D01*
X144022578Y-66580023D01*
X144022579Y-66580013D01*
X144023020Y-66576520D01*
X144023418Y-66548000D01*
X144022020Y-66533739D01*
X144520682Y-66533739D01*
X144537362Y-66732386D01*
X144592310Y-66924009D01*
X144683430Y-67101311D01*
X144807253Y-67257537D01*
X144959063Y-67386737D01*
X144964441Y-67389743D01*
X144964443Y-67389744D01*
X145006397Y-67413191D01*
X145133076Y-67483989D01*
X145138935Y-67485893D01*
X145138938Y-67485894D01*
X145174701Y-67497514D01*
X145322665Y-67545591D01*
X145328775Y-67546320D01*
X145328777Y-67546320D01*
X145396314Y-67554373D01*
X145520609Y-67569194D01*
X145526744Y-67568722D01*
X145526746Y-67568722D01*
X145713226Y-67554373D01*
X145713231Y-67554372D01*
X145719367Y-67553900D01*
X145725297Y-67552244D01*
X145725299Y-67552244D01*
X145815368Y-67527096D01*
X145911370Y-67500292D01*
X145916870Y-67497514D01*
X146083802Y-67413191D01*
X146083804Y-67413190D01*
X146089303Y-67410412D01*
X146246390Y-67287682D01*
X146268962Y-67261532D01*
X146372618Y-67141446D01*
X146372619Y-67141444D01*
X146376647Y-67136778D01*
X146475112Y-66963448D01*
X146538035Y-66774294D01*
X146544105Y-66726247D01*
X146562578Y-66580023D01*
X146562579Y-66580013D01*
X146563020Y-66576520D01*
X146563418Y-66548000D01*
X146562020Y-66533739D01*
X147060682Y-66533739D01*
X147077362Y-66732386D01*
X147132310Y-66924009D01*
X147223430Y-67101311D01*
X147347253Y-67257537D01*
X147499063Y-67386737D01*
X147504441Y-67389743D01*
X147504443Y-67389744D01*
X147546397Y-67413191D01*
X147673076Y-67483989D01*
X147678935Y-67485893D01*
X147678938Y-67485894D01*
X147714701Y-67497514D01*
X147862665Y-67545591D01*
X147868775Y-67546320D01*
X147868777Y-67546320D01*
X147936314Y-67554373D01*
X148060609Y-67569194D01*
X148066744Y-67568722D01*
X148066746Y-67568722D01*
X148253226Y-67554373D01*
X148253231Y-67554372D01*
X148259367Y-67553900D01*
X148265297Y-67552244D01*
X148265299Y-67552244D01*
X148355368Y-67527096D01*
X148451370Y-67500292D01*
X148456870Y-67497514D01*
X148623802Y-67413191D01*
X148623804Y-67413190D01*
X148629303Y-67410412D01*
X148786390Y-67287682D01*
X148808962Y-67261532D01*
X148912618Y-67141446D01*
X148912619Y-67141444D01*
X148916647Y-67136778D01*
X149015112Y-66963448D01*
X149078035Y-66774294D01*
X149084105Y-66726247D01*
X149102578Y-66580023D01*
X149102579Y-66580013D01*
X149103020Y-66576520D01*
X149103418Y-66548000D01*
X149102020Y-66533739D01*
X149600682Y-66533739D01*
X149617362Y-66732386D01*
X149672310Y-66924009D01*
X149763430Y-67101311D01*
X149887253Y-67257537D01*
X150039063Y-67386737D01*
X150044441Y-67389743D01*
X150044443Y-67389744D01*
X150086397Y-67413191D01*
X150213076Y-67483989D01*
X150218935Y-67485893D01*
X150218938Y-67485894D01*
X150254701Y-67497514D01*
X150402665Y-67545591D01*
X150408775Y-67546320D01*
X150408777Y-67546320D01*
X150476314Y-67554373D01*
X150600609Y-67569194D01*
X150606744Y-67568722D01*
X150606746Y-67568722D01*
X150793226Y-67554373D01*
X150793231Y-67554372D01*
X150799367Y-67553900D01*
X150805297Y-67552244D01*
X150805299Y-67552244D01*
X150895368Y-67527096D01*
X150991370Y-67500292D01*
X150996870Y-67497514D01*
X151163802Y-67413191D01*
X151163804Y-67413190D01*
X151169303Y-67410412D01*
X151326390Y-67287682D01*
X151348962Y-67261532D01*
X151452618Y-67141446D01*
X151452619Y-67141444D01*
X151456647Y-67136778D01*
X151555112Y-66963448D01*
X151618035Y-66774294D01*
X151624105Y-66726247D01*
X151642578Y-66580023D01*
X151642579Y-66580013D01*
X151643020Y-66576520D01*
X151643418Y-66548000D01*
X151642020Y-66533739D01*
X152140682Y-66533739D01*
X152157362Y-66732386D01*
X152212310Y-66924009D01*
X152303430Y-67101311D01*
X152427253Y-67257537D01*
X152579063Y-67386737D01*
X152584441Y-67389743D01*
X152584443Y-67389744D01*
X152626397Y-67413191D01*
X152753076Y-67483989D01*
X152758935Y-67485893D01*
X152758938Y-67485894D01*
X152794701Y-67497514D01*
X152942665Y-67545591D01*
X152948775Y-67546320D01*
X152948777Y-67546320D01*
X153016314Y-67554373D01*
X153140609Y-67569194D01*
X153146744Y-67568722D01*
X153146746Y-67568722D01*
X153333226Y-67554373D01*
X153333231Y-67554372D01*
X153339367Y-67553900D01*
X153345297Y-67552244D01*
X153345299Y-67552244D01*
X153435368Y-67527096D01*
X153531370Y-67500292D01*
X153536870Y-67497514D01*
X153703802Y-67413191D01*
X153703804Y-67413190D01*
X153709303Y-67410412D01*
X153866390Y-67287682D01*
X153888962Y-67261532D01*
X153992618Y-67141446D01*
X153992619Y-67141444D01*
X153996647Y-67136778D01*
X154095112Y-66963448D01*
X154158035Y-66774294D01*
X154164105Y-66726247D01*
X154182578Y-66580023D01*
X154182579Y-66580013D01*
X154183020Y-66576520D01*
X154183418Y-66548000D01*
X154182020Y-66533739D01*
X154680682Y-66533739D01*
X154697362Y-66732386D01*
X154752310Y-66924009D01*
X154843430Y-67101311D01*
X154967253Y-67257537D01*
X155119063Y-67386737D01*
X155124441Y-67389743D01*
X155124443Y-67389744D01*
X155166397Y-67413191D01*
X155293076Y-67483989D01*
X155298935Y-67485893D01*
X155298938Y-67485894D01*
X155334701Y-67497514D01*
X155482665Y-67545591D01*
X155488775Y-67546320D01*
X155488777Y-67546320D01*
X155556314Y-67554373D01*
X155680609Y-67569194D01*
X155686744Y-67568722D01*
X155686746Y-67568722D01*
X155873226Y-67554373D01*
X155873231Y-67554372D01*
X155879367Y-67553900D01*
X155885297Y-67552244D01*
X155885299Y-67552244D01*
X155975368Y-67527096D01*
X156071370Y-67500292D01*
X156076870Y-67497514D01*
X156243802Y-67413191D01*
X156243804Y-67413190D01*
X156249303Y-67410412D01*
X156406390Y-67287682D01*
X156428962Y-67261532D01*
X156532618Y-67141446D01*
X156532619Y-67141444D01*
X156536647Y-67136778D01*
X156635112Y-66963448D01*
X156698035Y-66774294D01*
X156704105Y-66726247D01*
X156722578Y-66580023D01*
X156722579Y-66580013D01*
X156723020Y-66576520D01*
X156723418Y-66548000D01*
X156703965Y-66349606D01*
X156702184Y-66343707D01*
X156702183Y-66343702D01*
X156648129Y-66164667D01*
X156646348Y-66158768D01*
X156552761Y-65982756D01*
X156548871Y-65977986D01*
X156548868Y-65977982D01*
X156430663Y-65833049D01*
X156430660Y-65833046D01*
X156426768Y-65828274D01*
X156273170Y-65701206D01*
X156097815Y-65606392D01*
X155907385Y-65547444D01*
X155901260Y-65546800D01*
X155901259Y-65546800D01*
X155715260Y-65527251D01*
X155715258Y-65527251D01*
X155709131Y-65526607D01*
X155586252Y-65537790D01*
X155516746Y-65544115D01*
X155516745Y-65544115D01*
X155510605Y-65544674D01*
X155504691Y-65546415D01*
X155504689Y-65546415D01*
X155374539Y-65584721D01*
X155319370Y-65600958D01*
X155142709Y-65693314D01*
X155137909Y-65697174D01*
X155137908Y-65697174D01*
X155132893Y-65701206D01*
X154987351Y-65818225D01*
X154859214Y-65970933D01*
X154763179Y-66145621D01*
X154702902Y-66335635D01*
X154680682Y-66533739D01*
X154182020Y-66533739D01*
X154163965Y-66349606D01*
X154162184Y-66343707D01*
X154162183Y-66343702D01*
X154108129Y-66164667D01*
X154106348Y-66158768D01*
X154012761Y-65982756D01*
X154008871Y-65977986D01*
X154008868Y-65977982D01*
X153890663Y-65833049D01*
X153890660Y-65833046D01*
X153886768Y-65828274D01*
X153733170Y-65701206D01*
X153557815Y-65606392D01*
X153367385Y-65547444D01*
X153361260Y-65546800D01*
X153361259Y-65546800D01*
X153175260Y-65527251D01*
X153175258Y-65527251D01*
X153169131Y-65526607D01*
X153046252Y-65537790D01*
X152976746Y-65544115D01*
X152976745Y-65544115D01*
X152970605Y-65544674D01*
X152964691Y-65546415D01*
X152964689Y-65546415D01*
X152834539Y-65584721D01*
X152779370Y-65600958D01*
X152602709Y-65693314D01*
X152597909Y-65697174D01*
X152597908Y-65697174D01*
X152592893Y-65701206D01*
X152447351Y-65818225D01*
X152319214Y-65970933D01*
X152223179Y-66145621D01*
X152162902Y-66335635D01*
X152140682Y-66533739D01*
X151642020Y-66533739D01*
X151623965Y-66349606D01*
X151622184Y-66343707D01*
X151622183Y-66343702D01*
X151568129Y-66164667D01*
X151566348Y-66158768D01*
X151472761Y-65982756D01*
X151468871Y-65977986D01*
X151468868Y-65977982D01*
X151350663Y-65833049D01*
X151350660Y-65833046D01*
X151346768Y-65828274D01*
X151193170Y-65701206D01*
X151017815Y-65606392D01*
X150827385Y-65547444D01*
X150821260Y-65546800D01*
X150821259Y-65546800D01*
X150635260Y-65527251D01*
X150635258Y-65527251D01*
X150629131Y-65526607D01*
X150506252Y-65537790D01*
X150436746Y-65544115D01*
X150436745Y-65544115D01*
X150430605Y-65544674D01*
X150424691Y-65546415D01*
X150424689Y-65546415D01*
X150294539Y-65584721D01*
X150239370Y-65600958D01*
X150062709Y-65693314D01*
X150057909Y-65697174D01*
X150057908Y-65697174D01*
X150052893Y-65701206D01*
X149907351Y-65818225D01*
X149779214Y-65970933D01*
X149683179Y-66145621D01*
X149622902Y-66335635D01*
X149600682Y-66533739D01*
X149102020Y-66533739D01*
X149083965Y-66349606D01*
X149082184Y-66343707D01*
X149082183Y-66343702D01*
X149028129Y-66164667D01*
X149026348Y-66158768D01*
X148932761Y-65982756D01*
X148928871Y-65977986D01*
X148928868Y-65977982D01*
X148810663Y-65833049D01*
X148810660Y-65833046D01*
X148806768Y-65828274D01*
X148653170Y-65701206D01*
X148477815Y-65606392D01*
X148287385Y-65547444D01*
X148281260Y-65546800D01*
X148281259Y-65546800D01*
X148095260Y-65527251D01*
X148095258Y-65527251D01*
X148089131Y-65526607D01*
X147966252Y-65537790D01*
X147896746Y-65544115D01*
X147896745Y-65544115D01*
X147890605Y-65544674D01*
X147884691Y-65546415D01*
X147884689Y-65546415D01*
X147754539Y-65584721D01*
X147699370Y-65600958D01*
X147522709Y-65693314D01*
X147517909Y-65697174D01*
X147517908Y-65697174D01*
X147512893Y-65701206D01*
X147367351Y-65818225D01*
X147239214Y-65970933D01*
X147143179Y-66145621D01*
X147082902Y-66335635D01*
X147060682Y-66533739D01*
X146562020Y-66533739D01*
X146543965Y-66349606D01*
X146542184Y-66343707D01*
X146542183Y-66343702D01*
X146488129Y-66164667D01*
X146486348Y-66158768D01*
X146392761Y-65982756D01*
X146388871Y-65977986D01*
X146388868Y-65977982D01*
X146270663Y-65833049D01*
X146270660Y-65833046D01*
X146266768Y-65828274D01*
X146113170Y-65701206D01*
X145937815Y-65606392D01*
X145747385Y-65547444D01*
X145741260Y-65546800D01*
X145741259Y-65546800D01*
X145555260Y-65527251D01*
X145555258Y-65527251D01*
X145549131Y-65526607D01*
X145426252Y-65537790D01*
X145356746Y-65544115D01*
X145356745Y-65544115D01*
X145350605Y-65544674D01*
X145344691Y-65546415D01*
X145344689Y-65546415D01*
X145214539Y-65584721D01*
X145159370Y-65600958D01*
X144982709Y-65693314D01*
X144977909Y-65697174D01*
X144977908Y-65697174D01*
X144972893Y-65701206D01*
X144827351Y-65818225D01*
X144699214Y-65970933D01*
X144603179Y-66145621D01*
X144542902Y-66335635D01*
X144520682Y-66533739D01*
X144022020Y-66533739D01*
X144003965Y-66349606D01*
X144002184Y-66343707D01*
X144002183Y-66343702D01*
X143948129Y-66164667D01*
X143946348Y-66158768D01*
X143852761Y-65982756D01*
X143848871Y-65977986D01*
X143848868Y-65977982D01*
X143730663Y-65833049D01*
X143730660Y-65833046D01*
X143726768Y-65828274D01*
X143573170Y-65701206D01*
X143397815Y-65606392D01*
X143207385Y-65547444D01*
X143201260Y-65546800D01*
X143201259Y-65546800D01*
X143015260Y-65527251D01*
X143015258Y-65527251D01*
X143009131Y-65526607D01*
X142886252Y-65537790D01*
X142816746Y-65544115D01*
X142816745Y-65544115D01*
X142810605Y-65544674D01*
X142804691Y-65546415D01*
X142804689Y-65546415D01*
X142674539Y-65584721D01*
X142619370Y-65600958D01*
X142442709Y-65693314D01*
X142437909Y-65697174D01*
X142437908Y-65697174D01*
X142432893Y-65701206D01*
X142287351Y-65818225D01*
X142159214Y-65970933D01*
X142063179Y-66145621D01*
X142002902Y-66335635D01*
X141980682Y-66533739D01*
X141482020Y-66533739D01*
X141463965Y-66349606D01*
X141462184Y-66343707D01*
X141462183Y-66343702D01*
X141408129Y-66164667D01*
X141406348Y-66158768D01*
X141312761Y-65982756D01*
X141308871Y-65977986D01*
X141308868Y-65977982D01*
X141190663Y-65833049D01*
X141190660Y-65833046D01*
X141186768Y-65828274D01*
X141033170Y-65701206D01*
X140857815Y-65606392D01*
X140667385Y-65547444D01*
X140661260Y-65546800D01*
X140661259Y-65546800D01*
X140475260Y-65527251D01*
X140475258Y-65527251D01*
X140469131Y-65526607D01*
X140346252Y-65537790D01*
X140276746Y-65544115D01*
X140276745Y-65544115D01*
X140270605Y-65544674D01*
X140264691Y-65546415D01*
X140264689Y-65546415D01*
X140134539Y-65584721D01*
X140079370Y-65600958D01*
X139902709Y-65693314D01*
X139897909Y-65697174D01*
X139897908Y-65697174D01*
X139892893Y-65701206D01*
X139747351Y-65818225D01*
X139619214Y-65970933D01*
X139523179Y-66145621D01*
X139462902Y-66335635D01*
X139440682Y-66533739D01*
X138942020Y-66533739D01*
X138923965Y-66349606D01*
X138922184Y-66343707D01*
X138922183Y-66343702D01*
X138868129Y-66164667D01*
X138866348Y-66158768D01*
X138772761Y-65982756D01*
X138768871Y-65977986D01*
X138768868Y-65977982D01*
X138650663Y-65833049D01*
X138650660Y-65833046D01*
X138646768Y-65828274D01*
X138493170Y-65701206D01*
X138317815Y-65606392D01*
X138127385Y-65547444D01*
X138121260Y-65546800D01*
X138121259Y-65546800D01*
X137935260Y-65527251D01*
X137935258Y-65527251D01*
X137929131Y-65526607D01*
X137806252Y-65537790D01*
X137736746Y-65544115D01*
X137736745Y-65544115D01*
X137730605Y-65544674D01*
X137724691Y-65546415D01*
X137724689Y-65546415D01*
X137594539Y-65584721D01*
X137539370Y-65600958D01*
X137362709Y-65693314D01*
X137357909Y-65697174D01*
X137357908Y-65697174D01*
X137352893Y-65701206D01*
X137207351Y-65818225D01*
X137079214Y-65970933D01*
X136983179Y-66145621D01*
X136922902Y-66335635D01*
X136900682Y-66533739D01*
X136402020Y-66533739D01*
X136383965Y-66349606D01*
X136382184Y-66343707D01*
X136382183Y-66343702D01*
X136328129Y-66164667D01*
X136326348Y-66158768D01*
X136232761Y-65982756D01*
X136228871Y-65977986D01*
X136228868Y-65977982D01*
X136110663Y-65833049D01*
X136110660Y-65833046D01*
X136106768Y-65828274D01*
X135953170Y-65701206D01*
X135777815Y-65606392D01*
X135587385Y-65547444D01*
X135581260Y-65546800D01*
X135581259Y-65546800D01*
X135395260Y-65527251D01*
X135395258Y-65527251D01*
X135389131Y-65526607D01*
X135266252Y-65537790D01*
X135196746Y-65544115D01*
X135196745Y-65544115D01*
X135190605Y-65544674D01*
X135184691Y-65546415D01*
X135184689Y-65546415D01*
X135054539Y-65584721D01*
X134999370Y-65600958D01*
X134822709Y-65693314D01*
X134817909Y-65697174D01*
X134817908Y-65697174D01*
X134812893Y-65701206D01*
X134667351Y-65818225D01*
X134539214Y-65970933D01*
X134443179Y-66145621D01*
X134382902Y-66335635D01*
X134360682Y-66533739D01*
X133862020Y-66533739D01*
X133843965Y-66349606D01*
X133842184Y-66343707D01*
X133842183Y-66343702D01*
X133788129Y-66164667D01*
X133786348Y-66158768D01*
X133692761Y-65982756D01*
X133688871Y-65977986D01*
X133688868Y-65977982D01*
X133570663Y-65833049D01*
X133570660Y-65833046D01*
X133566768Y-65828274D01*
X133413170Y-65701206D01*
X133237815Y-65606392D01*
X133047385Y-65547444D01*
X133041260Y-65546800D01*
X133041259Y-65546800D01*
X132855260Y-65527251D01*
X132855258Y-65527251D01*
X132849131Y-65526607D01*
X132726252Y-65537790D01*
X132656746Y-65544115D01*
X132656745Y-65544115D01*
X132650605Y-65544674D01*
X132644691Y-65546415D01*
X132644689Y-65546415D01*
X132514539Y-65584721D01*
X132459370Y-65600958D01*
X132282709Y-65693314D01*
X132277909Y-65697174D01*
X132277908Y-65697174D01*
X132272893Y-65701206D01*
X132127351Y-65818225D01*
X131999214Y-65970933D01*
X131903179Y-66145621D01*
X131842902Y-66335635D01*
X131820682Y-66533739D01*
X131322020Y-66533739D01*
X131303965Y-66349606D01*
X131302184Y-66343707D01*
X131302183Y-66343702D01*
X131248129Y-66164667D01*
X131246348Y-66158768D01*
X131152761Y-65982756D01*
X131148871Y-65977986D01*
X131148868Y-65977982D01*
X131030663Y-65833049D01*
X131030660Y-65833046D01*
X131026768Y-65828274D01*
X130873170Y-65701206D01*
X130697815Y-65606392D01*
X130507385Y-65547444D01*
X130501260Y-65546800D01*
X130501259Y-65546800D01*
X130315260Y-65527251D01*
X130315258Y-65527251D01*
X130309131Y-65526607D01*
X130186252Y-65537790D01*
X130116746Y-65544115D01*
X130116745Y-65544115D01*
X130110605Y-65544674D01*
X130104691Y-65546415D01*
X130104689Y-65546415D01*
X129974539Y-65584721D01*
X129919370Y-65600958D01*
X129742709Y-65693314D01*
X129737909Y-65697174D01*
X129737908Y-65697174D01*
X129732893Y-65701206D01*
X129587351Y-65818225D01*
X129459214Y-65970933D01*
X129363179Y-66145621D01*
X129302902Y-66335635D01*
X129280682Y-66533739D01*
X128782020Y-66533739D01*
X128763965Y-66349606D01*
X128762184Y-66343707D01*
X128762183Y-66343702D01*
X128708129Y-66164667D01*
X128706348Y-66158768D01*
X128612761Y-65982756D01*
X128608871Y-65977986D01*
X128608868Y-65977982D01*
X128490663Y-65833049D01*
X128490660Y-65833046D01*
X128486768Y-65828274D01*
X128333170Y-65701206D01*
X128157815Y-65606392D01*
X127967385Y-65547444D01*
X127961260Y-65546800D01*
X127961259Y-65546800D01*
X127775260Y-65527251D01*
X127775258Y-65527251D01*
X127769131Y-65526607D01*
X127646252Y-65537790D01*
X127576746Y-65544115D01*
X127576745Y-65544115D01*
X127570605Y-65544674D01*
X127564691Y-65546415D01*
X127564689Y-65546415D01*
X127434539Y-65584721D01*
X127379370Y-65600958D01*
X127202709Y-65693314D01*
X127197909Y-65697174D01*
X127197908Y-65697174D01*
X127192893Y-65701206D01*
X127047351Y-65818225D01*
X126919214Y-65970933D01*
X126823179Y-66145621D01*
X126762902Y-66335635D01*
X126740682Y-66533739D01*
X126242020Y-66533739D01*
X126223965Y-66349606D01*
X126222184Y-66343707D01*
X126222183Y-66343702D01*
X126168129Y-66164667D01*
X126166348Y-66158768D01*
X126072761Y-65982756D01*
X126068871Y-65977986D01*
X126068868Y-65977982D01*
X125950663Y-65833049D01*
X125950660Y-65833046D01*
X125946768Y-65828274D01*
X125793170Y-65701206D01*
X125617815Y-65606392D01*
X125427385Y-65547444D01*
X125421260Y-65546800D01*
X125421259Y-65546800D01*
X125235260Y-65527251D01*
X125235258Y-65527251D01*
X125229131Y-65526607D01*
X125106252Y-65537790D01*
X125036746Y-65544115D01*
X125036745Y-65544115D01*
X125030605Y-65544674D01*
X125024691Y-65546415D01*
X125024689Y-65546415D01*
X124894539Y-65584721D01*
X124839370Y-65600958D01*
X124662709Y-65693314D01*
X124657909Y-65697174D01*
X124657908Y-65697174D01*
X124652893Y-65701206D01*
X124507351Y-65818225D01*
X124379214Y-65970933D01*
X124283179Y-66145621D01*
X124222902Y-66335635D01*
X124200682Y-66533739D01*
X123702020Y-66533739D01*
X123683965Y-66349606D01*
X123682184Y-66343707D01*
X123682183Y-66343702D01*
X123628129Y-66164667D01*
X123626348Y-66158768D01*
X123532761Y-65982756D01*
X123528871Y-65977986D01*
X123528868Y-65977982D01*
X123410663Y-65833049D01*
X123410660Y-65833046D01*
X123406768Y-65828274D01*
X123253170Y-65701206D01*
X123077815Y-65606392D01*
X122887385Y-65547444D01*
X122881260Y-65546800D01*
X122881259Y-65546800D01*
X122695260Y-65527251D01*
X122695258Y-65527251D01*
X122689131Y-65526607D01*
X122566252Y-65537790D01*
X122496746Y-65544115D01*
X122496745Y-65544115D01*
X122490605Y-65544674D01*
X122484691Y-65546415D01*
X122484689Y-65546415D01*
X122354539Y-65584721D01*
X122299370Y-65600958D01*
X122122709Y-65693314D01*
X122117909Y-65697174D01*
X122117908Y-65697174D01*
X122112893Y-65701206D01*
X121967351Y-65818225D01*
X121839214Y-65970933D01*
X121743179Y-66145621D01*
X121682902Y-66335635D01*
X121660682Y-66533739D01*
X103759500Y-66533739D01*
X103759500Y-59642733D01*
X109618300Y-59642733D01*
X109618301Y-62292866D01*
X109633066Y-62367101D01*
X109689316Y-62451284D01*
X109773499Y-62507534D01*
X109847733Y-62522300D01*
X111172585Y-62522300D01*
X112497866Y-62522299D01*
X112533618Y-62515188D01*
X112559926Y-62509956D01*
X112559928Y-62509955D01*
X112572101Y-62507534D01*
X112582421Y-62500639D01*
X112582422Y-62500638D01*
X112645968Y-62458177D01*
X112656284Y-62451284D01*
X112712534Y-62367101D01*
X112727300Y-62292867D01*
X112727299Y-59642734D01*
X112712534Y-59568499D01*
X112689533Y-59534075D01*
X112663177Y-59494632D01*
X112656284Y-59484316D01*
X112572101Y-59428066D01*
X112497867Y-59413300D01*
X111173015Y-59413300D01*
X109847734Y-59413301D01*
X109811982Y-59420412D01*
X109785674Y-59425644D01*
X109785672Y-59425645D01*
X109773499Y-59428066D01*
X109763179Y-59434961D01*
X109763178Y-59434962D01*
X109707724Y-59472016D01*
X109689316Y-59484316D01*
X109633066Y-59568499D01*
X109618300Y-59642733D01*
X103759500Y-59642733D01*
X103759500Y-57821882D01*
X121805300Y-57821882D01*
X121805301Y-59472015D01*
X121820066Y-59546250D01*
X121826961Y-59556569D01*
X121826962Y-59556571D01*
X121867316Y-59616964D01*
X121876316Y-59630433D01*
X121960499Y-59686683D01*
X122034733Y-59701449D01*
X122859666Y-59701449D01*
X123684866Y-59701448D01*
X123720618Y-59694337D01*
X123746926Y-59689105D01*
X123746928Y-59689104D01*
X123759101Y-59686683D01*
X123769421Y-59679788D01*
X123769422Y-59679787D01*
X123832968Y-59637326D01*
X123843284Y-59630433D01*
X123899534Y-59546250D01*
X123914300Y-59472016D01*
X123914299Y-58152082D01*
X148449900Y-58152082D01*
X148449901Y-59802215D01*
X148464666Y-59876450D01*
X148520916Y-59960633D01*
X148605099Y-60016883D01*
X148679333Y-60031649D01*
X149504266Y-60031649D01*
X150329466Y-60031648D01*
X150365218Y-60024537D01*
X150391526Y-60019305D01*
X150391528Y-60019304D01*
X150403701Y-60016883D01*
X150414021Y-60009988D01*
X150414022Y-60009987D01*
X150477568Y-59967526D01*
X150487884Y-59960633D01*
X150544134Y-59876450D01*
X150558900Y-59802216D01*
X150558899Y-58152083D01*
X150544134Y-58077848D01*
X150487884Y-57993665D01*
X150403701Y-57937415D01*
X150329467Y-57922649D01*
X149504534Y-57922649D01*
X148679334Y-57922650D01*
X148643582Y-57929761D01*
X148617274Y-57934993D01*
X148617272Y-57934994D01*
X148605099Y-57937415D01*
X148594779Y-57944310D01*
X148594778Y-57944311D01*
X148534385Y-57984665D01*
X148520916Y-57993665D01*
X148464666Y-58077848D01*
X148449900Y-58152082D01*
X123914299Y-58152082D01*
X123914299Y-57821883D01*
X123899534Y-57747648D01*
X123843284Y-57663465D01*
X123759101Y-57607215D01*
X123684867Y-57592449D01*
X122859934Y-57592449D01*
X122034734Y-57592450D01*
X121998982Y-57599561D01*
X121972674Y-57604793D01*
X121972672Y-57604794D01*
X121960499Y-57607215D01*
X121950179Y-57614110D01*
X121950178Y-57614111D01*
X121889785Y-57654465D01*
X121876316Y-57663465D01*
X121820066Y-57747648D01*
X121805300Y-57821882D01*
X103759500Y-57821882D01*
X103759500Y-53709623D01*
X106595740Y-53709623D01*
X106613575Y-54061688D01*
X106614112Y-54065043D01*
X106614113Y-54065049D01*
X106619545Y-54098959D01*
X106669328Y-54409767D01*
X106762347Y-54749789D01*
X106891545Y-55077776D01*
X106893128Y-55080791D01*
X107053825Y-55386875D01*
X107053830Y-55386883D01*
X107055409Y-55389891D01*
X107057303Y-55392709D01*
X107057308Y-55392718D01*
X107243981Y-55670516D01*
X107252023Y-55682484D01*
X107479087Y-55952131D01*
X107481547Y-55954482D01*
X107481550Y-55954485D01*
X107731482Y-56193325D01*
X107731489Y-56193331D01*
X107733945Y-56195678D01*
X108013614Y-56410276D01*
X108016532Y-56412050D01*
X108311910Y-56591643D01*
X108311915Y-56591646D01*
X108314825Y-56593415D01*
X108317913Y-56594861D01*
X108317912Y-56594861D01*
X108630968Y-56741508D01*
X108630978Y-56741512D01*
X108634052Y-56742952D01*
X108637270Y-56744054D01*
X108637273Y-56744055D01*
X108964331Y-56856032D01*
X108964335Y-56856033D01*
X108967562Y-56857138D01*
X108970892Y-56857888D01*
X108970901Y-56857891D01*
X109214150Y-56912709D01*
X109311454Y-56934637D01*
X109314839Y-56935023D01*
X109314847Y-56935024D01*
X109658321Y-56974158D01*
X109658329Y-56974158D01*
X109661704Y-56974543D01*
X109665108Y-56974561D01*
X109665111Y-56974561D01*
X109856972Y-56975566D01*
X110014215Y-56976389D01*
X110017601Y-56976039D01*
X110017603Y-56976039D01*
X110361472Y-56940504D01*
X110361481Y-56940503D01*
X110364864Y-56940153D01*
X110368197Y-56939439D01*
X110368200Y-56939438D01*
X110537855Y-56903067D01*
X110709548Y-56866259D01*
X111044236Y-56755572D01*
X111365012Y-56609386D01*
X111367949Y-56607642D01*
X111367955Y-56607639D01*
X111665189Y-56431153D01*
X111668123Y-56429411D01*
X111950025Y-56217753D01*
X112207419Y-55976888D01*
X112228714Y-55952131D01*
X112261321Y-55914221D01*
X112437294Y-55709634D01*
X112439226Y-55706823D01*
X112635031Y-55421925D01*
X112635036Y-55421918D01*
X112636961Y-55419116D01*
X112638573Y-55416122D01*
X112638578Y-55416114D01*
X112802463Y-55111746D01*
X112804085Y-55108734D01*
X112936710Y-54782118D01*
X113033285Y-54443089D01*
X113092680Y-54095612D01*
X113094550Y-54065049D01*
X113114089Y-53745584D01*
X113114201Y-53743754D01*
X113114280Y-53721000D01*
X113113664Y-53709623D01*
X151045740Y-53709623D01*
X151063575Y-54061688D01*
X151064112Y-54065043D01*
X151064113Y-54065049D01*
X151069545Y-54098959D01*
X151119328Y-54409767D01*
X151212347Y-54749789D01*
X151341545Y-55077776D01*
X151343128Y-55080791D01*
X151503825Y-55386875D01*
X151503830Y-55386883D01*
X151505409Y-55389891D01*
X151507303Y-55392709D01*
X151507308Y-55392718D01*
X151693981Y-55670516D01*
X151702023Y-55682484D01*
X151929087Y-55952131D01*
X151931547Y-55954482D01*
X151931550Y-55954485D01*
X152181482Y-56193325D01*
X152181489Y-56193331D01*
X152183945Y-56195678D01*
X152463614Y-56410276D01*
X152466532Y-56412050D01*
X152761910Y-56591643D01*
X152761915Y-56591646D01*
X152764825Y-56593415D01*
X152767913Y-56594861D01*
X152767912Y-56594861D01*
X153080968Y-56741508D01*
X153080978Y-56741512D01*
X153084052Y-56742952D01*
X153087270Y-56744054D01*
X153087273Y-56744055D01*
X153414331Y-56856032D01*
X153414335Y-56856033D01*
X153417562Y-56857138D01*
X153420892Y-56857888D01*
X153420901Y-56857891D01*
X153664150Y-56912709D01*
X153761454Y-56934637D01*
X153764839Y-56935023D01*
X153764847Y-56935024D01*
X154108321Y-56974158D01*
X154108329Y-56974158D01*
X154111704Y-56974543D01*
X154115108Y-56974561D01*
X154115111Y-56974561D01*
X154306972Y-56975566D01*
X154464215Y-56976389D01*
X154467601Y-56976039D01*
X154467603Y-56976039D01*
X154811472Y-56940504D01*
X154811481Y-56940503D01*
X154814864Y-56940153D01*
X154818197Y-56939439D01*
X154818200Y-56939438D01*
X154987855Y-56903067D01*
X155159548Y-56866259D01*
X155494236Y-56755572D01*
X155815012Y-56609386D01*
X155817949Y-56607642D01*
X155817955Y-56607639D01*
X156115189Y-56431153D01*
X156118123Y-56429411D01*
X156400025Y-56217753D01*
X156657419Y-55976888D01*
X156678714Y-55952131D01*
X156711321Y-55914221D01*
X156887294Y-55709634D01*
X156889226Y-55706823D01*
X157085031Y-55421925D01*
X157085036Y-55421918D01*
X157086961Y-55419116D01*
X157088573Y-55416122D01*
X157088578Y-55416114D01*
X157252463Y-55111746D01*
X157254085Y-55108734D01*
X157386710Y-54782118D01*
X157483285Y-54443089D01*
X157542680Y-54095612D01*
X157544550Y-54065049D01*
X157564089Y-53745584D01*
X157564201Y-53743754D01*
X157564280Y-53721000D01*
X157545216Y-53369000D01*
X157488248Y-53021117D01*
X157394043Y-52681422D01*
X157263701Y-52353888D01*
X157234770Y-52299246D01*
X157100347Y-52045366D01*
X157100343Y-52045359D01*
X157098748Y-52042347D01*
X156901114Y-51750442D01*
X156673110Y-51481589D01*
X156417404Y-51238933D01*
X156414697Y-51236871D01*
X156414689Y-51236864D01*
X156256468Y-51116333D01*
X156136987Y-51025313D01*
X156036136Y-50964476D01*
X155838054Y-50844985D01*
X155838048Y-50844982D01*
X155835139Y-50843227D01*
X155515392Y-50694805D01*
X155201327Y-50588500D01*
X155184712Y-50582876D01*
X155184707Y-50582875D01*
X155181485Y-50581784D01*
X154957378Y-50532100D01*
X154840655Y-50506223D01*
X154840651Y-50506222D01*
X154837325Y-50505485D01*
X154693771Y-50489637D01*
X154490320Y-50467175D01*
X154490313Y-50467175D01*
X154486938Y-50466802D01*
X154483539Y-50466796D01*
X154483538Y-50466796D01*
X154317052Y-50466506D01*
X154134422Y-50466187D01*
X154003668Y-50480161D01*
X153787286Y-50503285D01*
X153787280Y-50503286D01*
X153783902Y-50503647D01*
X153780579Y-50504371D01*
X153780576Y-50504372D01*
X153772087Y-50506223D01*
X153439478Y-50578743D01*
X153105179Y-50690598D01*
X153102086Y-50692020D01*
X153102085Y-50692021D01*
X153096032Y-50694805D01*
X152784915Y-50837903D01*
X152781981Y-50839659D01*
X152781979Y-50839660D01*
X152573427Y-50964476D01*
X152482434Y-51018934D01*
X152201273Y-51231575D01*
X152198788Y-51233917D01*
X152198783Y-51233921D01*
X152190972Y-51241282D01*
X151944721Y-51473337D01*
X151942509Y-51475927D01*
X151942507Y-51475929D01*
X151884957Y-51543311D01*
X151715780Y-51741392D01*
X151713861Y-51744204D01*
X151713858Y-51744209D01*
X151709607Y-51750442D01*
X151517128Y-52032605D01*
X151515521Y-52035615D01*
X151515519Y-52035618D01*
X151511926Y-52042347D01*
X151351089Y-52343569D01*
X151219605Y-52670646D01*
X151218687Y-52673914D01*
X151218684Y-52673921D01*
X151216576Y-52681422D01*
X151124214Y-53010010D01*
X151123652Y-53013367D01*
X151123652Y-53013368D01*
X151121795Y-53024468D01*
X151066032Y-53357692D01*
X151045740Y-53709623D01*
X113113664Y-53709623D01*
X113095216Y-53369000D01*
X113038248Y-53021117D01*
X112944043Y-52681422D01*
X112813701Y-52353888D01*
X112784770Y-52299246D01*
X112650347Y-52045366D01*
X112650343Y-52045359D01*
X112648748Y-52042347D01*
X112451114Y-51750442D01*
X112223110Y-51481589D01*
X111967404Y-51238933D01*
X111964697Y-51236871D01*
X111964689Y-51236864D01*
X111806468Y-51116333D01*
X111686987Y-51025313D01*
X111586136Y-50964476D01*
X111388054Y-50844985D01*
X111388048Y-50844982D01*
X111385139Y-50843227D01*
X111065392Y-50694805D01*
X110751327Y-50588500D01*
X110734712Y-50582876D01*
X110734707Y-50582875D01*
X110731485Y-50581784D01*
X110507378Y-50532100D01*
X110390655Y-50506223D01*
X110390651Y-50506222D01*
X110387325Y-50505485D01*
X110243771Y-50489637D01*
X110040320Y-50467175D01*
X110040313Y-50467175D01*
X110036938Y-50466802D01*
X110033539Y-50466796D01*
X110033538Y-50466796D01*
X109867052Y-50466506D01*
X109684422Y-50466187D01*
X109553668Y-50480161D01*
X109337286Y-50503285D01*
X109337280Y-50503286D01*
X109333902Y-50503647D01*
X109330579Y-50504371D01*
X109330576Y-50504372D01*
X109322087Y-50506223D01*
X108989478Y-50578743D01*
X108655179Y-50690598D01*
X108652086Y-50692020D01*
X108652085Y-50692021D01*
X108646032Y-50694805D01*
X108334915Y-50837903D01*
X108331981Y-50839659D01*
X108331979Y-50839660D01*
X108123427Y-50964476D01*
X108032434Y-51018934D01*
X107751273Y-51231575D01*
X107748788Y-51233917D01*
X107748783Y-51233921D01*
X107740972Y-51241282D01*
X107494721Y-51473337D01*
X107492509Y-51475927D01*
X107492507Y-51475929D01*
X107434957Y-51543311D01*
X107265780Y-51741392D01*
X107263861Y-51744204D01*
X107263858Y-51744209D01*
X107259607Y-51750442D01*
X107067128Y-52032605D01*
X107065521Y-52035615D01*
X107065519Y-52035618D01*
X107061926Y-52042347D01*
X106901089Y-52343569D01*
X106769605Y-52670646D01*
X106768687Y-52673914D01*
X106768684Y-52673921D01*
X106766576Y-52681422D01*
X106674214Y-53010010D01*
X106673652Y-53013367D01*
X106673652Y-53013368D01*
X106671795Y-53024468D01*
X106616032Y-53357692D01*
X106595740Y-53709623D01*
X103759500Y-53709623D01*
X103759500Y-50964476D01*
X103761921Y-50939894D01*
X103762065Y-50939170D01*
X103764486Y-50927000D01*
X103762065Y-50914828D01*
X103762065Y-50902420D01*
X103762156Y-50902420D01*
X103761364Y-50891433D01*
X103763891Y-50843227D01*
X103777240Y-50588499D01*
X103778618Y-50575383D01*
X103830613Y-50247102D01*
X103833355Y-50234202D01*
X103919379Y-49913154D01*
X103923455Y-49900610D01*
X104042562Y-49590328D01*
X104047926Y-49578280D01*
X104198820Y-49282133D01*
X104205414Y-49270712D01*
X104386437Y-48991960D01*
X104394190Y-48981290D01*
X104603352Y-48722996D01*
X104612177Y-48713195D01*
X104847195Y-48478177D01*
X104856996Y-48469352D01*
X105115290Y-48260190D01*
X105125960Y-48252437D01*
X105404712Y-48071414D01*
X105416133Y-48064820D01*
X105712280Y-47913926D01*
X105724328Y-47908562D01*
X105763532Y-47893513D01*
X106034618Y-47789453D01*
X106047154Y-47785379D01*
X106368202Y-47699355D01*
X106381102Y-47696613D01*
X106709383Y-47644618D01*
X106722499Y-47643240D01*
X107025435Y-47627364D01*
X107036420Y-47628156D01*
X107036420Y-47628065D01*
X107048828Y-47628065D01*
X107061000Y-47630486D01*
X107073897Y-47627921D01*
X107098476Y-47625500D01*
X157061524Y-47625500D01*
X157086103Y-47627921D01*
G37*
%TD.AperFunction*%
%TD*%
M02*
