%TF.GenerationSoftware,KiCad,Pcbnew,(6.0.6)*%
%TF.CreationDate,2022-07-27T00:23:15-07:00*%
%TF.ProjectId,AUTOPUMP_V2.02,4155544f-5055-44d5-905f-56322e30322e,rev?*%
%TF.SameCoordinates,Original*%
%TF.FileFunction,Legend,Top*%
%TF.FilePolarity,Positive*%
%FSLAX46Y46*%
G04 Gerber Fmt 4.6, Leading zero omitted, Abs format (unit mm)*
G04 Created by KiCad (PCBNEW (6.0.6)) date 2022-07-27 00:23:15*
%MOMM*%
%LPD*%
G01*
G04 APERTURE LIST*
%ADD10C,0.200000*%
%ADD11C,0.250000*%
%ADD12C,0.150000*%
%ADD13C,0.120000*%
G04 APERTURE END LIST*
D10*
X146907304Y-90087457D02*
X147021590Y-90125552D01*
X147059685Y-90163647D01*
X147097780Y-90239838D01*
X147097780Y-90354123D01*
X147059685Y-90430314D01*
X147021590Y-90468409D01*
X146945400Y-90506504D01*
X146640638Y-90506504D01*
X146640638Y-89706504D01*
X146907304Y-89706504D01*
X146983495Y-89744600D01*
X147021590Y-89782695D01*
X147059685Y-89858885D01*
X147059685Y-89935076D01*
X147021590Y-90011266D01*
X146983495Y-90049361D01*
X146907304Y-90087457D01*
X146640638Y-90087457D01*
X147440638Y-90201742D02*
X148050161Y-90201742D01*
X113379638Y-100606733D02*
X113760590Y-100606733D01*
X113303447Y-100835304D02*
X113570114Y-100035304D01*
X113836780Y-100835304D01*
X114446304Y-100301971D02*
X114446304Y-100835304D01*
X114103447Y-100301971D02*
X114103447Y-100721019D01*
X114141542Y-100797209D01*
X114217733Y-100835304D01*
X114332019Y-100835304D01*
X114408209Y-100797209D01*
X114446304Y-100759114D01*
X114712971Y-100301971D02*
X115017733Y-100301971D01*
X114827257Y-100035304D02*
X114827257Y-100721019D01*
X114865352Y-100797209D01*
X114941542Y-100835304D01*
X115017733Y-100835304D01*
X115398685Y-100835304D02*
X115322495Y-100797209D01*
X115284400Y-100759114D01*
X115246304Y-100682923D01*
X115246304Y-100454352D01*
X115284400Y-100378161D01*
X115322495Y-100340066D01*
X115398685Y-100301971D01*
X115512971Y-100301971D01*
X115589161Y-100340066D01*
X115627257Y-100378161D01*
X115665352Y-100454352D01*
X115665352Y-100682923D01*
X115627257Y-100759114D01*
X115589161Y-100797209D01*
X115512971Y-100835304D01*
X115398685Y-100835304D01*
X116617733Y-100835304D02*
X116617733Y-100035304D01*
X116922495Y-100035304D01*
X116998685Y-100073400D01*
X117036780Y-100111495D01*
X117074876Y-100187685D01*
X117074876Y-100301971D01*
X117036780Y-100378161D01*
X116998685Y-100416257D01*
X116922495Y-100454352D01*
X116617733Y-100454352D01*
X117760590Y-100301971D02*
X117760590Y-100835304D01*
X117417733Y-100301971D02*
X117417733Y-100721019D01*
X117455828Y-100797209D01*
X117532019Y-100835304D01*
X117646304Y-100835304D01*
X117722495Y-100797209D01*
X117760590Y-100759114D01*
X118141542Y-100835304D02*
X118141542Y-100301971D01*
X118141542Y-100378161D02*
X118179638Y-100340066D01*
X118255828Y-100301971D01*
X118370114Y-100301971D01*
X118446304Y-100340066D01*
X118484400Y-100416257D01*
X118484400Y-100835304D01*
X118484400Y-100416257D02*
X118522495Y-100340066D01*
X118598685Y-100301971D01*
X118712971Y-100301971D01*
X118789161Y-100340066D01*
X118827257Y-100416257D01*
X118827257Y-100835304D01*
X119208209Y-100301971D02*
X119208209Y-101101971D01*
X119208209Y-100340066D02*
X119284400Y-100301971D01*
X119436780Y-100301971D01*
X119512971Y-100340066D01*
X119551066Y-100378161D01*
X119589161Y-100454352D01*
X119589161Y-100682923D01*
X119551066Y-100759114D01*
X119512971Y-100797209D01*
X119436780Y-100835304D01*
X119284400Y-100835304D01*
X119208209Y-100797209D01*
X114960590Y-101589971D02*
X115151066Y-102123304D01*
X115341542Y-101589971D01*
X115608209Y-101399495D02*
X115646304Y-101361400D01*
X115722495Y-101323304D01*
X115912971Y-101323304D01*
X115989161Y-101361400D01*
X116027257Y-101399495D01*
X116065352Y-101475685D01*
X116065352Y-101551876D01*
X116027257Y-101666161D01*
X115570114Y-102123304D01*
X116065352Y-102123304D01*
X116408209Y-102047114D02*
X116446304Y-102085209D01*
X116408209Y-102123304D01*
X116370114Y-102085209D01*
X116408209Y-102047114D01*
X116408209Y-102123304D01*
X116941542Y-101323304D02*
X117017733Y-101323304D01*
X117093923Y-101361400D01*
X117132019Y-101399495D01*
X117170114Y-101475685D01*
X117208209Y-101628066D01*
X117208209Y-101818542D01*
X117170114Y-101970923D01*
X117132019Y-102047114D01*
X117093923Y-102085209D01*
X117017733Y-102123304D01*
X116941542Y-102123304D01*
X116865352Y-102085209D01*
X116827257Y-102047114D01*
X116789161Y-101970923D01*
X116751066Y-101818542D01*
X116751066Y-101628066D01*
X116789161Y-101475685D01*
X116827257Y-101399495D01*
X116865352Y-101361400D01*
X116941542Y-101323304D01*
X117512971Y-101399495D02*
X117551066Y-101361400D01*
X117627257Y-101323304D01*
X117817733Y-101323304D01*
X117893923Y-101361400D01*
X117932019Y-101399495D01*
X117970114Y-101475685D01*
X117970114Y-101551876D01*
X117932019Y-101666161D01*
X117474876Y-102123304D01*
X117970114Y-102123304D01*
X124669580Y-90481104D02*
X124402914Y-90100152D01*
X124212438Y-90481104D02*
X124212438Y-89681104D01*
X124517200Y-89681104D01*
X124593390Y-89719200D01*
X124631485Y-89757295D01*
X124669580Y-89833485D01*
X124669580Y-89947771D01*
X124631485Y-90023961D01*
X124593390Y-90062057D01*
X124517200Y-90100152D01*
X124212438Y-90100152D01*
X125012438Y-90176342D02*
X125621961Y-90176342D01*
X125317200Y-90481104D02*
X125317200Y-89871580D01*
D11*
X117733771Y-78359047D02*
X117733771Y-79120952D01*
D10*
X119763695Y-83534790D02*
X120563695Y-83534790D01*
X119992266Y-83801457D01*
X120563695Y-84068123D01*
X119763695Y-84068123D01*
X120563695Y-84601457D02*
X120563695Y-84753838D01*
X120525600Y-84830028D01*
X120449409Y-84906219D01*
X120297028Y-84944314D01*
X120030361Y-84944314D01*
X119877980Y-84906219D01*
X119801790Y-84830028D01*
X119763695Y-84753838D01*
X119763695Y-84601457D01*
X119801790Y-84525266D01*
X119877980Y-84449076D01*
X120030361Y-84410980D01*
X120297028Y-84410980D01*
X120449409Y-84449076D01*
X120525600Y-84525266D01*
X120563695Y-84601457D01*
X120563695Y-85172885D02*
X120563695Y-85630028D01*
X119763695Y-85401457D02*
X120563695Y-85401457D01*
X120563695Y-86049076D02*
X120563695Y-86201457D01*
X120525600Y-86277647D01*
X120449409Y-86353838D01*
X120297028Y-86391933D01*
X120030361Y-86391933D01*
X119877980Y-86353838D01*
X119801790Y-86277647D01*
X119763695Y-86201457D01*
X119763695Y-86049076D01*
X119801790Y-85972885D01*
X119877980Y-85896695D01*
X120030361Y-85858600D01*
X120297028Y-85858600D01*
X120449409Y-85896695D01*
X120525600Y-85972885D01*
X120563695Y-86049076D01*
X119763695Y-87191933D02*
X120144647Y-86925266D01*
X119763695Y-86734790D02*
X120563695Y-86734790D01*
X120563695Y-87039552D01*
X120525600Y-87115742D01*
X120487504Y-87153838D01*
X120411314Y-87191933D01*
X120297028Y-87191933D01*
X120220838Y-87153838D01*
X120182742Y-87115742D01*
X120144647Y-87039552D01*
X120144647Y-86734790D01*
X119801790Y-88106219D02*
X119763695Y-88220504D01*
X119763695Y-88410980D01*
X119801790Y-88487171D01*
X119839885Y-88525266D01*
X119916076Y-88563361D01*
X119992266Y-88563361D01*
X120068457Y-88525266D01*
X120106552Y-88487171D01*
X120144647Y-88410980D01*
X120182742Y-88258600D01*
X120220838Y-88182409D01*
X120258933Y-88144314D01*
X120335123Y-88106219D01*
X120411314Y-88106219D01*
X120487504Y-88144314D01*
X120525600Y-88182409D01*
X120563695Y-88258600D01*
X120563695Y-88449076D01*
X120525600Y-88563361D01*
X119763695Y-88906219D02*
X120563695Y-88906219D01*
X120563695Y-89210980D01*
X120525600Y-89287171D01*
X120487504Y-89325266D01*
X120411314Y-89363361D01*
X120297028Y-89363361D01*
X120220838Y-89325266D01*
X120182742Y-89287171D01*
X120144647Y-89210980D01*
X120144647Y-88906219D01*
X120182742Y-89706219D02*
X120182742Y-89972885D01*
X119763695Y-90087171D02*
X119763695Y-89706219D01*
X120563695Y-89706219D01*
X120563695Y-90087171D01*
X120182742Y-90430028D02*
X120182742Y-90696695D01*
X119763695Y-90810980D02*
X119763695Y-90430028D01*
X120563695Y-90430028D01*
X120563695Y-90810980D01*
X119763695Y-91153838D02*
X120563695Y-91153838D01*
X120563695Y-91344314D01*
X120525600Y-91458600D01*
X120449409Y-91534790D01*
X120373219Y-91572885D01*
X120220838Y-91610980D01*
X120106552Y-91610980D01*
X119954171Y-91572885D01*
X119877980Y-91534790D01*
X119801790Y-91458600D01*
X119763695Y-91344314D01*
X119763695Y-91153838D01*
X118551885Y-85820504D02*
X118513790Y-85782409D01*
X118475695Y-85668123D01*
X118475695Y-85591933D01*
X118513790Y-85477647D01*
X118589980Y-85401457D01*
X118666171Y-85363361D01*
X118818552Y-85325266D01*
X118932838Y-85325266D01*
X119085219Y-85363361D01*
X119161409Y-85401457D01*
X119237600Y-85477647D01*
X119275695Y-85591933D01*
X119275695Y-85668123D01*
X119237600Y-85782409D01*
X119199504Y-85820504D01*
X119275695Y-86315742D02*
X119275695Y-86468123D01*
X119237600Y-86544314D01*
X119161409Y-86620504D01*
X119009028Y-86658600D01*
X118742361Y-86658600D01*
X118589980Y-86620504D01*
X118513790Y-86544314D01*
X118475695Y-86468123D01*
X118475695Y-86315742D01*
X118513790Y-86239552D01*
X118589980Y-86163361D01*
X118742361Y-86125266D01*
X119009028Y-86125266D01*
X119161409Y-86163361D01*
X119237600Y-86239552D01*
X119275695Y-86315742D01*
X118475695Y-87001457D02*
X119275695Y-87001457D01*
X118475695Y-87458600D01*
X119275695Y-87458600D01*
X119275695Y-87725266D02*
X119275695Y-88182409D01*
X118475695Y-87953838D02*
X119275695Y-87953838D01*
X118475695Y-88906219D02*
X118856647Y-88639552D01*
X118475695Y-88449076D02*
X119275695Y-88449076D01*
X119275695Y-88753838D01*
X119237600Y-88830028D01*
X119199504Y-88868123D01*
X119123314Y-88906219D01*
X119009028Y-88906219D01*
X118932838Y-88868123D01*
X118894742Y-88830028D01*
X118856647Y-88753838D01*
X118856647Y-88449076D01*
X119275695Y-89401457D02*
X119275695Y-89553838D01*
X119237600Y-89630028D01*
X119161409Y-89706219D01*
X119009028Y-89744314D01*
X118742361Y-89744314D01*
X118589980Y-89706219D01*
X118513790Y-89630028D01*
X118475695Y-89553838D01*
X118475695Y-89401457D01*
X118513790Y-89325266D01*
X118589980Y-89249076D01*
X118742361Y-89210980D01*
X119009028Y-89210980D01*
X119161409Y-89249076D01*
X119237600Y-89325266D01*
X119275695Y-89401457D01*
X118475695Y-90468123D02*
X118475695Y-90087171D01*
X119275695Y-90087171D01*
X118179800Y-84474085D02*
X118217895Y-84397895D01*
X118217895Y-84283609D01*
X118179800Y-84169323D01*
X118103609Y-84093133D01*
X118027419Y-84055038D01*
X117875038Y-84016942D01*
X117760752Y-84016942D01*
X117608371Y-84055038D01*
X117532180Y-84093133D01*
X117455990Y-84169323D01*
X117417895Y-84283609D01*
X117417895Y-84359800D01*
X117455990Y-84474085D01*
X117494085Y-84512180D01*
X117760752Y-84512180D01*
X117760752Y-84359800D01*
X117722657Y-84855038D02*
X117722657Y-85464561D01*
X117417895Y-85159800D02*
X118027419Y-85159800D01*
X139122552Y-88059104D02*
X139122552Y-87259104D01*
X139427314Y-87259104D01*
X139503504Y-87297200D01*
X139541600Y-87335295D01*
X139579695Y-87411485D01*
X139579695Y-87525771D01*
X139541600Y-87601961D01*
X139503504Y-87640057D01*
X139427314Y-87678152D01*
X139122552Y-87678152D01*
X140379695Y-88059104D02*
X140113028Y-87678152D01*
X139922552Y-88059104D02*
X139922552Y-87259104D01*
X140227314Y-87259104D01*
X140303504Y-87297200D01*
X140341600Y-87335295D01*
X140379695Y-87411485D01*
X140379695Y-87525771D01*
X140341600Y-87601961D01*
X140303504Y-87640057D01*
X140227314Y-87678152D01*
X139922552Y-87678152D01*
X140722552Y-87640057D02*
X140989219Y-87640057D01*
X141103504Y-88059104D02*
X140722552Y-88059104D01*
X140722552Y-87259104D01*
X141103504Y-87259104D01*
X141408266Y-88021009D02*
X141522552Y-88059104D01*
X141713028Y-88059104D01*
X141789219Y-88021009D01*
X141827314Y-87982914D01*
X141865409Y-87906723D01*
X141865409Y-87830533D01*
X141827314Y-87754342D01*
X141789219Y-87716247D01*
X141713028Y-87678152D01*
X141560647Y-87640057D01*
X141484457Y-87601961D01*
X141446361Y-87563866D01*
X141408266Y-87487676D01*
X141408266Y-87411485D01*
X141446361Y-87335295D01*
X141484457Y-87297200D01*
X141560647Y-87259104D01*
X141751123Y-87259104D01*
X141865409Y-87297200D01*
X142170171Y-88021009D02*
X142284457Y-88059104D01*
X142474933Y-88059104D01*
X142551123Y-88021009D01*
X142589219Y-87982914D01*
X142627314Y-87906723D01*
X142627314Y-87830533D01*
X142589219Y-87754342D01*
X142551123Y-87716247D01*
X142474933Y-87678152D01*
X142322552Y-87640057D01*
X142246361Y-87601961D01*
X142208266Y-87563866D01*
X142170171Y-87487676D01*
X142170171Y-87411485D01*
X142208266Y-87335295D01*
X142246361Y-87297200D01*
X142322552Y-87259104D01*
X142513028Y-87259104D01*
X142627314Y-87297200D01*
X142970171Y-87259104D02*
X142970171Y-87906723D01*
X143008266Y-87982914D01*
X143046361Y-88021009D01*
X143122552Y-88059104D01*
X143274933Y-88059104D01*
X143351123Y-88021009D01*
X143389219Y-87982914D01*
X143427314Y-87906723D01*
X143427314Y-87259104D01*
X144265409Y-88059104D02*
X143998742Y-87678152D01*
X143808266Y-88059104D02*
X143808266Y-87259104D01*
X144113028Y-87259104D01*
X144189219Y-87297200D01*
X144227314Y-87335295D01*
X144265409Y-87411485D01*
X144265409Y-87525771D01*
X144227314Y-87601961D01*
X144189219Y-87640057D01*
X144113028Y-87678152D01*
X143808266Y-87678152D01*
X144608266Y-87640057D02*
X144874933Y-87640057D01*
X144989219Y-88059104D02*
X144608266Y-88059104D01*
X144608266Y-87259104D01*
X144989219Y-87259104D01*
X140132076Y-89309009D02*
X140246361Y-89347104D01*
X140436838Y-89347104D01*
X140513028Y-89309009D01*
X140551123Y-89270914D01*
X140589219Y-89194723D01*
X140589219Y-89118533D01*
X140551123Y-89042342D01*
X140513028Y-89004247D01*
X140436838Y-88966152D01*
X140284457Y-88928057D01*
X140208266Y-88889961D01*
X140170171Y-88851866D01*
X140132076Y-88775676D01*
X140132076Y-88699485D01*
X140170171Y-88623295D01*
X140208266Y-88585200D01*
X140284457Y-88547104D01*
X140474933Y-88547104D01*
X140589219Y-88585200D01*
X140932076Y-88928057D02*
X141198742Y-88928057D01*
X141313028Y-89347104D02*
X140932076Y-89347104D01*
X140932076Y-88547104D01*
X141313028Y-88547104D01*
X141655885Y-89347104D02*
X141655885Y-88547104D01*
X142113028Y-89347104D01*
X142113028Y-88547104D01*
X142455885Y-89309009D02*
X142570171Y-89347104D01*
X142760647Y-89347104D01*
X142836838Y-89309009D01*
X142874933Y-89270914D01*
X142913028Y-89194723D01*
X142913028Y-89118533D01*
X142874933Y-89042342D01*
X142836838Y-89004247D01*
X142760647Y-88966152D01*
X142608266Y-88928057D01*
X142532076Y-88889961D01*
X142493980Y-88851866D01*
X142455885Y-88775676D01*
X142455885Y-88699485D01*
X142493980Y-88623295D01*
X142532076Y-88585200D01*
X142608266Y-88547104D01*
X142798742Y-88547104D01*
X142913028Y-88585200D01*
X143408266Y-88547104D02*
X143560647Y-88547104D01*
X143636838Y-88585200D01*
X143713028Y-88661390D01*
X143751123Y-88813771D01*
X143751123Y-89080438D01*
X143713028Y-89232819D01*
X143636838Y-89309009D01*
X143560647Y-89347104D01*
X143408266Y-89347104D01*
X143332076Y-89309009D01*
X143255885Y-89232819D01*
X143217790Y-89080438D01*
X143217790Y-88813771D01*
X143255885Y-88661390D01*
X143332076Y-88585200D01*
X143408266Y-88547104D01*
X144551123Y-89347104D02*
X144284457Y-88966152D01*
X144093980Y-89347104D02*
X144093980Y-88547104D01*
X144398742Y-88547104D01*
X144474933Y-88585200D01*
X144513028Y-88623295D01*
X144551123Y-88699485D01*
X144551123Y-88813771D01*
X144513028Y-88889961D01*
X144474933Y-88928057D01*
X144398742Y-88966152D01*
X144093980Y-88966152D01*
D11*
X117784571Y-72466247D02*
X117784571Y-73228152D01*
X117403619Y-72847200D02*
X118165523Y-72847200D01*
X117835371Y-60401247D02*
X117835371Y-61163152D01*
X117454419Y-60782200D02*
X118216323Y-60782200D01*
D10*
X117595695Y-73907876D02*
X118395695Y-73907876D01*
X117824266Y-74174542D01*
X118395695Y-74441209D01*
X117595695Y-74441209D01*
X118395695Y-74974542D02*
X118395695Y-75126923D01*
X118357600Y-75203114D01*
X118281409Y-75279304D01*
X118129028Y-75317400D01*
X117862361Y-75317400D01*
X117709980Y-75279304D01*
X117633790Y-75203114D01*
X117595695Y-75126923D01*
X117595695Y-74974542D01*
X117633790Y-74898352D01*
X117709980Y-74822161D01*
X117862361Y-74784066D01*
X118129028Y-74784066D01*
X118281409Y-74822161D01*
X118357600Y-74898352D01*
X118395695Y-74974542D01*
X118395695Y-75545971D02*
X118395695Y-76003114D01*
X117595695Y-75774542D02*
X118395695Y-75774542D01*
X118395695Y-76422161D02*
X118395695Y-76574542D01*
X118357600Y-76650733D01*
X118281409Y-76726923D01*
X118129028Y-76765019D01*
X117862361Y-76765019D01*
X117709980Y-76726923D01*
X117633790Y-76650733D01*
X117595695Y-76574542D01*
X117595695Y-76422161D01*
X117633790Y-76345971D01*
X117709980Y-76269780D01*
X117862361Y-76231685D01*
X118129028Y-76231685D01*
X118281409Y-76269780D01*
X118357600Y-76345971D01*
X118395695Y-76422161D01*
X117595695Y-77565019D02*
X117976647Y-77298352D01*
X117595695Y-77107876D02*
X118395695Y-77107876D01*
X118395695Y-77412638D01*
X118357600Y-77488828D01*
X118319504Y-77526923D01*
X118243314Y-77565019D01*
X118129028Y-77565019D01*
X118052838Y-77526923D01*
X118014742Y-77488828D01*
X117976647Y-77412638D01*
X117976647Y-77107876D01*
X126190180Y-90023933D02*
X126571133Y-90023933D01*
X126113990Y-90252504D02*
X126380657Y-89452504D01*
X126647323Y-90252504D01*
X127294942Y-90252504D02*
X126913990Y-90252504D01*
X126913990Y-89452504D01*
X127523514Y-90023933D02*
X127904466Y-90023933D01*
X127447323Y-90252504D02*
X127713990Y-89452504D01*
X127980657Y-90252504D01*
X128704466Y-90252504D02*
X128437800Y-89871552D01*
X128247323Y-90252504D02*
X128247323Y-89452504D01*
X128552085Y-89452504D01*
X128628276Y-89490600D01*
X128666371Y-89528695D01*
X128704466Y-89604885D01*
X128704466Y-89719171D01*
X128666371Y-89795361D01*
X128628276Y-89833457D01*
X128552085Y-89871552D01*
X128247323Y-89871552D01*
X129047323Y-90252504D02*
X129047323Y-89452504D01*
X129313990Y-90023933D01*
X129580657Y-89452504D01*
X129580657Y-90252504D01*
X117938542Y-63239723D02*
X117900447Y-63354009D01*
X117862352Y-63392104D01*
X117786161Y-63430200D01*
X117671876Y-63430200D01*
X117595685Y-63392104D01*
X117557590Y-63354009D01*
X117519495Y-63277819D01*
X117519495Y-62973057D01*
X118319495Y-62973057D01*
X118319495Y-63239723D01*
X118281400Y-63315914D01*
X118243304Y-63354009D01*
X118167114Y-63392104D01*
X118090923Y-63392104D01*
X118014733Y-63354009D01*
X117976638Y-63315914D01*
X117938542Y-63239723D01*
X117938542Y-62973057D01*
X117748066Y-63734961D02*
X117748066Y-64115914D01*
X117519495Y-63658771D02*
X118319495Y-63925438D01*
X117519495Y-64192104D01*
X118319495Y-64344485D02*
X118319495Y-64801628D01*
X117519495Y-64573057D02*
X118319495Y-64573057D01*
X117913142Y-91052704D02*
X117875047Y-91166990D01*
X117836952Y-91205085D01*
X117760761Y-91243180D01*
X117646476Y-91243180D01*
X117570285Y-91205085D01*
X117532190Y-91166990D01*
X117494095Y-91090800D01*
X117494095Y-90786038D01*
X118294095Y-90786038D01*
X118294095Y-91052704D01*
X118256000Y-91128895D01*
X118217904Y-91166990D01*
X118141714Y-91205085D01*
X118065523Y-91205085D01*
X117989333Y-91166990D01*
X117951238Y-91128895D01*
X117913142Y-91052704D01*
X117913142Y-90786038D01*
X117798857Y-91586038D02*
X117798857Y-92195561D01*
X136810780Y-90506504D02*
X136544114Y-90125552D01*
X136353638Y-90506504D02*
X136353638Y-89706504D01*
X136658400Y-89706504D01*
X136734590Y-89744600D01*
X136772685Y-89782695D01*
X136810780Y-89858885D01*
X136810780Y-89973171D01*
X136772685Y-90049361D01*
X136734590Y-90087457D01*
X136658400Y-90125552D01*
X136353638Y-90125552D01*
X137153638Y-90201742D02*
X137763161Y-90201742D01*
X137458400Y-90506504D02*
X137458400Y-89896980D01*
D11*
X117835371Y-66090847D02*
X117835371Y-66852752D01*
D10*
X130346504Y-90112857D02*
X130460790Y-90150952D01*
X130498885Y-90189047D01*
X130536980Y-90265238D01*
X130536980Y-90379523D01*
X130498885Y-90455714D01*
X130460790Y-90493809D01*
X130384600Y-90531904D01*
X130079838Y-90531904D01*
X130079838Y-89731904D01*
X130346504Y-89731904D01*
X130422695Y-89770000D01*
X130460790Y-89808095D01*
X130498885Y-89884285D01*
X130498885Y-89960476D01*
X130460790Y-90036666D01*
X130422695Y-90074761D01*
X130346504Y-90112857D01*
X130079838Y-90112857D01*
X130879838Y-90227142D02*
X131489361Y-90227142D01*
X142195523Y-89719200D02*
X142119333Y-89681104D01*
X142005047Y-89681104D01*
X141890761Y-89719200D01*
X141814571Y-89795390D01*
X141776476Y-89871580D01*
X141738380Y-90023961D01*
X141738380Y-90138247D01*
X141776476Y-90290628D01*
X141814571Y-90366819D01*
X141890761Y-90443009D01*
X142005047Y-90481104D01*
X142081238Y-90481104D01*
X142195523Y-90443009D01*
X142233619Y-90404914D01*
X142233619Y-90138247D01*
X142081238Y-90138247D01*
D12*
%TO.C,J4*%
X116640000Y-57507228D02*
X116640000Y-57935800D01*
X116611428Y-58021514D01*
X116554285Y-58078657D01*
X116468571Y-58107228D01*
X116411428Y-58107228D01*
X117182857Y-57707228D02*
X117182857Y-58107228D01*
X117040000Y-57478657D02*
X116897142Y-57907228D01*
X117268571Y-57907228D01*
%TO.C,C6*%
X142444800Y-64958885D02*
X142416228Y-64987457D01*
X142330514Y-65016028D01*
X142273371Y-65016028D01*
X142187657Y-64987457D01*
X142130514Y-64930314D01*
X142101942Y-64873171D01*
X142073371Y-64758885D01*
X142073371Y-64673171D01*
X142101942Y-64558885D01*
X142130514Y-64501742D01*
X142187657Y-64444600D01*
X142273371Y-64416028D01*
X142330514Y-64416028D01*
X142416228Y-64444600D01*
X142444800Y-64473171D01*
X142959085Y-64416028D02*
X142844800Y-64416028D01*
X142787657Y-64444600D01*
X142759085Y-64473171D01*
X142701942Y-64558885D01*
X142673371Y-64673171D01*
X142673371Y-64901742D01*
X142701942Y-64958885D01*
X142730514Y-64987457D01*
X142787657Y-65016028D01*
X142901942Y-65016028D01*
X142959085Y-64987457D01*
X142987657Y-64958885D01*
X143016228Y-64901742D01*
X143016228Y-64758885D01*
X142987657Y-64701742D01*
X142959085Y-64673171D01*
X142901942Y-64644600D01*
X142787657Y-64644600D01*
X142730514Y-64673171D01*
X142701942Y-64701742D01*
X142673371Y-64758885D01*
%TO.C,D1*%
X117133742Y-51173028D02*
X117133742Y-50573028D01*
X117276600Y-50573028D01*
X117362314Y-50601600D01*
X117419457Y-50658742D01*
X117448028Y-50715885D01*
X117476600Y-50830171D01*
X117476600Y-50915885D01*
X117448028Y-51030171D01*
X117419457Y-51087314D01*
X117362314Y-51144457D01*
X117276600Y-51173028D01*
X117133742Y-51173028D01*
X118048028Y-51173028D02*
X117705171Y-51173028D01*
X117876600Y-51173028D02*
X117876600Y-50573028D01*
X117819457Y-50658742D01*
X117762314Y-50715885D01*
X117705171Y-50744457D01*
%TO.C,Q1*%
X136239257Y-86790171D02*
X136182114Y-86761600D01*
X136124971Y-86704457D01*
X136039257Y-86618742D01*
X135982114Y-86590171D01*
X135924971Y-86590171D01*
X135953542Y-86733028D02*
X135896400Y-86704457D01*
X135839257Y-86647314D01*
X135810685Y-86533028D01*
X135810685Y-86333028D01*
X135839257Y-86218742D01*
X135896400Y-86161600D01*
X135953542Y-86133028D01*
X136067828Y-86133028D01*
X136124971Y-86161600D01*
X136182114Y-86218742D01*
X136210685Y-86333028D01*
X136210685Y-86533028D01*
X136182114Y-86647314D01*
X136124971Y-86704457D01*
X136067828Y-86733028D01*
X135953542Y-86733028D01*
X136782114Y-86733028D02*
X136439257Y-86733028D01*
X136610685Y-86733028D02*
X136610685Y-86133028D01*
X136553542Y-86218742D01*
X136496400Y-86275885D01*
X136439257Y-86304457D01*
%TO.C,R10*%
X130475085Y-64025428D02*
X130275085Y-63739714D01*
X130132228Y-64025428D02*
X130132228Y-63425428D01*
X130360800Y-63425428D01*
X130417942Y-63454000D01*
X130446514Y-63482571D01*
X130475085Y-63539714D01*
X130475085Y-63625428D01*
X130446514Y-63682571D01*
X130417942Y-63711142D01*
X130360800Y-63739714D01*
X130132228Y-63739714D01*
X131046514Y-64025428D02*
X130703657Y-64025428D01*
X130875085Y-64025428D02*
X130875085Y-63425428D01*
X130817942Y-63511142D01*
X130760800Y-63568285D01*
X130703657Y-63596857D01*
X131417942Y-63425428D02*
X131475085Y-63425428D01*
X131532228Y-63454000D01*
X131560800Y-63482571D01*
X131589371Y-63539714D01*
X131617942Y-63654000D01*
X131617942Y-63796857D01*
X131589371Y-63911142D01*
X131560800Y-63968285D01*
X131532228Y-63996857D01*
X131475085Y-64025428D01*
X131417942Y-64025428D01*
X131360800Y-63996857D01*
X131332228Y-63968285D01*
X131303657Y-63911142D01*
X131275085Y-63796857D01*
X131275085Y-63654000D01*
X131303657Y-63539714D01*
X131332228Y-63482571D01*
X131360800Y-63454000D01*
X131417942Y-63425428D01*
%TO.C,D2*%
X124321942Y-51122228D02*
X124321942Y-50522228D01*
X124464800Y-50522228D01*
X124550514Y-50550800D01*
X124607657Y-50607942D01*
X124636228Y-50665085D01*
X124664800Y-50779371D01*
X124664800Y-50865085D01*
X124636228Y-50979371D01*
X124607657Y-51036514D01*
X124550514Y-51093657D01*
X124464800Y-51122228D01*
X124321942Y-51122228D01*
X124893371Y-50579371D02*
X124921942Y-50550800D01*
X124979085Y-50522228D01*
X125121942Y-50522228D01*
X125179085Y-50550800D01*
X125207657Y-50579371D01*
X125236228Y-50636514D01*
X125236228Y-50693657D01*
X125207657Y-50779371D01*
X124864800Y-51122228D01*
X125236228Y-51122228D01*
%TO.C,D7*%
X152185642Y-89425428D02*
X152185642Y-88825428D01*
X152328500Y-88825428D01*
X152414214Y-88854000D01*
X152471357Y-88911142D01*
X152499928Y-88968285D01*
X152528500Y-89082571D01*
X152528500Y-89168285D01*
X152499928Y-89282571D01*
X152471357Y-89339714D01*
X152414214Y-89396857D01*
X152328500Y-89425428D01*
X152185642Y-89425428D01*
X152728500Y-88825428D02*
X153128500Y-88825428D01*
X152871357Y-89425428D01*
%TO.C,C11*%
X152039685Y-87742685D02*
X152011114Y-87771257D01*
X151925400Y-87799828D01*
X151868257Y-87799828D01*
X151782542Y-87771257D01*
X151725400Y-87714114D01*
X151696828Y-87656971D01*
X151668257Y-87542685D01*
X151668257Y-87456971D01*
X151696828Y-87342685D01*
X151725400Y-87285542D01*
X151782542Y-87228400D01*
X151868257Y-87199828D01*
X151925400Y-87199828D01*
X152011114Y-87228400D01*
X152039685Y-87256971D01*
X152611114Y-87799828D02*
X152268257Y-87799828D01*
X152439685Y-87799828D02*
X152439685Y-87199828D01*
X152382542Y-87285542D01*
X152325400Y-87342685D01*
X152268257Y-87371257D01*
X153182542Y-87799828D02*
X152839685Y-87799828D01*
X153011114Y-87799828D02*
X153011114Y-87199828D01*
X152953971Y-87285542D01*
X152896828Y-87342685D01*
X152839685Y-87371257D01*
%TO.C,U1*%
X137109257Y-57278628D02*
X137109257Y-57764342D01*
X137137828Y-57821485D01*
X137166400Y-57850057D01*
X137223542Y-57878628D01*
X137337828Y-57878628D01*
X137394971Y-57850057D01*
X137423542Y-57821485D01*
X137452114Y-57764342D01*
X137452114Y-57278628D01*
X138052114Y-57878628D02*
X137709257Y-57878628D01*
X137880685Y-57878628D02*
X137880685Y-57278628D01*
X137823542Y-57364342D01*
X137766400Y-57421485D01*
X137709257Y-57450057D01*
%TO.C,R3*%
X130481400Y-64889028D02*
X130281400Y-64603314D01*
X130138542Y-64889028D02*
X130138542Y-64289028D01*
X130367114Y-64289028D01*
X130424257Y-64317600D01*
X130452828Y-64346171D01*
X130481400Y-64403314D01*
X130481400Y-64489028D01*
X130452828Y-64546171D01*
X130424257Y-64574742D01*
X130367114Y-64603314D01*
X130138542Y-64603314D01*
X130681400Y-64289028D02*
X131052828Y-64289028D01*
X130852828Y-64517600D01*
X130938542Y-64517600D01*
X130995685Y-64546171D01*
X131024257Y-64574742D01*
X131052828Y-64631885D01*
X131052828Y-64774742D01*
X131024257Y-64831885D01*
X130995685Y-64860457D01*
X130938542Y-64889028D01*
X130767114Y-64889028D01*
X130709971Y-64860457D01*
X130681400Y-64831885D01*
%TO.C,R1*%
X142470200Y-86504428D02*
X142270200Y-86218714D01*
X142127342Y-86504428D02*
X142127342Y-85904428D01*
X142355914Y-85904428D01*
X142413057Y-85933000D01*
X142441628Y-85961571D01*
X142470200Y-86018714D01*
X142470200Y-86104428D01*
X142441628Y-86161571D01*
X142413057Y-86190142D01*
X142355914Y-86218714D01*
X142127342Y-86218714D01*
X143041628Y-86504428D02*
X142698771Y-86504428D01*
X142870200Y-86504428D02*
X142870200Y-85904428D01*
X142813057Y-85990142D01*
X142755914Y-86047285D01*
X142698771Y-86075857D01*
%TO.C,C10*%
X143962485Y-63600285D02*
X143933914Y-63628857D01*
X143848200Y-63657428D01*
X143791057Y-63657428D01*
X143705342Y-63628857D01*
X143648200Y-63571714D01*
X143619628Y-63514571D01*
X143591057Y-63400285D01*
X143591057Y-63314571D01*
X143619628Y-63200285D01*
X143648200Y-63143142D01*
X143705342Y-63086000D01*
X143791057Y-63057428D01*
X143848200Y-63057428D01*
X143933914Y-63086000D01*
X143962485Y-63114571D01*
X144533914Y-63657428D02*
X144191057Y-63657428D01*
X144362485Y-63657428D02*
X144362485Y-63057428D01*
X144305342Y-63143142D01*
X144248200Y-63200285D01*
X144191057Y-63228857D01*
X144905342Y-63057428D02*
X144962485Y-63057428D01*
X145019628Y-63086000D01*
X145048200Y-63114571D01*
X145076771Y-63171714D01*
X145105342Y-63286000D01*
X145105342Y-63428857D01*
X145076771Y-63543142D01*
X145048200Y-63600285D01*
X145019628Y-63628857D01*
X144962485Y-63657428D01*
X144905342Y-63657428D01*
X144848200Y-63628857D01*
X144819628Y-63600285D01*
X144791057Y-63543142D01*
X144762485Y-63428857D01*
X144762485Y-63286000D01*
X144791057Y-63171714D01*
X144819628Y-63114571D01*
X144848200Y-63086000D01*
X144905342Y-63057428D01*
%TO.C,R4*%
X139727000Y-59834428D02*
X139527000Y-59548714D01*
X139384142Y-59834428D02*
X139384142Y-59234428D01*
X139612714Y-59234428D01*
X139669857Y-59263000D01*
X139698428Y-59291571D01*
X139727000Y-59348714D01*
X139727000Y-59434428D01*
X139698428Y-59491571D01*
X139669857Y-59520142D01*
X139612714Y-59548714D01*
X139384142Y-59548714D01*
X140241285Y-59434428D02*
X140241285Y-59834428D01*
X140098428Y-59205857D02*
X139955571Y-59634428D01*
X140327000Y-59634428D01*
%TO.C,U2*%
X149402857Y-83491428D02*
X149402857Y-83977142D01*
X149431428Y-84034285D01*
X149460000Y-84062857D01*
X149517142Y-84091428D01*
X149631428Y-84091428D01*
X149688571Y-84062857D01*
X149717142Y-84034285D01*
X149745714Y-83977142D01*
X149745714Y-83491428D01*
X150002857Y-83548571D02*
X150031428Y-83520000D01*
X150088571Y-83491428D01*
X150231428Y-83491428D01*
X150288571Y-83520000D01*
X150317142Y-83548571D01*
X150345714Y-83605714D01*
X150345714Y-83662857D01*
X150317142Y-83748571D01*
X149974285Y-84091428D01*
X150345714Y-84091428D01*
%TO.C,J5*%
X121085000Y-101804828D02*
X121085000Y-102233400D01*
X121056428Y-102319114D01*
X120999285Y-102376257D01*
X120913571Y-102404828D01*
X120856428Y-102404828D01*
X121656428Y-101804828D02*
X121370714Y-101804828D01*
X121342142Y-102090542D01*
X121370714Y-102061971D01*
X121427857Y-102033400D01*
X121570714Y-102033400D01*
X121627857Y-102061971D01*
X121656428Y-102090542D01*
X121685000Y-102147685D01*
X121685000Y-102290542D01*
X121656428Y-102347685D01*
X121627857Y-102376257D01*
X121570714Y-102404828D01*
X121427857Y-102404828D01*
X121370714Y-102376257D01*
X121342142Y-102347685D01*
%TO.C,R5*%
X123869000Y-84916428D02*
X123669000Y-84630714D01*
X123526142Y-84916428D02*
X123526142Y-84316428D01*
X123754714Y-84316428D01*
X123811857Y-84345000D01*
X123840428Y-84373571D01*
X123869000Y-84430714D01*
X123869000Y-84516428D01*
X123840428Y-84573571D01*
X123811857Y-84602142D01*
X123754714Y-84630714D01*
X123526142Y-84630714D01*
X124411857Y-84316428D02*
X124126142Y-84316428D01*
X124097571Y-84602142D01*
X124126142Y-84573571D01*
X124183285Y-84545000D01*
X124326142Y-84545000D01*
X124383285Y-84573571D01*
X124411857Y-84602142D01*
X124440428Y-84659285D01*
X124440428Y-84802142D01*
X124411857Y-84859285D01*
X124383285Y-84887857D01*
X124326142Y-84916428D01*
X124183285Y-84916428D01*
X124126142Y-84887857D01*
X124097571Y-84859285D01*
%TO.C,D5*%
X116803542Y-97680428D02*
X116803542Y-97080428D01*
X116946400Y-97080428D01*
X117032114Y-97109000D01*
X117089257Y-97166142D01*
X117117828Y-97223285D01*
X117146400Y-97337571D01*
X117146400Y-97423285D01*
X117117828Y-97537571D01*
X117089257Y-97594714D01*
X117032114Y-97651857D01*
X116946400Y-97680428D01*
X116803542Y-97680428D01*
X117689257Y-97080428D02*
X117403542Y-97080428D01*
X117374971Y-97366142D01*
X117403542Y-97337571D01*
X117460685Y-97309000D01*
X117603542Y-97309000D01*
X117660685Y-97337571D01*
X117689257Y-97366142D01*
X117717828Y-97423285D01*
X117717828Y-97566142D01*
X117689257Y-97623285D01*
X117660685Y-97651857D01*
X117603542Y-97680428D01*
X117460685Y-97680428D01*
X117403542Y-97651857D01*
X117374971Y-97623285D01*
%TO.C,R2*%
X150268000Y-86408928D02*
X150068000Y-86123214D01*
X149925142Y-86408928D02*
X149925142Y-85808928D01*
X150153714Y-85808928D01*
X150210857Y-85837500D01*
X150239428Y-85866071D01*
X150268000Y-85923214D01*
X150268000Y-86008928D01*
X150239428Y-86066071D01*
X150210857Y-86094642D01*
X150153714Y-86123214D01*
X149925142Y-86123214D01*
X150496571Y-85866071D02*
X150525142Y-85837500D01*
X150582285Y-85808928D01*
X150725142Y-85808928D01*
X150782285Y-85837500D01*
X150810857Y-85866071D01*
X150839428Y-85923214D01*
X150839428Y-85980357D01*
X150810857Y-86066071D01*
X150468000Y-86408928D01*
X150839428Y-86408928D01*
%TO.C,C5*%
X141149400Y-59777285D02*
X141120828Y-59805857D01*
X141035114Y-59834428D01*
X140977971Y-59834428D01*
X140892257Y-59805857D01*
X140835114Y-59748714D01*
X140806542Y-59691571D01*
X140777971Y-59577285D01*
X140777971Y-59491571D01*
X140806542Y-59377285D01*
X140835114Y-59320142D01*
X140892257Y-59263000D01*
X140977971Y-59234428D01*
X141035114Y-59234428D01*
X141120828Y-59263000D01*
X141149400Y-59291571D01*
X141692257Y-59234428D02*
X141406542Y-59234428D01*
X141377971Y-59520142D01*
X141406542Y-59491571D01*
X141463685Y-59463000D01*
X141606542Y-59463000D01*
X141663685Y-59491571D01*
X141692257Y-59520142D01*
X141720828Y-59577285D01*
X141720828Y-59720142D01*
X141692257Y-59777285D01*
X141663685Y-59805857D01*
X141606542Y-59834428D01*
X141463685Y-59834428D01*
X141406542Y-59805857D01*
X141377971Y-59777285D01*
%TO.C,C3*%
X129663200Y-58659685D02*
X129634628Y-58688257D01*
X129548914Y-58716828D01*
X129491771Y-58716828D01*
X129406057Y-58688257D01*
X129348914Y-58631114D01*
X129320342Y-58573971D01*
X129291771Y-58459685D01*
X129291771Y-58373971D01*
X129320342Y-58259685D01*
X129348914Y-58202542D01*
X129406057Y-58145400D01*
X129491771Y-58116828D01*
X129548914Y-58116828D01*
X129634628Y-58145400D01*
X129663200Y-58173971D01*
X129863200Y-58116828D02*
X130234628Y-58116828D01*
X130034628Y-58345400D01*
X130120342Y-58345400D01*
X130177485Y-58373971D01*
X130206057Y-58402542D01*
X130234628Y-58459685D01*
X130234628Y-58602542D01*
X130206057Y-58659685D01*
X130177485Y-58688257D01*
X130120342Y-58716828D01*
X129948914Y-58716828D01*
X129891771Y-58688257D01*
X129863200Y-58659685D01*
%TO.C,J1*%
X150650600Y-101525428D02*
X150650600Y-101954000D01*
X150622028Y-102039714D01*
X150564885Y-102096857D01*
X150479171Y-102125428D01*
X150422028Y-102125428D01*
X151250600Y-102125428D02*
X150907742Y-102125428D01*
X151079171Y-102125428D02*
X151079171Y-101525428D01*
X151022028Y-101611142D01*
X150964885Y-101668285D01*
X150907742Y-101696857D01*
%TO.C,J3*%
X116589200Y-81916628D02*
X116589200Y-82345200D01*
X116560628Y-82430914D01*
X116503485Y-82488057D01*
X116417771Y-82516628D01*
X116360628Y-82516628D01*
X116817771Y-81916628D02*
X117189200Y-81916628D01*
X116989200Y-82145200D01*
X117074914Y-82145200D01*
X117132057Y-82173771D01*
X117160628Y-82202342D01*
X117189200Y-82259485D01*
X117189200Y-82402342D01*
X117160628Y-82459485D01*
X117132057Y-82488057D01*
X117074914Y-82516628D01*
X116903485Y-82516628D01*
X116846342Y-82488057D01*
X116817771Y-82459485D01*
%TO.C,C4*%
X129186000Y-54202285D02*
X129157428Y-54230857D01*
X129071714Y-54259428D01*
X129014571Y-54259428D01*
X128928857Y-54230857D01*
X128871714Y-54173714D01*
X128843142Y-54116571D01*
X128814571Y-54002285D01*
X128814571Y-53916571D01*
X128843142Y-53802285D01*
X128871714Y-53745142D01*
X128928857Y-53688000D01*
X129014571Y-53659428D01*
X129071714Y-53659428D01*
X129157428Y-53688000D01*
X129186000Y-53716571D01*
X129700285Y-53859428D02*
X129700285Y-54259428D01*
X129557428Y-53630857D02*
X129414571Y-54059428D01*
X129786000Y-54059428D01*
%TO.C,C2*%
X119661000Y-56729285D02*
X119632428Y-56757857D01*
X119546714Y-56786428D01*
X119489571Y-56786428D01*
X119403857Y-56757857D01*
X119346714Y-56700714D01*
X119318142Y-56643571D01*
X119289571Y-56529285D01*
X119289571Y-56443571D01*
X119318142Y-56329285D01*
X119346714Y-56272142D01*
X119403857Y-56215000D01*
X119489571Y-56186428D01*
X119546714Y-56186428D01*
X119632428Y-56215000D01*
X119661000Y-56243571D01*
X119889571Y-56243571D02*
X119918142Y-56215000D01*
X119975285Y-56186428D01*
X120118142Y-56186428D01*
X120175285Y-56215000D01*
X120203857Y-56243571D01*
X120232428Y-56300714D01*
X120232428Y-56357857D01*
X120203857Y-56443571D01*
X119861000Y-56786428D01*
X120232428Y-56786428D01*
%TO.C,D3*%
X130240142Y-49852228D02*
X130240142Y-49252228D01*
X130383000Y-49252228D01*
X130468714Y-49280800D01*
X130525857Y-49337942D01*
X130554428Y-49395085D01*
X130583000Y-49509371D01*
X130583000Y-49595085D01*
X130554428Y-49709371D01*
X130525857Y-49766514D01*
X130468714Y-49823657D01*
X130383000Y-49852228D01*
X130240142Y-49852228D01*
X130783000Y-49252228D02*
X131154428Y-49252228D01*
X130954428Y-49480800D01*
X131040142Y-49480800D01*
X131097285Y-49509371D01*
X131125857Y-49537942D01*
X131154428Y-49595085D01*
X131154428Y-49737942D01*
X131125857Y-49795085D01*
X131097285Y-49823657D01*
X131040142Y-49852228D01*
X130868714Y-49852228D01*
X130811571Y-49823657D01*
X130783000Y-49795085D01*
%TO.C,R8*%
X152604800Y-91051028D02*
X152404800Y-90765314D01*
X152261942Y-91051028D02*
X152261942Y-90451028D01*
X152490514Y-90451028D01*
X152547657Y-90479600D01*
X152576228Y-90508171D01*
X152604800Y-90565314D01*
X152604800Y-90651028D01*
X152576228Y-90708171D01*
X152547657Y-90736742D01*
X152490514Y-90765314D01*
X152261942Y-90765314D01*
X152947657Y-90708171D02*
X152890514Y-90679600D01*
X152861942Y-90651028D01*
X152833371Y-90593885D01*
X152833371Y-90565314D01*
X152861942Y-90508171D01*
X152890514Y-90479600D01*
X152947657Y-90451028D01*
X153061942Y-90451028D01*
X153119085Y-90479600D01*
X153147657Y-90508171D01*
X153176228Y-90565314D01*
X153176228Y-90593885D01*
X153147657Y-90651028D01*
X153119085Y-90679600D01*
X153061942Y-90708171D01*
X152947657Y-90708171D01*
X152890514Y-90736742D01*
X152861942Y-90765314D01*
X152833371Y-90822457D01*
X152833371Y-90936742D01*
X152861942Y-90993885D01*
X152890514Y-91022457D01*
X152947657Y-91051028D01*
X153061942Y-91051028D01*
X153119085Y-91022457D01*
X153147657Y-90993885D01*
X153176228Y-90936742D01*
X153176228Y-90822457D01*
X153147657Y-90765314D01*
X153119085Y-90736742D01*
X153061942Y-90708171D01*
%TO.C,J2*%
X116487600Y-69750028D02*
X116487600Y-70178600D01*
X116459028Y-70264314D01*
X116401885Y-70321457D01*
X116316171Y-70350028D01*
X116259028Y-70350028D01*
X116744742Y-69807171D02*
X116773314Y-69778600D01*
X116830457Y-69750028D01*
X116973314Y-69750028D01*
X117030457Y-69778600D01*
X117059028Y-69807171D01*
X117087600Y-69864314D01*
X117087600Y-69921457D01*
X117059028Y-70007171D01*
X116716171Y-70350028D01*
X117087600Y-70350028D01*
%TO.C,C7*%
X146153200Y-57415085D02*
X146124628Y-57443657D01*
X146038914Y-57472228D01*
X145981771Y-57472228D01*
X145896057Y-57443657D01*
X145838914Y-57386514D01*
X145810342Y-57329371D01*
X145781771Y-57215085D01*
X145781771Y-57129371D01*
X145810342Y-57015085D01*
X145838914Y-56957942D01*
X145896057Y-56900800D01*
X145981771Y-56872228D01*
X146038914Y-56872228D01*
X146124628Y-56900800D01*
X146153200Y-56929371D01*
X146353200Y-56872228D02*
X146753200Y-56872228D01*
X146496057Y-57472228D01*
%TO.C,C8*%
X152427000Y-84618485D02*
X152398428Y-84647057D01*
X152312714Y-84675628D01*
X152255571Y-84675628D01*
X152169857Y-84647057D01*
X152112714Y-84589914D01*
X152084142Y-84532771D01*
X152055571Y-84418485D01*
X152055571Y-84332771D01*
X152084142Y-84218485D01*
X152112714Y-84161342D01*
X152169857Y-84104200D01*
X152255571Y-84075628D01*
X152312714Y-84075628D01*
X152398428Y-84104200D01*
X152427000Y-84132771D01*
X152769857Y-84332771D02*
X152712714Y-84304200D01*
X152684142Y-84275628D01*
X152655571Y-84218485D01*
X152655571Y-84189914D01*
X152684142Y-84132771D01*
X152712714Y-84104200D01*
X152769857Y-84075628D01*
X152884142Y-84075628D01*
X152941285Y-84104200D01*
X152969857Y-84132771D01*
X152998428Y-84189914D01*
X152998428Y-84218485D01*
X152969857Y-84275628D01*
X152941285Y-84304200D01*
X152884142Y-84332771D01*
X152769857Y-84332771D01*
X152712714Y-84361342D01*
X152684142Y-84389914D01*
X152655571Y-84447057D01*
X152655571Y-84561342D01*
X152684142Y-84618485D01*
X152712714Y-84647057D01*
X152769857Y-84675628D01*
X152884142Y-84675628D01*
X152941285Y-84647057D01*
X152969857Y-84618485D01*
X152998428Y-84561342D01*
X152998428Y-84447057D01*
X152969857Y-84389914D01*
X152941285Y-84361342D01*
X152884142Y-84332771D01*
%TO.C,D6*%
X157722942Y-59072428D02*
X157722942Y-58472428D01*
X157865800Y-58472428D01*
X157951514Y-58501000D01*
X158008657Y-58558142D01*
X158037228Y-58615285D01*
X158065800Y-58729571D01*
X158065800Y-58815285D01*
X158037228Y-58929571D01*
X158008657Y-58986714D01*
X157951514Y-59043857D01*
X157865800Y-59072428D01*
X157722942Y-59072428D01*
X158580085Y-58472428D02*
X158465800Y-58472428D01*
X158408657Y-58501000D01*
X158380085Y-58529571D01*
X158322942Y-58615285D01*
X158294371Y-58729571D01*
X158294371Y-58958142D01*
X158322942Y-59015285D01*
X158351514Y-59043857D01*
X158408657Y-59072428D01*
X158522942Y-59072428D01*
X158580085Y-59043857D01*
X158608657Y-59015285D01*
X158637228Y-58958142D01*
X158637228Y-58815285D01*
X158608657Y-58758142D01*
X158580085Y-58729571D01*
X158522942Y-58701000D01*
X158408657Y-58701000D01*
X158351514Y-58729571D01*
X158322942Y-58758142D01*
X158294371Y-58815285D01*
%TO.C,C1*%
X146810000Y-84545785D02*
X146781428Y-84574357D01*
X146695714Y-84602928D01*
X146638571Y-84602928D01*
X146552857Y-84574357D01*
X146495714Y-84517214D01*
X146467142Y-84460071D01*
X146438571Y-84345785D01*
X146438571Y-84260071D01*
X146467142Y-84145785D01*
X146495714Y-84088642D01*
X146552857Y-84031500D01*
X146638571Y-84002928D01*
X146695714Y-84002928D01*
X146781428Y-84031500D01*
X146810000Y-84060071D01*
X147381428Y-84602928D02*
X147038571Y-84602928D01*
X147210000Y-84602928D02*
X147210000Y-84002928D01*
X147152857Y-84088642D01*
X147095714Y-84145785D01*
X147038571Y-84174357D01*
%TO.C,R7*%
X142825800Y-63644428D02*
X142625800Y-63358714D01*
X142482942Y-63644428D02*
X142482942Y-63044428D01*
X142711514Y-63044428D01*
X142768657Y-63073000D01*
X142797228Y-63101571D01*
X142825800Y-63158714D01*
X142825800Y-63244428D01*
X142797228Y-63301571D01*
X142768657Y-63330142D01*
X142711514Y-63358714D01*
X142482942Y-63358714D01*
X143025800Y-63044428D02*
X143425800Y-63044428D01*
X143168657Y-63644428D01*
%TO.C,L1*%
X150420400Y-50284028D02*
X150134685Y-50284028D01*
X150134685Y-49684028D01*
X150934685Y-50284028D02*
X150591828Y-50284028D01*
X150763257Y-50284028D02*
X150763257Y-49684028D01*
X150706114Y-49769742D01*
X150648971Y-49826885D01*
X150591828Y-49855457D01*
%TO.C,R9*%
X128144600Y-58742228D02*
X127944600Y-58456514D01*
X127801742Y-58742228D02*
X127801742Y-58142228D01*
X128030314Y-58142228D01*
X128087457Y-58170800D01*
X128116028Y-58199371D01*
X128144600Y-58256514D01*
X128144600Y-58342228D01*
X128116028Y-58399371D01*
X128087457Y-58427942D01*
X128030314Y-58456514D01*
X127801742Y-58456514D01*
X128430314Y-58742228D02*
X128544600Y-58742228D01*
X128601742Y-58713657D01*
X128630314Y-58685085D01*
X128687457Y-58599371D01*
X128716028Y-58485085D01*
X128716028Y-58256514D01*
X128687457Y-58199371D01*
X128658885Y-58170800D01*
X128601742Y-58142228D01*
X128487457Y-58142228D01*
X128430314Y-58170800D01*
X128401742Y-58199371D01*
X128373171Y-58256514D01*
X128373171Y-58399371D01*
X128401742Y-58456514D01*
X128430314Y-58485085D01*
X128487457Y-58513657D01*
X128601742Y-58513657D01*
X128658885Y-58485085D01*
X128687457Y-58456514D01*
X128716028Y-58399371D01*
%TO.C,C9*%
X152579400Y-86167885D02*
X152550828Y-86196457D01*
X152465114Y-86225028D01*
X152407971Y-86225028D01*
X152322257Y-86196457D01*
X152265114Y-86139314D01*
X152236542Y-86082171D01*
X152207971Y-85967885D01*
X152207971Y-85882171D01*
X152236542Y-85767885D01*
X152265114Y-85710742D01*
X152322257Y-85653600D01*
X152407971Y-85625028D01*
X152465114Y-85625028D01*
X152550828Y-85653600D01*
X152579400Y-85682171D01*
X152865114Y-86225028D02*
X152979400Y-86225028D01*
X153036542Y-86196457D01*
X153065114Y-86167885D01*
X153122257Y-86082171D01*
X153150828Y-85967885D01*
X153150828Y-85739314D01*
X153122257Y-85682171D01*
X153093685Y-85653600D01*
X153036542Y-85625028D01*
X152922257Y-85625028D01*
X152865114Y-85653600D01*
X152836542Y-85682171D01*
X152807971Y-85739314D01*
X152807971Y-85882171D01*
X152836542Y-85939314D01*
X152865114Y-85967885D01*
X152922257Y-85996457D01*
X153036542Y-85996457D01*
X153093685Y-85967885D01*
X153122257Y-85939314D01*
X153150828Y-85882171D01*
%TO.C,R6*%
X141327200Y-58742228D02*
X141127200Y-58456514D01*
X140984342Y-58742228D02*
X140984342Y-58142228D01*
X141212914Y-58142228D01*
X141270057Y-58170800D01*
X141298628Y-58199371D01*
X141327200Y-58256514D01*
X141327200Y-58342228D01*
X141298628Y-58399371D01*
X141270057Y-58427942D01*
X141212914Y-58456514D01*
X140984342Y-58456514D01*
X141841485Y-58142228D02*
X141727200Y-58142228D01*
X141670057Y-58170800D01*
X141641485Y-58199371D01*
X141584342Y-58285085D01*
X141555771Y-58399371D01*
X141555771Y-58627942D01*
X141584342Y-58685085D01*
X141612914Y-58713657D01*
X141670057Y-58742228D01*
X141784342Y-58742228D01*
X141841485Y-58713657D01*
X141870057Y-58685085D01*
X141898628Y-58627942D01*
X141898628Y-58485085D01*
X141870057Y-58427942D01*
X141841485Y-58399371D01*
X141784342Y-58370800D01*
X141670057Y-58370800D01*
X141612914Y-58399371D01*
X141584342Y-58427942D01*
X141555771Y-58485085D01*
D13*
%TO.C,J4*%
X105572800Y-58127800D02*
X105572800Y-58627800D01*
X106312800Y-58127800D02*
X105572800Y-58127800D01*
X112560800Y-62621800D02*
X112453800Y-62514800D01*
X109898800Y-65040800D02*
X109518800Y-64660800D01*
X112826800Y-62355800D02*
X112719800Y-62248800D01*
X109625800Y-59685800D02*
X109518800Y-59579800D01*
X117132800Y-68647800D02*
X105812800Y-68647800D01*
X109891800Y-59419800D02*
X109784800Y-59313800D01*
X108872800Y-58367800D02*
X108872800Y-68647800D01*
X117132800Y-58367800D02*
X105812800Y-58367800D01*
X110180800Y-64789800D02*
X109784800Y-64394800D01*
X115072800Y-58367800D02*
X115072800Y-68647800D01*
X106372800Y-58367800D02*
X106372800Y-68647800D01*
X117132800Y-58367800D02*
X117132800Y-68647800D01*
X112560800Y-67701800D02*
X112164800Y-67306800D01*
X105812800Y-58367800D02*
X105812800Y-68647800D01*
X112826800Y-67435800D02*
X112446800Y-67055800D01*
X113352800Y-66047800D02*
G75*
G03*
X113352800Y-66047800I-2180000J0D01*
G01*
X113352800Y-60967800D02*
G75*
G03*
X113352800Y-60967800I-2180000J0D01*
G01*
%TO.C,C6*%
X140334420Y-64518000D02*
X140615580Y-64518000D01*
X140334420Y-63498000D02*
X140615580Y-63498000D01*
%TO.C,D1*%
X121002000Y-51436000D02*
X115602000Y-51436000D01*
X121002000Y-54736000D02*
X115602000Y-54736000D01*
X121002000Y-54736000D02*
X121002000Y-51436000D01*
%TO.C,Q1*%
X125182000Y-88168000D02*
X135422000Y-88168000D01*
X132153000Y-83527000D02*
X132153000Y-85037000D01*
X125182000Y-83527000D02*
X135422000Y-83527000D01*
X125182000Y-85037000D02*
X135422000Y-85037000D01*
X135422000Y-83527000D02*
X135422000Y-88168000D01*
X128452000Y-83527000D02*
X128452000Y-85037000D01*
X125182000Y-83527000D02*
X125182000Y-88168000D01*
%TO.C,R10*%
X128634258Y-63311300D02*
X128159742Y-63311300D01*
X128634258Y-62266300D02*
X128159742Y-62266300D01*
%TO.C,D2*%
X121568000Y-51436000D02*
X121568000Y-54736000D01*
X121568000Y-54736000D02*
X126968000Y-54736000D01*
X121568000Y-51436000D02*
X126968000Y-51436000D01*
%TO.C,D7*%
X155740000Y-88419000D02*
X153455000Y-88419000D01*
X153455000Y-89889000D02*
X155740000Y-89889000D01*
X153455000Y-88419000D02*
X153455000Y-89889000D01*
%TO.C,C11*%
X154824820Y-88038400D02*
X155105980Y-88038400D01*
X154824820Y-87018400D02*
X155105980Y-87018400D01*
D12*
%TO.C,U1*%
X132799000Y-58054000D02*
X131399000Y-58054000D01*
X132799000Y-58004000D02*
X132799000Y-58054000D01*
X136949000Y-58004000D02*
X136949000Y-58149000D01*
X132799000Y-63154000D02*
X136949000Y-63154000D01*
X136949000Y-63154000D02*
X136949000Y-63009000D01*
X132799000Y-63154000D02*
X132799000Y-63009000D01*
X132799000Y-58004000D02*
X136949000Y-58004000D01*
D13*
%TO.C,R3*%
X128634258Y-63866500D02*
X128159742Y-63866500D01*
X128634258Y-64911500D02*
X128159742Y-64911500D01*
%TO.C,R1*%
X144479742Y-85552000D02*
X144954258Y-85552000D01*
X144479742Y-86597000D02*
X144954258Y-86597000D01*
%TO.C,C10*%
X143838200Y-61327420D02*
X143838200Y-61608580D01*
X144858200Y-61327420D02*
X144858200Y-61608580D01*
%TO.C,R4*%
X139177500Y-61230742D02*
X139177500Y-61705258D01*
X140222500Y-61230742D02*
X140222500Y-61705258D01*
%TO.C,U2*%
X156972000Y-66548000D02*
X156972000Y-81788000D01*
X122682000Y-65278000D02*
X155702000Y-65278000D01*
X122682000Y-83058000D02*
X155702000Y-83058000D01*
X121412000Y-66548000D02*
X121412000Y-81788000D01*
X121412000Y-81788000D02*
G75*
G03*
X122682000Y-83058000I1270000J0D01*
G01*
X122682000Y-65278000D02*
G75*
G03*
X121412000Y-66548000I0J-1270000D01*
G01*
X155702000Y-83058000D02*
G75*
G03*
X156972000Y-81788000I1J1269999D01*
G01*
X156972000Y-66548000D02*
G75*
G03*
X155702000Y-65278000I-1269999J1D01*
G01*
%TO.C,J5*%
X122621000Y-90797394D02*
X132901000Y-90797394D01*
X132901000Y-90797394D02*
X132901000Y-102117394D01*
X122621000Y-92857394D02*
X132901000Y-92857394D01*
X129294000Y-98031394D02*
X128914000Y-98411394D01*
X123939000Y-98304394D02*
X123833000Y-98411394D01*
X123673000Y-98038394D02*
X123567000Y-98145394D01*
X122621000Y-101557394D02*
X132901000Y-101557394D01*
X122381000Y-101617394D02*
X122381000Y-102357394D01*
X122621000Y-102117394D02*
X132901000Y-102117394D01*
X131689000Y-95103394D02*
X131309000Y-95483394D01*
X122381000Y-102357394D02*
X122881000Y-102357394D01*
X129043000Y-97749394D02*
X128648000Y-98145394D01*
X122621000Y-99057394D02*
X132901000Y-99057394D01*
X122621000Y-90797394D02*
X122621000Y-102117394D01*
X126609000Y-95103394D02*
X126502000Y-95210394D01*
X126875000Y-95369394D02*
X126768000Y-95476394D01*
X131955000Y-95369394D02*
X131560000Y-95765394D01*
X127401000Y-96757394D02*
G75*
G03*
X127401000Y-96757394I-2180000J0D01*
G01*
X132481000Y-96757394D02*
G75*
G03*
X132481000Y-96757394I-2180000J0D01*
G01*
%TO.C,R5*%
X124491500Y-86439742D02*
X124491500Y-86914258D01*
X123446500Y-86439742D02*
X123446500Y-86914258D01*
%TO.C,D5*%
X118390400Y-98878600D02*
X118390400Y-93478600D01*
X118390400Y-98878600D02*
X121690400Y-98878600D01*
X121690400Y-98878600D02*
X121690400Y-93478600D01*
%TO.C,R2*%
X147844742Y-86597000D02*
X148319258Y-86597000D01*
X147844742Y-85552000D02*
X148319258Y-85552000D01*
%TO.C,C5*%
X141759400Y-61327420D02*
X141759400Y-61608580D01*
X140739400Y-61327420D02*
X140739400Y-61608580D01*
%TO.C,C3*%
X129360200Y-60336820D02*
X129360200Y-60617980D01*
X130380200Y-60336820D02*
X130380200Y-60617980D01*
%TO.C,J1*%
X149665000Y-90797394D02*
X149665000Y-102117394D01*
X134305000Y-101557394D02*
X149665000Y-101557394D01*
X134065000Y-101617394D02*
X134065000Y-102357394D01*
X135357000Y-98038394D02*
X135251000Y-98145394D01*
X134065000Y-102357394D02*
X134565000Y-102357394D01*
X146058000Y-98031394D02*
X145678000Y-98411394D01*
X134305000Y-90797394D02*
X149665000Y-90797394D01*
X135623000Y-98304394D02*
X135517000Y-98411394D01*
X138559000Y-95369394D02*
X138452000Y-95476394D01*
X143639000Y-95369394D02*
X143244000Y-95765394D01*
X143373000Y-95103394D02*
X142993000Y-95483394D01*
X140978000Y-98031394D02*
X140598000Y-98411394D01*
X148453000Y-95103394D02*
X148073000Y-95483394D01*
X148719000Y-95369394D02*
X148324000Y-95765394D01*
X134305000Y-90797394D02*
X134305000Y-102117394D01*
X138293000Y-95103394D02*
X138186000Y-95210394D01*
X134305000Y-99057394D02*
X149665000Y-99057394D01*
X134305000Y-102117394D02*
X149665000Y-102117394D01*
X140727000Y-97749394D02*
X140332000Y-98145394D01*
X145807000Y-97749394D02*
X145412000Y-98145394D01*
X134305000Y-92857394D02*
X149665000Y-92857394D01*
X144165000Y-96757394D02*
G75*
G03*
X144165000Y-96757394I-2180000J0D01*
G01*
X139085000Y-96757394D02*
G75*
G03*
X139085000Y-96757394I-2180000J0D01*
G01*
X149245000Y-96757394D02*
G75*
G03*
X149245000Y-96757394I-2180000J0D01*
G01*
%TO.C,J3*%
X109625800Y-84064800D02*
X109518800Y-83958800D01*
X106312800Y-82506800D02*
X105572800Y-82506800D01*
X108872800Y-82746800D02*
X108872800Y-93026800D01*
X105572800Y-82506800D02*
X105572800Y-83006800D01*
X117132800Y-82746800D02*
X117132800Y-93026800D01*
X115072800Y-82746800D02*
X115072800Y-93026800D01*
X112826800Y-91814800D02*
X112446800Y-91434800D01*
X117132800Y-93026800D02*
X105812800Y-93026800D01*
X110180800Y-89168800D02*
X109784800Y-88773800D01*
X109891800Y-83798800D02*
X109784800Y-83692800D01*
X112826800Y-86734800D02*
X112719800Y-86627800D01*
X105812800Y-82746800D02*
X105812800Y-93026800D01*
X109898800Y-89419800D02*
X109518800Y-89039800D01*
X112560800Y-87000800D02*
X112453800Y-86893800D01*
X106372800Y-82746800D02*
X106372800Y-93026800D01*
X117132800Y-82746800D02*
X105812800Y-82746800D01*
X112560800Y-92080800D02*
X112164800Y-91685800D01*
X113352800Y-85346800D02*
G75*
G03*
X113352800Y-85346800I-2180000J0D01*
G01*
X113352800Y-90426800D02*
G75*
G03*
X113352800Y-90426800I-2180000J0D01*
G01*
%TO.C,C4*%
X128776000Y-56033580D02*
X128776000Y-55752420D01*
X129796000Y-56033580D02*
X129796000Y-55752420D01*
%TO.C,C2*%
X126168800Y-62797949D02*
X123899800Y-62797949D01*
X126907800Y-60916949D02*
X118811800Y-60916949D01*
X125766800Y-63277949D02*
X119952800Y-63277949D01*
X121819800Y-62157949D02*
X119173800Y-62157949D01*
X124823800Y-63997949D02*
X120895800Y-63997949D01*
X126525800Y-62197949D02*
X123899800Y-62197949D01*
X126599800Y-62037949D02*
X123899800Y-62037949D01*
X125146800Y-63797949D02*
X120572800Y-63797949D01*
X126506800Y-62237949D02*
X123899800Y-62237949D01*
X126901800Y-60956949D02*
X118817800Y-60956949D01*
X121819800Y-61237949D02*
X118865800Y-61237949D01*
X124411800Y-64197949D02*
X121307800Y-64197949D01*
X121819800Y-61917949D02*
X119069800Y-61917949D01*
X121819800Y-61157949D02*
X118849800Y-61157949D01*
X121819800Y-61997949D02*
X119102800Y-61997949D01*
X121819800Y-61837949D02*
X119038800Y-61837949D01*
X121819800Y-61637949D02*
X118970800Y-61637949D01*
X126924800Y-60756949D02*
X118794800Y-60756949D01*
X124504800Y-64157949D02*
X121214800Y-64157949D01*
X124893800Y-63957949D02*
X120825800Y-63957949D01*
X126876800Y-61117949D02*
X123899800Y-61117949D01*
X126581800Y-62077949D02*
X123899800Y-62077949D01*
X125463800Y-63557949D02*
X120255800Y-63557949D01*
X121819800Y-61877949D02*
X119054800Y-61877949D01*
X126303800Y-62597949D02*
X123899800Y-62597949D01*
X121819800Y-61757949D02*
X119009800Y-61757949D01*
X121819800Y-62397949D02*
X119297800Y-62397949D01*
X126465800Y-62317949D02*
X123899800Y-62317949D01*
X126939800Y-60436949D02*
X118779800Y-60436949D01*
X121819800Y-62717949D02*
X119494800Y-62717949D01*
X125574800Y-56387251D02*
X124774800Y-56387251D01*
X126328800Y-62557949D02*
X123899800Y-62557949D01*
X126722800Y-61717949D02*
X123899800Y-61717949D01*
X125842800Y-63197949D02*
X119876800Y-63197949D01*
X121819800Y-62317949D02*
X119253800Y-62317949D01*
X125313800Y-63677949D02*
X120405800Y-63677949D01*
X126545800Y-62157949D02*
X123899800Y-62157949D01*
X121819800Y-62277949D02*
X119232800Y-62277949D01*
X126376800Y-62477949D02*
X123899800Y-62477949D01*
X126251800Y-62677949D02*
X123899800Y-62677949D01*
X126883800Y-61076949D02*
X118835800Y-61076949D01*
X125556800Y-63477949D02*
X120162800Y-63477949D01*
X126277800Y-62637949D02*
X123899800Y-62637949D01*
X121819800Y-61517949D02*
X118934800Y-61517949D01*
X126197800Y-62757949D02*
X123899800Y-62757949D01*
X126889800Y-61036949D02*
X118829800Y-61036949D01*
X121819800Y-62917949D02*
X119639800Y-62917949D01*
X121819800Y-62837949D02*
X119579800Y-62837949D01*
X125878800Y-63157949D02*
X123899800Y-63157949D01*
X125510800Y-63517949D02*
X120208800Y-63517949D01*
X121819800Y-63077949D02*
X119769800Y-63077949D01*
X123807800Y-64397949D02*
X121911800Y-64397949D01*
X121819800Y-61797949D02*
X119024800Y-61797949D01*
X126015800Y-62997949D02*
X123899800Y-62997949D01*
X126709800Y-61757949D02*
X123899800Y-61757949D01*
X126927800Y-60716949D02*
X118791800Y-60716949D01*
X121819800Y-62797949D02*
X119550800Y-62797949D01*
X126795800Y-61477949D02*
X123899800Y-61477949D01*
X121819800Y-61557949D02*
X118945800Y-61557949D01*
X126920800Y-60796949D02*
X118798800Y-60796949D01*
X121819800Y-62757949D02*
X119521800Y-62757949D01*
X124205800Y-64277949D02*
X121513800Y-64277949D01*
X121819800Y-62957949D02*
X119670800Y-62957949D01*
X126911800Y-60876949D02*
X118807800Y-60876949D01*
X126935800Y-60596949D02*
X118783800Y-60596949D01*
X126835800Y-61317949D02*
X123899800Y-61317949D01*
X121819800Y-61317949D02*
X118883800Y-61317949D01*
X126139800Y-62837949D02*
X123899800Y-62837949D01*
X126936800Y-60556949D02*
X118782800Y-60556949D01*
X121819800Y-61277949D02*
X118874800Y-61277949D01*
X126399800Y-62437949D02*
X123899800Y-62437949D01*
X124961800Y-63917949D02*
X120757800Y-63917949D01*
X121819800Y-62637949D02*
X119441800Y-62637949D01*
X126109800Y-62877949D02*
X123899800Y-62877949D01*
X125025800Y-63877949D02*
X120693800Y-63877949D01*
X123627800Y-64437949D02*
X122091800Y-64437949D01*
X126816800Y-61397949D02*
X123899800Y-61397949D01*
X124088800Y-64317949D02*
X121630800Y-64317949D01*
X125983800Y-63037949D02*
X123899800Y-63037949D01*
X124590800Y-64117949D02*
X121128800Y-64117949D01*
X121819800Y-62557949D02*
X119390800Y-62557949D01*
X121819800Y-61357949D02*
X118892800Y-61357949D01*
X121819800Y-63037949D02*
X119735800Y-63037949D01*
X126048800Y-62957949D02*
X123899800Y-62957949D01*
X126896800Y-60996949D02*
X118822800Y-60996949D01*
X126664800Y-61877949D02*
X123899800Y-61877949D01*
X126616800Y-61997949D02*
X123899800Y-61997949D01*
X121819800Y-62237949D02*
X119212800Y-62237949D01*
X126826800Y-61357949D02*
X123899800Y-61357949D01*
X126773800Y-61557949D02*
X123899800Y-61557949D01*
X125685800Y-63357949D02*
X120033800Y-63357949D01*
X121819800Y-61597949D02*
X118957800Y-61597949D01*
X123957800Y-64357949D02*
X121761800Y-64357949D01*
X121819800Y-62357949D02*
X119275800Y-62357949D01*
X125643800Y-63397949D02*
X120075800Y-63397949D01*
X121819800Y-61677949D02*
X118982800Y-61677949D01*
X126563800Y-62117949D02*
X123899800Y-62117949D01*
X126806800Y-61437949D02*
X123899800Y-61437949D01*
X125726800Y-63317949D02*
X119992800Y-63317949D01*
X121819800Y-62117949D02*
X119155800Y-62117949D01*
X125914800Y-63117949D02*
X123899800Y-63117949D01*
X126938800Y-60516949D02*
X118780800Y-60516949D01*
X126748800Y-61637949D02*
X123899800Y-61637949D01*
X125804800Y-63237949D02*
X119914800Y-63237949D01*
X126853800Y-61237949D02*
X123899800Y-61237949D01*
X121819800Y-62077949D02*
X119137800Y-62077949D01*
X125364800Y-63637949D02*
X120354800Y-63637949D01*
X121819800Y-62477949D02*
X119342800Y-62477949D01*
X121819800Y-62877949D02*
X119609800Y-62877949D01*
X121819800Y-61397949D02*
X118902800Y-61397949D01*
X125600800Y-63437949D02*
X120118800Y-63437949D01*
X125087800Y-63837949D02*
X120631800Y-63837949D01*
X126939800Y-60396949D02*
X118779800Y-60396949D01*
X121819800Y-61117949D02*
X118842800Y-61117949D01*
X126421800Y-62397949D02*
X123899800Y-62397949D01*
X126694800Y-61797949D02*
X123899800Y-61797949D01*
X126869800Y-61157949D02*
X123899800Y-61157949D01*
X126649800Y-61917949D02*
X123899800Y-61917949D01*
X126939800Y-60476949D02*
X118779800Y-60476949D01*
X125415800Y-63597949D02*
X120303800Y-63597949D01*
X121819800Y-63157949D02*
X119840800Y-63157949D01*
X126443800Y-62357949D02*
X123899800Y-62357949D01*
X126486800Y-62277949D02*
X123899800Y-62277949D01*
X121819800Y-62437949D02*
X119319800Y-62437949D01*
X121819800Y-62197949D02*
X119193800Y-62197949D01*
X126861800Y-61197949D02*
X123899800Y-61197949D01*
X124672800Y-64077949D02*
X121046800Y-64077949D01*
X126224800Y-62717949D02*
X123899800Y-62717949D01*
X126930800Y-60676949D02*
X118788800Y-60676949D01*
X121819800Y-62677949D02*
X119467800Y-62677949D01*
X121819800Y-61477949D02*
X118923800Y-61477949D01*
X121819800Y-63117949D02*
X119804800Y-63117949D01*
X126633800Y-61957949D02*
X123899800Y-61957949D01*
X121819800Y-62037949D02*
X119119800Y-62037949D01*
X126916800Y-60836949D02*
X118802800Y-60836949D01*
X126352800Y-62517949D02*
X123899800Y-62517949D01*
X121819800Y-61197949D02*
X118857800Y-61197949D01*
X121819800Y-61437949D02*
X118912800Y-61437949D01*
X121819800Y-62517949D02*
X119366800Y-62517949D01*
X126079800Y-62917949D02*
X123899800Y-62917949D01*
X121819800Y-62997949D02*
X119703800Y-62997949D01*
X124749800Y-64037949D02*
X120969800Y-64037949D01*
X126784800Y-61517949D02*
X123899800Y-61517949D01*
X126680800Y-61837949D02*
X123899800Y-61837949D01*
X121819800Y-62597949D02*
X119415800Y-62597949D01*
X125204800Y-63757949D02*
X120514800Y-63757949D01*
X121819800Y-61957949D02*
X119085800Y-61957949D01*
X125259800Y-63717949D02*
X120459800Y-63717949D01*
X126736800Y-61677949D02*
X123899800Y-61677949D01*
X125949800Y-63077949D02*
X123899800Y-63077949D01*
X125174800Y-55987251D02*
X125174800Y-56787251D01*
X124312800Y-64237949D02*
X121406800Y-64237949D01*
X126844800Y-61277949D02*
X123899800Y-61277949D01*
X126761800Y-61597949D02*
X123899800Y-61597949D01*
X121819800Y-61717949D02*
X118996800Y-61717949D01*
X126933800Y-60636949D02*
X118785800Y-60636949D01*
X123392800Y-64477949D02*
X122326800Y-64477949D01*
X126979800Y-60396949D02*
G75*
G03*
X126979800Y-60396949I-4120000J0D01*
G01*
%TO.C,D3*%
X139801000Y-56539200D02*
X131401000Y-56539200D01*
X139801000Y-50039200D02*
X131401000Y-50039200D01*
X139801000Y-50039200D02*
X139801000Y-56539200D01*
%TO.C,R8*%
X154753542Y-90257100D02*
X155228058Y-90257100D01*
X154753542Y-91302100D02*
X155228058Y-91302100D01*
%TO.C,J2*%
X109852800Y-77227800D02*
X109472800Y-76847800D01*
X105766800Y-70554800D02*
X105766800Y-80834800D01*
X117086800Y-70554800D02*
X105766800Y-70554800D01*
X108826800Y-70554800D02*
X108826800Y-80834800D01*
X109845800Y-71606800D02*
X109738800Y-71500800D01*
X106266800Y-70314800D02*
X105526800Y-70314800D01*
X105526800Y-70314800D02*
X105526800Y-70814800D01*
X110134800Y-76976800D02*
X109738800Y-76581800D01*
X106326800Y-70554800D02*
X106326800Y-80834800D01*
X109579800Y-71872800D02*
X109472800Y-71766800D01*
X112514800Y-74808800D02*
X112407800Y-74701800D01*
X112780800Y-74542800D02*
X112673800Y-74435800D01*
X115026800Y-70554800D02*
X115026800Y-80834800D01*
X117086800Y-70554800D02*
X117086800Y-80834800D01*
X117086800Y-80834800D02*
X105766800Y-80834800D01*
X112780800Y-79622800D02*
X112400800Y-79242800D01*
X112514800Y-79888800D02*
X112118800Y-79493800D01*
X113306800Y-78234800D02*
G75*
G03*
X113306800Y-78234800I-2180000J0D01*
G01*
X113306800Y-73154800D02*
G75*
G03*
X113306800Y-73154800I-2180000J0D01*
G01*
%TO.C,C7*%
X148464400Y-63128149D02*
X146195400Y-63128149D01*
X148464400Y-62768149D02*
X145964400Y-62768149D01*
X152108400Y-63888149D02*
X146900400Y-63888149D01*
X148464400Y-62448149D02*
X145800400Y-62448149D01*
X148464400Y-61448149D02*
X145487400Y-61448149D01*
X148464400Y-61728149D02*
X145547400Y-61728149D01*
X150037400Y-64808149D02*
X148971400Y-64808149D01*
X153581400Y-60887149D02*
X145427400Y-60887149D01*
X148464400Y-61488149D02*
X145494400Y-61488149D01*
X148464400Y-62168149D02*
X145683400Y-62168149D01*
X153190400Y-62488149D02*
X150544400Y-62488149D01*
X153521400Y-61448149D02*
X150544400Y-61448149D01*
X153584400Y-60727149D02*
X145424400Y-60727149D01*
X153506400Y-61528149D02*
X150544400Y-61528149D01*
X153461400Y-61728149D02*
X150544400Y-61728149D01*
X153261400Y-62328149D02*
X150544400Y-62328149D01*
X153583400Y-60847149D02*
X145425400Y-60847149D01*
X148464400Y-62608149D02*
X145877400Y-62608149D01*
X153151400Y-62568149D02*
X150544400Y-62568149D01*
X148464400Y-62128149D02*
X145669400Y-62128149D01*
X152559400Y-63448149D02*
X150544400Y-63448149D01*
X152973400Y-62888149D02*
X150544400Y-62888149D01*
X153471400Y-61688149D02*
X150544400Y-61688149D01*
X153325400Y-62168149D02*
X150544400Y-62168149D01*
X148464400Y-62328149D02*
X145747400Y-62328149D01*
X153584400Y-60807149D02*
X145424400Y-60807149D01*
X151958400Y-64008149D02*
X147050400Y-64008149D01*
X151149400Y-64488149D02*
X147859400Y-64488149D01*
X150452400Y-64728149D02*
X148556400Y-64728149D01*
X153569400Y-61087149D02*
X145439400Y-61087149D01*
X151819400Y-56317451D02*
X151819400Y-57117451D01*
X152288400Y-63728149D02*
X146720400Y-63728149D01*
X153534400Y-61367149D02*
X145474400Y-61367149D01*
X153208400Y-62448149D02*
X150544400Y-62448149D01*
X153556400Y-61207149D02*
X145452400Y-61207149D01*
X148464400Y-63368149D02*
X146380400Y-63368149D01*
X153088400Y-62688149D02*
X150544400Y-62688149D01*
X148464400Y-62528149D02*
X145838400Y-62528149D01*
X148464400Y-62368149D02*
X145764400Y-62368149D01*
X148464400Y-62888149D02*
X146035400Y-62888149D01*
X153565400Y-61127149D02*
X145443400Y-61127149D01*
X150957400Y-64568149D02*
X148051400Y-64568149D01*
X150272400Y-64768149D02*
X148736400Y-64768149D01*
X148464400Y-62288149D02*
X145730400Y-62288149D01*
X150602400Y-64688149D02*
X148406400Y-64688149D01*
X152060400Y-63928149D02*
X146948400Y-63928149D01*
X148464400Y-62728149D02*
X145942400Y-62728149D01*
X148464400Y-61608149D02*
X145519400Y-61608149D01*
X148464400Y-62408149D02*
X145782400Y-62408149D01*
X153110400Y-62648149D02*
X150544400Y-62648149D01*
X150850400Y-64608149D02*
X148158400Y-64608149D01*
X152784400Y-63168149D02*
X150544400Y-63168149D01*
X153572400Y-61047149D02*
X145436400Y-61047149D01*
X148464400Y-61768149D02*
X145557400Y-61768149D01*
X148464400Y-62048149D02*
X145641400Y-62048149D01*
X151849400Y-64088149D02*
X147159400Y-64088149D01*
X152155400Y-63848149D02*
X146853400Y-63848149D01*
X152813400Y-63128149D02*
X150544400Y-63128149D01*
X152009400Y-63968149D02*
X146999400Y-63968149D01*
X153561400Y-61167149D02*
X145447400Y-61167149D01*
X148464400Y-63488149D02*
X146485400Y-63488149D01*
X148464400Y-62968149D02*
X146086400Y-62968149D01*
X148464400Y-61688149D02*
X145537400Y-61688149D01*
X153066400Y-62728149D02*
X150544400Y-62728149D01*
X150733400Y-64648149D02*
X148275400Y-64648149D01*
X148464400Y-62208149D02*
X145699400Y-62208149D01*
X153021400Y-62808149D02*
X150544400Y-62808149D01*
X152594400Y-63408149D02*
X150544400Y-63408149D01*
X153367400Y-62048149D02*
X150544400Y-62048149D01*
X148464400Y-61888149D02*
X145590400Y-61888149D01*
X153044400Y-62768149D02*
X150544400Y-62768149D01*
X148464400Y-63168149D02*
X146224400Y-63168149D01*
X148464400Y-62808149D02*
X145987400Y-62808149D01*
X152201400Y-63808149D02*
X146807400Y-63808149D01*
X148464400Y-61808149D02*
X145568400Y-61808149D01*
X152449400Y-63568149D02*
X146559400Y-63568149D01*
X152371400Y-63648149D02*
X146637400Y-63648149D01*
X153580400Y-60927149D02*
X145428400Y-60927149D01*
X151670400Y-64208149D02*
X147338400Y-64208149D01*
X152693400Y-63288149D02*
X150544400Y-63288149D01*
X148464400Y-61928149D02*
X145602400Y-61928149D01*
X153480400Y-61648149D02*
X150544400Y-61648149D01*
X148464400Y-62088149D02*
X145654400Y-62088149D01*
X153451400Y-61768149D02*
X150544400Y-61768149D01*
X153244400Y-62368149D02*
X150544400Y-62368149D01*
X148464400Y-61648149D02*
X145528400Y-61648149D01*
X152660400Y-63328149D02*
X150544400Y-63328149D01*
X153578400Y-60967149D02*
X145430400Y-60967149D01*
X151317400Y-64408149D02*
X147691400Y-64408149D01*
X148464400Y-63248149D02*
X146284400Y-63248149D01*
X153170400Y-62528149D02*
X150544400Y-62528149D01*
X151235400Y-64448149D02*
X147773400Y-64448149D01*
X152948400Y-62928149D02*
X150544400Y-62928149D01*
X153546400Y-61287149D02*
X145462400Y-61287149D01*
X153393400Y-61968149D02*
X150544400Y-61968149D01*
X152997400Y-62848149D02*
X150544400Y-62848149D01*
X153528400Y-61407149D02*
X145480400Y-61407149D01*
X151056400Y-64528149D02*
X147952400Y-64528149D01*
X151538400Y-64288149D02*
X147470400Y-64288149D01*
X153418400Y-61888149D02*
X150544400Y-61888149D01*
X148464400Y-62568149D02*
X145857400Y-62568149D01*
X153514400Y-61488149D02*
X150544400Y-61488149D01*
X152754400Y-63208149D02*
X150544400Y-63208149D01*
X152330400Y-63688149D02*
X146678400Y-63688149D01*
X148464400Y-63448149D02*
X146449400Y-63448149D01*
X148464400Y-62648149D02*
X145898400Y-62648149D01*
X153339400Y-62128149D02*
X150544400Y-62128149D01*
X148464400Y-63048149D02*
X146139400Y-63048149D01*
X152922400Y-62968149D02*
X150544400Y-62968149D01*
X153489400Y-61608149D02*
X150544400Y-61608149D01*
X148464400Y-62848149D02*
X146011400Y-62848149D01*
X153131400Y-62608149D02*
X150544400Y-62608149D01*
X153278400Y-62288149D02*
X150544400Y-62288149D01*
X148464400Y-63288149D02*
X146315400Y-63288149D01*
X148464400Y-62688149D02*
X145920400Y-62688149D01*
X151904400Y-64048149D02*
X147104400Y-64048149D01*
X153575400Y-61007149D02*
X145433400Y-61007149D01*
X148464400Y-62248149D02*
X145714400Y-62248149D01*
X153406400Y-61928149D02*
X150544400Y-61928149D01*
X151606400Y-64248149D02*
X147402400Y-64248149D01*
X152523400Y-63488149D02*
X150544400Y-63488149D01*
X152842400Y-63088149D02*
X150544400Y-63088149D01*
X151394400Y-64368149D02*
X147614400Y-64368149D01*
X152245400Y-63768149D02*
X146763400Y-63768149D01*
X148464400Y-63008149D02*
X146112400Y-63008149D01*
X153294400Y-62248149D02*
X150544400Y-62248149D01*
X148464400Y-63328149D02*
X146348400Y-63328149D01*
X148464400Y-63088149D02*
X146166400Y-63088149D01*
X152487400Y-63528149D02*
X146521400Y-63528149D01*
X148464400Y-61968149D02*
X145615400Y-61968149D01*
X148464400Y-63408149D02*
X146414400Y-63408149D01*
X148464400Y-63208149D02*
X146254400Y-63208149D01*
X152724400Y-63248149D02*
X150544400Y-63248149D01*
X148464400Y-61568149D02*
X145510400Y-61568149D01*
X152628400Y-63368149D02*
X150544400Y-63368149D01*
X148464400Y-61848149D02*
X145579400Y-61848149D01*
X152411400Y-63608149D02*
X146597400Y-63608149D01*
X153309400Y-62208149D02*
X150544400Y-62208149D01*
X148464400Y-61528149D02*
X145502400Y-61528149D01*
X153498400Y-61568149D02*
X150544400Y-61568149D01*
X151468400Y-64328149D02*
X147540400Y-64328149D01*
X153440400Y-61808149D02*
X150544400Y-61808149D01*
X153541400Y-61327149D02*
X145467400Y-61327149D01*
X152896400Y-63008149D02*
X150544400Y-63008149D01*
X153381400Y-62008149D02*
X150544400Y-62008149D01*
X148464400Y-62008149D02*
X145627400Y-62008149D01*
X152869400Y-63048149D02*
X150544400Y-63048149D01*
X153226400Y-62408149D02*
X150544400Y-62408149D01*
X152219400Y-56717451D02*
X151419400Y-56717451D01*
X153552400Y-61247149D02*
X145456400Y-61247149D01*
X151732400Y-64168149D02*
X147276400Y-64168149D01*
X153354400Y-62088149D02*
X150544400Y-62088149D01*
X148464400Y-62488149D02*
X145818400Y-62488149D01*
X151791400Y-64128149D02*
X147217400Y-64128149D01*
X148464400Y-62928149D02*
X146060400Y-62928149D01*
X153584400Y-60767149D02*
X145424400Y-60767149D01*
X153429400Y-61848149D02*
X150544400Y-61848149D01*
X153624400Y-60727149D02*
G75*
G03*
X153624400Y-60727149I-4120000J0D01*
G01*
%TO.C,C8*%
X155105980Y-83868800D02*
X154824820Y-83868800D01*
X155105980Y-84888800D02*
X154824820Y-84888800D01*
%TO.C,D6*%
X157453600Y-58220400D02*
X157453600Y-63620400D01*
X154153600Y-58220400D02*
X154153600Y-63620400D01*
X157453600Y-58220400D02*
X154153600Y-58220400D01*
%TO.C,C1*%
X144576420Y-84806500D02*
X144857580Y-84806500D01*
X144576420Y-83786500D02*
X144857580Y-83786500D01*
%TO.C,R7*%
X142276300Y-61230742D02*
X142276300Y-61705258D01*
X143321300Y-61230742D02*
X143321300Y-61705258D01*
%TO.C,L1*%
X148588400Y-56107000D02*
X148588400Y-54846500D01*
X142038400Y-50817500D02*
X142038400Y-49557000D01*
X148588400Y-49557000D02*
X148588400Y-50817500D01*
X142038400Y-56107000D02*
X148588400Y-56107000D01*
X142038400Y-54846500D02*
X142038400Y-56107000D01*
X142038400Y-49557000D02*
X148588400Y-49557000D01*
%TO.C,R9*%
X128690900Y-60214742D02*
X128690900Y-60689258D01*
X127645900Y-60214742D02*
X127645900Y-60689258D01*
%TO.C,C9*%
X154824820Y-86463600D02*
X155105980Y-86463600D01*
X154824820Y-85443600D02*
X155105980Y-85443600D01*
%TO.C,R6*%
X143823458Y-58456300D02*
X143348942Y-58456300D01*
X143823458Y-59501300D02*
X143348942Y-59501300D01*
%TD*%
M02*
