%TF.GenerationSoftware,KiCad,Pcbnew,(6.0.6)*%
%TF.CreationDate,2022-07-27T00:23:15-07:00*%
%TF.ProjectId,AUTOPUMP_V2.02,4155544f-5055-44d5-905f-56322e30322e,rev?*%
%TF.SameCoordinates,Original*%
%TF.FileFunction,Paste,Top*%
%TF.FilePolarity,Positive*%
%FSLAX46Y46*%
G04 Gerber Fmt 4.6, Leading zero omitted, Abs format (unit mm)*
G04 Created by KiCad (PCBNEW (6.0.6)) date 2022-07-27 00:23:15*
%MOMM*%
%LPD*%
G01*
G04 APERTURE LIST*
G04 Aperture macros list*
%AMRoundRect*
0 Rectangle with rounded corners*
0 $1 Rounding radius*
0 $2 $3 $4 $5 $6 $7 $8 $9 X,Y pos of 4 corners*
0 Add a 4 corners polygon primitive as box body*
4,1,4,$2,$3,$4,$5,$6,$7,$8,$9,$2,$3,0*
0 Add four circle primitives for the rounded corners*
1,1,$1+$1,$2,$3*
1,1,$1+$1,$4,$5*
1,1,$1+$1,$6,$7*
1,1,$1+$1,$8,$9*
0 Add four rect primitives between the rounded corners*
20,1,$1+$1,$2,$3,$4,$5,0*
20,1,$1+$1,$4,$5,$6,$7,0*
20,1,$1+$1,$6,$7,$8,$9,0*
20,1,$1+$1,$8,$9,$2,$3,0*%
G04 Aperture macros list end*
%ADD10RoundRect,0.225000X-0.225000X-0.250000X0.225000X-0.250000X0.225000X0.250000X-0.225000X0.250000X0*%
%ADD11R,2.500000X1.800000*%
%ADD12RoundRect,0.200000X0.200000X0.275000X-0.200000X0.275000X-0.200000X-0.275000X0.200000X-0.275000X0*%
%ADD13RoundRect,0.218750X-0.218750X-0.256250X0.218750X-0.256250X0.218750X0.256250X-0.218750X0.256250X0*%
%ADD14R,1.550000X0.600000*%
%ADD15R,2.600000X3.100000*%
%ADD16RoundRect,0.200000X-0.200000X-0.275000X0.200000X-0.275000X0.200000X0.275000X-0.200000X0.275000X0*%
%ADD17RoundRect,0.225000X-0.250000X0.225000X-0.250000X-0.225000X0.250000X-0.225000X0.250000X0.225000X0*%
%ADD18RoundRect,0.200000X-0.275000X0.200000X-0.275000X-0.200000X0.275000X-0.200000X0.275000X0.200000X0*%
%ADD19R,1.800000X2.500000*%
%ADD20RoundRect,0.225000X0.250000X-0.225000X0.250000X0.225000X-0.250000X0.225000X-0.250000X-0.225000X0*%
%ADD21R,2.500000X3.300000*%
%ADD22RoundRect,0.225000X0.225000X0.250000X-0.225000X0.250000X-0.225000X-0.250000X0.225000X-0.250000X0*%
%ADD23R,2.413000X3.429000*%
G04 APERTURE END LIST*
D10*
%TO.C,C6*%
X139700000Y-64008000D03*
X141250000Y-64008000D03*
%TD*%
D11*
%TO.C,D1*%
X119602000Y-53086000D03*
X115602000Y-53086000D03*
%TD*%
D12*
%TO.C,R10*%
X129222000Y-62788800D03*
X127572000Y-62788800D03*
%TD*%
D11*
%TO.C,D2*%
X122968000Y-53086000D03*
X126968000Y-53086000D03*
%TD*%
D13*
%TO.C,D7*%
X154152500Y-89154000D03*
X155727500Y-89154000D03*
%TD*%
D10*
%TO.C,C11*%
X154190400Y-87528400D03*
X155740400Y-87528400D03*
%TD*%
D14*
%TO.C,U1*%
X132174000Y-58674000D03*
X132174000Y-59944000D03*
X132174000Y-61214000D03*
X132174000Y-62484000D03*
X137574000Y-62484000D03*
X137574000Y-61214000D03*
X137574000Y-59944000D03*
X137574000Y-58674000D03*
D15*
X134874000Y-60579000D03*
%TD*%
D12*
%TO.C,R3*%
X129222000Y-64389000D03*
X127572000Y-64389000D03*
%TD*%
D16*
%TO.C,R1*%
X143892000Y-86074500D03*
X145542000Y-86074500D03*
%TD*%
D17*
%TO.C,C10*%
X144348200Y-60693000D03*
X144348200Y-62243000D03*
%TD*%
D18*
%TO.C,R4*%
X139700000Y-60643000D03*
X139700000Y-62293000D03*
%TD*%
%TO.C,R5*%
X123969000Y-85852000D03*
X123969000Y-87502000D03*
%TD*%
D19*
%TO.C,D5*%
X120040400Y-97478600D03*
X120040400Y-93478600D03*
%TD*%
D16*
%TO.C,R2*%
X147257000Y-86074500D03*
X148907000Y-86074500D03*
%TD*%
D17*
%TO.C,C5*%
X141249400Y-60693000D03*
X141249400Y-62243000D03*
%TD*%
%TO.C,C3*%
X129870200Y-59702400D03*
X129870200Y-61252400D03*
%TD*%
D20*
%TO.C,C4*%
X129286000Y-56668000D03*
X129286000Y-55118000D03*
%TD*%
D21*
%TO.C,D3*%
X138401000Y-53289200D03*
X131601000Y-53289200D03*
%TD*%
D16*
%TO.C,R8*%
X154165800Y-90779600D03*
X155815800Y-90779600D03*
%TD*%
D22*
%TO.C,C8*%
X155740400Y-84378800D03*
X154190400Y-84378800D03*
%TD*%
D19*
%TO.C,D6*%
X155803600Y-59620400D03*
X155803600Y-63620400D03*
%TD*%
D10*
%TO.C,C1*%
X143942000Y-84296500D03*
X145492000Y-84296500D03*
%TD*%
D18*
%TO.C,R7*%
X142798800Y-60643000D03*
X142798800Y-62293000D03*
%TD*%
D23*
%TO.C,L1*%
X142392400Y-52832000D03*
X148234400Y-52832000D03*
%TD*%
D18*
%TO.C,R9*%
X128168400Y-59627000D03*
X128168400Y-61277000D03*
%TD*%
D10*
%TO.C,C9*%
X154190400Y-85953600D03*
X155740400Y-85953600D03*
%TD*%
D12*
%TO.C,R6*%
X144411200Y-58978800D03*
X142761200Y-58978800D03*
%TD*%
M02*
