M48
; DRILL file {KiCad (6.0.6)} date Wed Jul 27 00:23:20 2022
; FORMAT={-:-/ absolute / inch / decimal}
; #@! TF.CreationDate,2022-07-27T00:23:20-07:00
; #@! TF.GenerationSoftware,Kicad,Pcbnew,(6.0.6)
; #@! TF.FileFunction,MixedPlating,1,2
FMAT,2
INCH
; #@! TA.AperFunction,Plated,PTH,ComponentDrill
T1C0.0118
; #@! TA.AperFunction,Plated,PTH,ViaDrill
T2C0.0157
; #@! TA.AperFunction,Plated,PTH,ViaDrill
T3C0.0236
; #@! TA.AperFunction,Plated,PTH,ComponentDrill
T4C0.0300
; #@! TA.AperFunction,Plated,PTH,ComponentDrill
T5C0.0315
; #@! TA.AperFunction,Plated,PTH,ComponentDrill
T6C0.0433
; #@! TA.AperFunction,Plated,PTH,ComponentDrill
T7C0.0512
; #@! TA.AperFunction,Plated,PTH,ComponentDrill
T8C0.1693
%
G90
G05
T1
X5.2864Y-2.3141
X5.2864Y-2.3614
X5.2864Y-2.4126
X5.2864Y-2.4559
X5.3336Y-2.3141
X5.3336Y-2.3614
X5.3336Y-2.4126
X5.3336Y-2.4559
T2
X4.3587Y-2.7103
X4.5087Y-2.7803
X4.5087Y-2.9303
X4.5087Y-3.1503
X4.5087Y-3.3003
X4.5087Y-3.5003
X4.535Y-2.015
X4.6587Y-3.1503
X4.701Y-2.93
X4.705Y-2.015
X4.75Y-3.9593
X4.85Y-2.015
X4.9Y-3.9593
X4.995Y-2.015
X5.05Y-3.9593
X5.15Y-2.7
X5.15Y-2.85
X5.2Y-3.9593
X5.3Y-3.6093
X5.3Y-2.7
X5.3Y-2.85
X5.3Y-3.0
X5.3Y-3.15
X5.33Y-3.9593
X5.45Y-2.7
X5.45Y-2.85
X5.45Y-3.0
X5.45Y-3.15
X5.48Y-3.9593
X5.5Y-3.6093
X5.6Y-2.7
X5.6Y-2.85
X5.6Y-3.0
X5.6Y-3.15
X5.63Y-3.9593
X5.7Y-2.05
X5.7Y-2.15
X5.7Y-2.25
X5.73Y-3.6093
X5.78Y-3.9593
X5.85Y-2.7
X5.85Y-2.85
X5.85Y-3.0
X5.85Y-3.15
X5.88Y-3.6093
X6.0Y-2.7
X6.0Y-2.85
X6.0Y-3.0
X6.0Y-3.15
T3
X5.135Y-2.47
X5.25Y-2.52
X5.32Y-2.52
X5.38Y-2.52
X5.44Y-2.52
X5.65Y-2.52
X5.71Y-2.52
X5.77Y-2.52
X5.83Y-2.52
X5.89Y-2.52
T4
X4.83Y-2.62
X4.83Y-3.22
X4.93Y-2.62
X4.93Y-3.22
X5.03Y-2.62
X5.03Y-3.22
X5.13Y-2.62
X5.13Y-3.22
X5.23Y-2.62
X5.23Y-3.22
X5.33Y-2.62
X5.33Y-3.22
X5.43Y-2.62
X5.43Y-3.22
X5.53Y-2.62
X5.53Y-3.22
X5.63Y-2.62
X5.63Y-3.22
X5.73Y-2.62
X5.73Y-3.22
X5.83Y-2.62
X5.83Y-3.22
X5.93Y-2.62
X5.93Y-3.22
X6.03Y-2.62
X6.03Y-3.22
X6.13Y-2.62
X6.13Y-3.22
T5
X4.837Y-2.3089
X4.837Y-2.4467
X5.886Y-2.3219
X5.886Y-2.4597
T6
X5.03Y-3.4172
X5.13Y-3.4172
X5.23Y-3.4172
T7
X4.3751Y-2.8801
X4.3751Y-3.0801
X4.3769Y-2.4003
X4.3769Y-2.6003
X4.3769Y-3.3601
X4.3769Y-3.5601
X4.93Y-3.8093
X5.13Y-3.8093
X5.39Y-3.8093
X5.59Y-3.8093
X5.79Y-3.8093
T8
X4.325Y-2.115
X4.325Y-3.865
X6.075Y-2.115
X6.075Y-3.865
T0
M30
